<svg width="31" height="31" viewBox="0 0 31 31" fill="none" xmlns="http://www.w3.org/2000/svg">
<path d="M11.6305 21.0758C12.0239 21.6896 12.8089 21.8467 13.3838 21.4268C13.9588 21.0068 14.106 20.1689 13.7126 19.5552L11.6305 21.0758ZM16.418 21.0965C15.7213 21.0965 15.1566 21.6993 15.1566 22.443C15.1566 23.1866 15.7213 23.7895 16.418 23.7895V21.0965ZM13.7126 19.5552C13.3649 19.0128 13.1635 18.3489 13.1635 17.6225H10.6406C10.6406 18.8889 10.9942 20.0832 11.6305 21.0758L13.7126 19.5552ZM13.1635 17.6225C13.1635 15.7001 14.617 14.1486 16.418 14.1486V11.4556C13.2237 11.4556 10.6406 14.2128 10.6406 17.6225H13.1635ZM16.418 14.1486C18.2189 14.1486 19.6725 15.7001 19.6725 17.6225H22.1953C22.1953 14.2128 19.6123 11.4556 16.418 11.4556V14.1486ZM19.6725 17.6225C19.6725 19.5449 18.2189 21.0965 16.418 21.0965V23.7895C19.6123 23.7895 22.1953 21.0322 22.1953 17.6225H19.6725Z" fill="#FD650B"/>
<path d="M22.6994 10.076C23.2673 10.5065 24.0548 10.364 24.4581 9.75769C24.8615 9.15135 24.7279 8.31079 24.1599 7.88026L22.6994 10.076ZM4.92442 14.1352L5.98771 14.8597L5.98877 14.8579L4.92442 14.1352ZM4.92442 21.1235L5.98877 20.4008L5.98771 20.3991L4.92442 21.1235ZM27.9078 21.1235L26.8444 20.3991L26.8434 20.4008L27.9078 21.1235ZM28.971 13.4108C28.5962 12.7839 27.8162 12.6001 27.229 13.0002C26.6418 13.4003 26.4696 14.2328 26.8444 14.8597L28.971 13.4108ZM24.1599 7.88026C21.8362 6.11906 19.188 5.14062 16.416 5.14062V7.83361C18.6141 7.83361 20.7594 8.60562 22.6994 10.076L24.1599 7.88026ZM16.416 5.14062C11.4281 5.14062 6.9185 8.28029 3.86008 13.4125L5.98877 14.8579C8.7077 10.2954 12.4983 7.83361 16.416 7.83361V5.14062ZM3.86113 13.4108C3.13301 14.6284 2.81152 16.1698 2.81152 17.6294C2.81152 19.0889 3.13301 20.6304 3.86113 21.8479L5.98771 20.3991C5.58055 19.7181 5.33439 18.7147 5.33439 17.6294C5.33439 16.5441 5.58055 15.5406 5.98771 14.8597L3.86113 13.4108ZM3.86008 21.8462C6.9185 26.9784 11.4281 30.1181 16.416 30.1181V27.4251C12.4983 27.4251 8.7077 24.9634 5.98877 20.4008L3.86008 21.8462ZM16.416 30.1181C21.404 30.1181 25.9136 26.9784 28.972 21.8462L26.8434 20.4008C24.1245 24.9634 20.3338 27.4251 16.416 27.4251V30.1181ZM28.971 21.8479C29.6991 20.6304 30.0206 19.0889 30.0206 17.6294C30.0206 16.1698 29.6991 14.6284 28.971 13.4108L26.8444 14.8597C27.2516 15.5406 27.4977 16.5441 27.4977 17.6294C27.4977 18.7147 27.2516 19.7181 26.8444 20.3991L28.971 21.8479Z" fill="#FD650B"/>
</svg>
