<svg width="33" height="33" viewBox="0 0 33 33" fill="none" xmlns="http://www.w3.org/2000/svg">
<path d="M32.0205 16.1182C32.0205 7.28066 24.858 0.118164 16.0205 0.118164C7.18301 0.118164 0.0205078 7.28066 0.0205078 16.1182C0.0205078 24.9557 7.18301 32.1182 16.0205 32.1182C16.1143 32.1182 16.208 32.1182 16.3017 32.1119V19.662H12.8643V15.6557H16.3017V12.7057C16.3017 9.28691 18.3893 7.42441 21.4393 7.42441C22.9018 7.42441 24.158 7.53066 24.5205 7.58066V11.1557H22.4205C20.7642 11.1557 20.4393 11.9432 20.4393 13.0994V15.6494H24.408L23.8892 19.6557H20.4393V31.4995C27.1268 29.5807 32.0205 23.4244 32.0205 16.1182Z" fill="#D7D7D7"/>
</svg>
