<svg width="31" height="31" viewBox="0 0 31 31" fill="none" xmlns="http://www.w3.org/2000/svg">
<path d="M27.8967 17.1202C27.8967 23.1318 23.0234 28.0051 17.0118 28.0051V30.129C24.1964 30.129 30.0206 24.3048 30.0206 17.1202H27.8967ZM17.0118 28.0051C11.0002 28.0051 6.12682 23.1318 6.12682 17.1202H4.00293C4.00293 24.3048 9.82719 30.129 17.0118 30.129V28.0051ZM6.12682 17.1202C6.12682 11.1086 11.0002 6.23522 17.0118 6.23522V4.11133C9.82719 4.11133 4.00293 9.93559 4.00293 17.1202H6.12682ZM17.0118 6.23522C23.0234 6.23522 27.8967 11.1086 27.8967 17.1202H30.0206C30.0206 9.93559 24.1964 4.11133 17.0118 4.11133V6.23522Z" fill="#FD650B"/>
<path d="M21.99 13.204C22.5765 13.204 23.052 12.7285 23.052 12.142C23.052 11.5555 22.5765 11.0801 21.99 11.0801V13.204ZM17.0121 15.1288H15.9502H17.0121ZM15.9502 29.0668C15.9502 29.6533 16.4256 30.1288 17.0121 30.1288C17.5986 30.1288 18.0741 29.6533 18.0741 29.0668H15.9502ZM21.99 11.0801H19.9989V13.204H21.99V11.0801ZM19.9989 11.0801C18.9251 11.0801 17.8953 11.5066 17.136 12.2659L18.6378 13.7677C18.9988 13.4068 19.4884 13.204 19.9989 13.204V11.0801ZM17.136 12.2659C16.3767 13.0252 15.9502 14.055 15.9502 15.1288H18.0741C18.0741 14.6183 18.2769 14.1287 18.6378 13.7677L17.136 12.2659ZM15.9502 15.1288V29.0668H18.0741V15.1288H15.9502Z" fill="#FD650B"/>
<path d="M13.0297 18.0488C12.4432 18.0488 11.9678 18.5243 11.9678 19.1108C11.9678 19.6973 12.4432 20.1727 13.0297 20.1727V18.0488ZM20.9943 20.1727C21.5808 20.1727 22.0563 19.6973 22.0563 19.1108C22.0563 18.5243 21.5808 18.0488 20.9943 18.0488V20.1727ZM13.0297 20.1727H20.9943V18.0488H13.0297V20.1727Z" fill="#FD650B"/>
</svg>
