<svg width="31" height="31" viewBox="0 0 31 31" fill="none" xmlns="http://www.w3.org/2000/svg">
<path d="M6.66841 6.8443H27.9283V4.68457H6.66841V6.8443ZM27.9283 6.8443C27.891 6.8443 27.8608 6.81408 27.8608 6.77681H30.0205C30.0205 5.6213 29.0838 4.68457 27.9283 4.68457V6.8443ZM27.8608 6.77681V28.0367H30.0205V6.77681H27.8608ZM27.8608 28.0367C27.8608 27.9994 27.891 27.9692 27.9283 27.9692V30.1289C29.0838 30.1289 30.0205 29.1922 30.0205 28.0367H27.8608ZM27.9283 27.9692H6.66841V30.1289H27.9283V27.9692ZM6.66841 27.9692C6.70569 27.9692 6.7359 27.9994 6.7359 28.0367H4.57617C4.57617 29.1922 5.5129 30.1289 6.66841 30.1289V27.9692ZM6.7359 28.0367V6.77681H4.57617V28.0367H6.7359ZM6.7359 6.77681C6.7359 6.81408 6.70569 6.8443 6.66841 6.8443V4.68457C5.5129 4.68457 4.57617 5.6213 4.57617 6.77681H6.7359Z" fill="#FD650B"/>
<path d="M17.3658 15.3816C17.3658 14.7852 16.8823 14.3018 16.2859 14.3018C15.6895 14.3018 15.2061 14.7852 15.2061 15.3816H17.3658ZM15.2061 23.4806C15.2061 24.077 15.6895 24.5605 16.2859 24.5605C16.8823 24.5605 17.3658 24.077 17.3658 23.4806H15.2061ZM15.2061 15.3816V23.4806H17.3658V15.3816H15.2061Z" fill="#FD650B"/>
<path d="M13.316 15.3816C13.316 14.7852 12.8325 14.3018 12.2361 14.3018C11.6397 14.3018 11.1562 14.7852 11.1562 15.3816H13.316ZM11.1562 23.4806C11.1562 24.077 11.6397 24.5605 12.2361 24.5605C12.8325 24.5605 13.316 24.077 13.316 23.4806H11.1562ZM11.1562 15.3816V23.4806H13.316V15.3816H11.1562Z" fill="#FD650B"/>
<path d="M15.2061 18.9249C15.2061 19.5213 15.6895 20.0048 16.2859 20.0048C16.8823 20.0048 17.3658 19.5213 17.3658 18.9249H15.2061ZM19.8292 15.3816V14.3018V15.3816ZM22.2927 23.4806C22.2927 24.077 22.7761 24.5605 23.3725 24.5605C23.9689 24.5605 24.4524 24.077 24.4524 23.4806H22.2927ZM17.3658 18.9249C17.3658 18.2716 17.6253 17.645 18.0873 17.183L16.5601 15.6559C15.6931 16.5229 15.2061 17.6988 15.2061 18.9249H17.3658ZM18.0873 17.183C18.5493 16.721 19.1759 16.4615 19.8292 16.4615V14.3018C18.6031 14.3018 17.4272 14.7888 16.5601 15.6559L18.0873 17.183ZM19.8292 16.4615C20.4826 16.4615 21.1092 16.721 21.5711 17.183L23.0983 15.6559C22.2313 14.7888 21.0554 14.3018 19.8292 14.3018V16.4615ZM21.5711 17.183C22.0331 17.645 22.2927 18.2716 22.2927 18.9249H24.4524C24.4524 17.6988 23.9653 16.5229 23.0983 15.6559L21.5711 17.183ZM22.2927 18.9249V23.4806H24.4524V18.9249H22.2927Z" fill="#FD650B"/>
<path d="M11.1563 11.7715C11.9949 11.7715 12.6748 11.0916 12.6748 10.2529C12.6748 9.41426 11.9949 8.73438 11.1563 8.73438C10.3176 8.73438 9.6377 9.41426 9.6377 10.2529C9.6377 11.0916 10.3176 11.7715 11.1563 11.7715Z" fill="#FD650B"/>
</svg>
