<svg width="31" height="31" viewBox="0 0 31 31" fill="none" xmlns="http://www.w3.org/2000/svg">
<path d="M15.9562 12.1427L16.952 12.1436V12.1428L15.9562 12.1427ZM24.9027 10.1512L23.9902 10.5761C24.1486 10.963 24.5068 11.2131 24.9027 11.2131V10.1512ZM29.025 10.1512L29.7291 10.9021C30.0138 10.5984 30.0991 10.1417 29.9449 9.74484C29.7908 9.34801 29.4278 9.08927 29.025 9.08926V10.1512ZM25.2605 14.1662L24.5564 13.4153C24.3854 13.5977 24.2825 13.8402 24.2669 14.0976L25.2605 14.1662ZM10.3554 29.0671V30.1291H10.3554L10.3554 29.0671ZM5.68797 27.5738L5.33835 26.5794C5.05383 26.6933 4.83361 26.9393 4.74033 27.2478C4.64705 27.5562 4.69093 27.8932 4.85948 28.1629L5.68797 27.5738ZM11.2889 23.0937L12.1173 23.6827C12.2758 23.4293 12.3245 23.1156 12.2512 22.8211C12.1779 22.5267 11.9896 22.2801 11.7342 22.1439L11.2889 23.0937ZM5.68797 8.16006L6.39204 7.40916C6.13017 7.12986 5.74458 7.02865 5.39108 7.14642C5.03757 7.26419 4.77456 7.58148 4.70831 7.9701L5.68797 8.16006ZM15.9547 14.1335L15.791 15.181C16.0795 15.2323 16.3746 15.1457 16.5979 14.9441C16.8212 14.7425 16.9502 14.4464 16.9504 14.1344L15.9547 14.1335ZM16.952 12.1428C16.9521 11.2431 17.2426 10.3708 17.7747 9.67258L16.2295 8.33286C15.4088 9.40964 14.9607 10.7549 14.9606 12.1426L16.952 12.1428ZM17.7747 9.67258C18.3069 8.97439 19.0482 8.49291 19.8741 8.30907L19.4672 6.22998C18.1935 6.51351 17.0502 7.25609 16.2295 8.33286L17.7747 9.67258ZM19.8741 8.30907C20.6999 8.12523 21.5599 8.25024 22.3096 8.66309L23.2233 6.77598C22.0672 6.13925 20.7409 5.94645 19.4672 6.22998L19.8741 8.30907ZM22.3096 8.66309C23.0592 9.07595 23.6526 9.75146 23.9902 10.5761L25.8152 9.72627C25.2947 8.45452 24.3794 7.4127 23.2233 6.77598L22.3096 8.66309ZM24.9027 11.2131L29.025 11.2132V9.08926L24.9027 9.08922V11.2131ZM28.3209 9.40031L24.5564 13.4153L25.9646 14.9171L29.7291 10.9021L28.3209 9.40031ZM24.2669 14.0976C24.0381 17.8667 22.4729 21.4016 19.8891 23.9846L21.2511 25.5341C24.2039 22.5821 25.9927 18.5423 26.2541 14.2348L24.2669 14.0976ZM19.8891 23.9846C17.3053 26.5676 13.8968 28.0051 10.3554 28.0052L10.3554 30.1291C14.4027 30.129 18.2983 28.4861 21.2511 25.5341L19.8891 23.9846ZM10.3554 28.0052C8.61348 28.0052 7.60441 27.6573 7.06675 27.3707C6.79694 27.2268 6.6378 27.0941 6.55826 27.0178C6.51814 26.9792 6.49702 26.9539 6.49137 26.9469C6.48852 26.9432 6.48948 26.9443 6.49381 26.9504C6.49597 26.9534 6.49898 26.9578 6.50277 26.9634C6.50467 26.9663 6.50676 26.9695 6.50904 26.9731C6.51018 26.9748 6.51137 26.9767 6.5126 26.9786C6.51323 26.9796 6.51386 26.9806 6.51449 26.9816C6.51481 26.9821 6.5153 26.9829 6.51546 26.9832C6.51596 26.9839 6.51645 26.9848 5.68797 27.5738C4.85948 28.1629 4.85998 28.1636 4.86049 28.1645C4.86066 28.1647 4.86118 28.1655 4.86152 28.1661C4.86222 28.1672 4.86294 28.1683 4.86367 28.1695C4.86513 28.1718 4.86667 28.1741 4.86827 28.1767C4.87148 28.1817 4.87497 28.187 4.87875 28.1926C4.8863 28.204 4.895 28.2167 4.90491 28.2308C4.92474 28.2587 4.9494 28.2918 4.97937 28.3291C5.03936 28.4037 5.12034 28.495 5.22607 28.5965C5.43824 28.8002 5.74584 29.0408 6.17615 29.2703C7.03871 29.7302 8.36336 30.1291 10.3554 30.1291V28.0052ZM5.68797 27.5738C6.03758 28.5681 6.03782 28.568 6.03808 28.5679C6.03818 28.5679 6.03845 28.5678 6.03866 28.5677C6.03907 28.5675 6.03954 28.5673 6.04007 28.5671C6.04113 28.5666 6.04241 28.5662 6.04393 28.5656C6.04695 28.5643 6.05087 28.5627 6.05568 28.5608C6.06529 28.5569 6.07842 28.5515 6.09491 28.5444C6.12788 28.5306 6.1743 28.5109 6.23277 28.4851C6.34965 28.4335 6.51506 28.3578 6.71783 28.2579C7.1226 28.0587 7.68044 27.7613 8.3006 27.3644C9.52479 26.581 11.0668 25.3634 12.1173 23.6827L10.4604 22.5046C9.64393 23.8107 8.38552 24.8332 7.27602 25.5432C6.72931 25.893 6.23698 26.1555 5.8833 26.3295C5.70684 26.4164 5.56595 26.4808 5.47134 26.5225C5.42407 26.5434 5.38844 26.5586 5.3658 26.5681C5.35449 26.5728 5.34643 26.5761 5.34179 26.578C5.33948 26.579 5.33802 26.5795 5.33743 26.5798C5.33714 26.58 5.33707 26.58 5.33722 26.5798C5.3373 26.5798 5.33743 26.5798 5.33762 26.5797C5.33771 26.5797 5.33789 26.5796 5.33794 26.5796C5.33814 26.5795 5.33835 26.5794 5.68797 27.5738ZM11.2889 23.0937C11.7342 22.1439 11.7347 22.1441 11.7351 22.1444C11.7352 22.1444 11.7357 22.1446 11.7359 22.1448C11.7364 22.1451 11.7367 22.1453 11.737 22.1454C11.7375 22.1457 11.7376 22.1457 11.7372 22.1455C11.7364 22.1451 11.734 22.1438 11.7298 22.1414C11.7216 22.1368 11.7067 22.1284 11.6856 22.116C11.6434 22.0912 11.5768 22.0509 11.4896 21.9943C11.3151 21.8808 11.0594 21.703 10.7541 21.4552C10.1424 20.9589 9.33947 20.1886 8.58991 19.1036C7.10888 16.96 5.78617 13.5205 6.66762 8.35003L4.70831 7.9701C3.7228 13.751 5.20053 17.7783 6.9867 20.3635C7.87073 21.6432 8.81807 22.5529 9.54826 23.1455C9.9139 23.4422 10.2271 23.661 10.4537 23.8082C10.567 23.8818 10.659 23.9377 10.7253 23.9766C10.7585 23.9961 10.7853 24.0113 10.8051 24.0225C10.8151 24.028 10.8233 24.0326 10.8297 24.0361C10.8329 24.0378 10.8357 24.0392 10.838 24.0405C10.8392 24.0412 10.8402 24.0417 10.8411 24.0422C10.8416 24.0424 10.8422 24.0428 10.8424 24.043C10.843 24.0433 10.8436 24.0435 11.2889 23.0937ZM5.68797 8.16006C4.98389 8.91097 4.98408 8.91118 4.98429 8.9114C4.98438 8.91149 4.98461 8.91174 4.98479 8.91194C4.98516 8.91233 4.98561 8.91281 4.98613 8.91335C4.98716 8.91445 4.98847 8.91585 4.99008 8.91755C4.99328 8.92093 4.99762 8.92551 5.00308 8.93125C5.01401 8.94272 5.02943 8.9588 5.04923 8.97925C5.08882 9.02012 5.14595 9.07841 5.21971 9.1519C5.36718 9.29883 5.58138 9.50682 5.85499 9.75811C6.40159 10.2601 7.18867 10.9381 8.15744 11.6485C10.0806 13.0588 12.7871 14.6469 15.791 15.181L16.1184 13.086C13.5229 12.6245 11.0961 11.226 9.28573 9.89839C8.38773 9.23989 7.658 8.61117 7.15448 8.14872C6.90303 7.91778 6.70885 7.72909 6.57919 7.59991C6.51439 7.53534 6.46578 7.48571 6.43427 7.45318C6.41852 7.43691 6.40705 7.42493 6.39997 7.4175C6.39643 7.41379 6.39399 7.41121 6.39267 7.40981C6.392 7.40911 6.39161 7.4087 6.39151 7.40859C6.39146 7.40854 6.39148 7.40855 6.39156 7.40865C6.39161 7.4087 6.39173 7.40882 6.39175 7.40885C6.39189 7.40899 6.39204 7.40916 5.68797 8.16006ZM16.9504 14.1344L16.952 12.1436L14.9606 12.1418L14.9589 14.1326L16.9504 14.1344Z" fill="#FD650B"/>
</svg>
