<svg width="31" height="31" viewBox="0 0 31 31" fill="none" xmlns="http://www.w3.org/2000/svg">
<path d="M21.28 17.4064C21.28 19.6056 19.4972 21.3884 17.298 21.3884V23.5481C20.69 23.5481 23.4397 20.7984 23.4397 17.4064H21.28ZM17.298 21.3884C15.0988 21.3884 13.316 19.6056 13.316 17.4064H11.1562C11.1562 20.7984 13.906 23.5481 17.298 23.5481V21.3884ZM13.316 17.4064C13.316 15.2072 15.0988 13.4244 17.298 13.4244V11.2646C13.906 11.2646 11.1562 14.0144 11.1562 17.4064H13.316ZM17.298 13.4244C19.4972 13.4244 21.28 15.2072 21.28 17.4064H23.4397C23.4397 14.0144 20.69 11.2646 17.298 11.2646V13.4244Z" fill="#FD650B"/>
<path d="M11.7303 6.8443H22.8664V4.68457H11.7303V6.8443ZM22.8664 6.8443C25.6247 6.8443 27.8608 9.08035 27.8608 11.8387H30.0205C30.0205 7.88757 26.8175 4.68457 22.8664 4.68457V6.8443ZM27.8608 11.8387V22.9748H30.0205V11.8387H27.8608ZM27.8608 22.9748C27.8608 25.7331 25.6247 27.9692 22.8664 27.9692V30.1289C26.8175 30.1289 30.0205 26.9259 30.0205 22.9748H27.8608ZM22.8664 27.9692H11.7303V30.1289H22.8664V27.9692ZM11.7303 27.9692C8.97196 27.9692 6.7359 25.7331 6.7359 22.9748H4.57617C4.57617 26.9259 7.77917 30.1289 11.7303 30.1289V27.9692ZM6.7359 22.9748V11.8387H4.57617V22.9748H6.7359ZM6.7359 11.8387C6.7359 9.08035 8.97196 6.8443 11.7303 6.8443V4.68457C7.77917 4.68457 4.57617 7.88757 4.57617 11.8387H6.7359Z" fill="#FD650B"/>
<path d="M22.7988 11.2647C23.6375 11.2647 24.3174 10.5848 24.3174 9.7461C24.3174 8.90742 23.6375 8.22754 22.7988 8.22754C21.9602 8.22754 21.2803 8.90742 21.2803 9.7461C21.2803 10.5848 21.9602 11.2647 22.7988 11.2647Z" fill="#FD650B"/>
</svg>
