<svg width="31" height="31" viewBox="0 0 31 31" fill="none" xmlns="http://www.w3.org/2000/svg">
<path d="M20.3202 18.3609L20.8903 19.309C21.1762 19.0977 21.348 18.7419 21.348 18.3609C21.348 17.9799 21.1762 17.6241 20.8903 17.4128L20.3202 18.3609ZM14.5386 14.0877L15.1087 13.1396C14.7933 12.9065 14.3878 12.8848 14.0536 13.0831C13.7194 13.2814 13.5107 13.6675 13.5107 14.0877H14.5386ZM14.5386 22.634H13.5107C13.5107 23.0543 13.7194 23.4404 14.0536 23.6387C14.3878 23.837 14.7933 23.8152 15.1087 23.5821L14.5386 22.634ZM20.8903 17.4128L15.1087 13.1396L13.9684 15.0359L19.75 19.309L20.8903 17.4128ZM13.5107 14.0877V22.634H15.5664V14.0877H13.5107ZM15.1087 23.5821L20.8903 19.309L19.75 17.4128L13.9684 21.6859L15.1087 23.5821Z" fill="#FD650B"/>
<path d="M4.59073 25.8637L5.58674 25.5822L5.58539 25.5765L4.59073 25.8637ZM5.75101 27.3185L5.37706 28.3799L5.38231 28.3822L5.75101 27.3185ZM16.4657 28.9892L16.4723 27.8496L16.4592 27.8497L16.4657 28.9892ZM27.1804 27.3185L27.5491 28.3822L27.5544 28.3799L27.1804 27.3185ZM28.3408 25.8638L27.346 25.5765L27.3448 25.5822L28.3408 25.8638ZM28.3408 10.8579L27.3448 11.1394L27.3461 11.1451L28.3408 10.8579ZM27.1804 9.40313L27.5545 8.3417L27.5492 8.33946L27.1804 9.40313ZM16.4657 7.7324L16.4592 8.87197L16.4723 8.87188L16.4657 7.7324ZM5.75104 9.40311L5.38234 8.33943L5.3771 8.3417L5.75104 9.40311ZM4.59076 10.8579L5.58542 11.1451L5.58675 11.1394L4.59076 10.8579ZM2.91113 18.3608C2.91113 22.4108 3.28837 24.8411 3.59608 26.1509L5.58539 25.5765C5.33014 24.49 4.96681 22.2577 4.96681 18.3608H2.91113ZM3.59475 26.1451C3.71033 26.6479 3.93229 27.1128 4.24224 27.5014L5.78225 25.9918C5.68865 25.8744 5.62162 25.734 5.58672 25.5822L3.59475 26.1451ZM4.24224 27.5014C4.55219 27.8901 4.9412 28.1912 5.37706 28.3799L6.12494 26.2571C5.99333 26.2001 5.87585 26.1091 5.78225 25.9918L4.24224 27.5014ZM5.38231 28.3822C7.5407 29.3017 10.3404 29.7289 12.5343 29.9335C13.6444 30.0371 14.6249 30.0859 15.3284 30.1088C15.6806 30.1202 15.964 30.1252 16.1607 30.1273C16.259 30.1284 16.3356 30.1287 16.3883 30.1288C16.4147 30.1288 16.435 30.1288 16.4491 30.1288C16.4562 30.1288 16.4616 30.1287 16.4655 30.1287C16.4675 30.1287 16.469 30.1287 16.4702 30.1287C16.4707 30.1287 16.4712 30.1287 16.4715 30.1287C16.4717 30.1287 16.4719 30.1287 16.472 30.1287C16.4721 30.1287 16.4723 30.1287 16.4657 28.9892C16.4592 27.8497 16.4593 27.8497 16.4594 27.8497V27.8497C16.4594 27.8497 16.4592 27.8497 16.459 27.8497C16.4584 27.8497 16.4575 27.8497 16.4563 27.8497C16.4537 27.8498 16.4495 27.8498 16.4437 27.8498C16.4323 27.8498 16.4147 27.8498 16.3911 27.8498C16.3439 27.8497 16.273 27.8495 16.1808 27.8485C15.9962 27.8464 15.7261 27.8417 15.3888 27.8307C14.7134 27.8088 13.7713 27.762 12.7067 27.6626C10.5513 27.4615 7.99359 27.0532 6.1197 26.2549L5.38231 28.3822ZM16.4657 28.9892C16.4592 30.1287 16.4594 30.1287 16.4595 30.1287C16.4596 30.1287 16.4598 30.1287 16.46 30.1287C16.4603 30.1287 16.4608 30.1287 16.4613 30.1287C16.4624 30.1287 16.464 30.1287 16.4659 30.1287C16.4698 30.1287 16.4753 30.1288 16.4824 30.1288C16.4965 30.1288 16.5168 30.1288 16.5431 30.1288C16.5959 30.1287 16.6724 30.1284 16.7708 30.1273C16.9674 30.1252 17.2509 30.1202 17.603 30.1088C18.3066 30.0859 19.287 30.0371 20.3972 29.9335C22.591 29.7289 25.3908 29.3017 27.5491 28.3822L26.8117 26.2549C24.9378 27.0532 22.3801 27.4615 20.2247 27.6626C19.1602 27.762 18.2181 27.8088 17.5427 27.8307C17.2054 27.8417 16.9353 27.8464 16.7507 27.8485C16.6585 27.8495 16.5875 27.8497 16.5404 27.8498C16.5168 27.8498 16.4991 27.8498 16.4877 27.8498C16.482 27.8498 16.4778 27.8498 16.4752 27.8497C16.474 27.8497 16.473 27.8497 16.4725 27.8497C16.4723 27.8497 16.4721 27.8497 16.4721 27.8497V27.8497C16.4722 27.8497 16.4723 27.8497 16.4657 28.9892ZM27.5544 28.3799C27.9903 28.1912 28.3792 27.8901 28.6892 27.5015L27.1492 25.9918C27.0555 26.1091 26.9382 26.2001 26.8065 26.2571L27.5544 28.3799ZM28.6892 27.5015C28.9992 27.1128 29.2211 26.6479 29.3367 26.1452L27.3448 25.5822C27.3098 25.734 27.2428 25.8745 27.1492 25.9918L28.6892 27.5015ZM29.3354 26.1509C29.6431 24.8411 30.0203 22.4108 30.0203 18.3608H27.9647C27.9647 22.2577 27.6013 24.49 27.346 25.5765L29.3354 26.1509ZM30.0203 18.3608C30.0203 14.3109 29.6431 11.8806 29.3354 10.5707L27.3461 11.1451C27.6013 12.2317 27.9647 14.4639 27.9647 18.3608H30.0203ZM29.3367 10.5764C29.2211 10.0738 28.9992 9.60885 28.6892 9.22022L27.1492 10.7298C27.2428 10.8472 27.3098 10.9876 27.3448 11.1394L29.3367 10.5764ZM28.6892 9.22022C28.3793 8.8316 27.9903 8.53045 27.5545 8.34172L26.8065 10.4645C26.9382 10.5215 27.0556 10.6125 27.1492 10.7298L28.6892 9.22022ZM27.5492 8.33946C25.3908 7.41991 22.5911 6.99281 20.3972 6.78807C19.2872 6.68447 18.3066 6.63574 17.603 6.61286C17.2509 6.60142 16.9674 6.59642 16.7708 6.59429C16.6724 6.59322 16.5959 6.59287 16.5431 6.59279C16.5168 6.59275 16.4965 6.59278 16.4824 6.59282C16.4753 6.59284 16.4698 6.59287 16.4659 6.59289C16.464 6.5929 16.4624 6.5929 16.4613 6.59291C16.4608 6.59291 16.4603 6.59292 16.46 6.59292C16.4598 6.59292 16.4596 6.59292 16.4595 6.59292C16.4594 6.59292 16.4592 6.59293 16.4657 7.7324C16.4723 8.87188 16.4722 8.87188 16.4721 8.87188V8.87188C16.4721 8.87188 16.4723 8.87188 16.4725 8.87188C16.473 8.87188 16.474 8.87187 16.4752 8.87187C16.4778 8.87186 16.482 8.87183 16.4877 8.87182C16.4991 8.87179 16.5168 8.87176 16.5404 8.87179C16.5875 8.87187 16.6585 8.87218 16.7507 8.87318C16.9353 8.87518 17.2054 8.87991 17.5427 8.89089C18.2181 8.91284 19.1602 8.95969 20.2247 9.05904C22.3802 9.26019 24.9379 9.66845 26.8117 10.4668L27.5492 8.33946ZM16.4657 7.7324C16.4723 6.59293 16.4721 6.59292 16.472 6.59292C16.4719 6.59292 16.4717 6.59292 16.4715 6.59292C16.4712 6.59292 16.4707 6.59291 16.4702 6.59291C16.469 6.5929 16.4675 6.5929 16.4655 6.59289C16.4616 6.59287 16.4562 6.59284 16.4491 6.59282C16.435 6.59278 16.4147 6.59275 16.3883 6.59279C16.3356 6.59287 16.259 6.59322 16.1607 6.59429C15.964 6.59642 15.6806 6.60142 15.3284 6.61286C14.6249 6.63574 13.6444 6.68447 12.5343 6.78807C10.3404 6.99281 7.54076 7.4199 5.38235 8.33945L6.11973 10.4668C7.99364 9.66844 10.5513 9.26019 12.7067 9.05904C13.7713 8.95969 14.7134 8.91284 15.3888 8.89089C15.7261 8.87991 15.9962 8.87518 16.1808 8.87318C16.273 8.87218 16.3439 8.87187 16.3911 8.87179C16.4147 8.87176 16.4323 8.87179 16.4437 8.87182C16.4495 8.87183 16.4537 8.87186 16.4563 8.87187C16.4575 8.87187 16.4584 8.87188 16.459 8.87188C16.4592 8.87188 16.4594 8.87188 16.4594 8.87188V8.87188C16.4593 8.87188 16.4592 8.87188 16.4657 7.7324ZM5.3771 8.3417C4.94125 8.53042 4.55223 8.83157 4.24228 9.2202L5.78228 10.7298C5.87588 10.6125 5.99335 10.5215 6.12497 10.4645L5.3771 8.3417ZM4.24228 9.2202C3.93233 9.60882 3.71036 10.0737 3.59478 10.5764L5.58675 11.1394C5.62165 10.9876 5.68868 10.8472 5.78228 10.7298L4.24228 9.2202ZM3.59611 10.5707C3.28838 11.8805 2.91113 14.3109 2.91113 18.3608H4.96681C4.96681 14.4639 5.33015 12.2316 5.58541 11.1451L3.59611 10.5707Z" fill="#FD650B"/>
</svg>
