<svg width="25" height="25" viewBox="0 0 25 25" fill="none" xmlns="http://www.w3.org/2000/svg">
<path d="M4.77051 12.6182C4.21822 12.6182 3.77051 13.0659 3.77051 13.6182C3.77051 14.1704 4.21822 14.6182 4.77051 14.6182V12.6182ZM21.2705 14.6182C21.8228 14.6182 22.2705 14.1704 22.2705 13.6182C22.2705 13.0659 21.8228 12.6182 21.2705 12.6182V14.6182ZM4.77051 14.6182H21.2705V12.6182H4.77051V14.6182Z" fill="#FD650B"/>
<path d="M15.2276 6.16106C14.8371 5.77053 14.2039 5.77053 13.8134 6.16106C13.4229 6.55158 13.4229 7.18475 13.8134 7.57527L15.2276 6.16106ZM21.2705 13.6182L21.9776 14.3253C22.3681 13.9347 22.3681 13.3016 21.9776 12.9111L21.2705 13.6182ZM13.8134 19.6611C13.4229 20.0516 13.4229 20.6848 13.8134 21.0753C14.2039 21.4658 14.8371 21.4658 15.2276 21.0753L13.8134 19.6611ZM13.8134 7.57527L20.5634 14.3253L21.9776 12.9111L15.2276 6.16106L13.8134 7.57527ZM20.5634 12.9111L13.8134 19.6611L15.2276 21.0753L21.9776 14.3253L20.5634 12.9111Z" fill="#FD650B"/>
</svg>
