<svg width="21" height="21" viewBox="0 0 21 21" fill="none" xmlns="http://www.w3.org/2000/svg">
<path d="M12.5205 9.49316C12.5205 10.4597 11.737 11.2432 10.7705 11.2432V12.7432C12.5654 12.7432 14.0205 11.2881 14.0205 9.49316H12.5205ZM10.7705 11.2432C9.80401 11.2432 9.02051 10.4597 9.02051 9.49316H7.52051C7.52051 11.2881 8.97558 12.7432 10.7705 12.7432V11.2432ZM9.02051 9.49316C9.02051 8.52666 9.80401 7.74316 10.7705 7.74316V6.24316C8.97558 6.24316 7.52051 7.69824 7.52051 9.49316H9.02051ZM10.7705 7.74316C11.737 7.74316 12.5205 8.52666 12.5205 9.49316H14.0205C14.0205 7.69824 12.5654 6.24316 10.7705 6.24316V7.74316Z" fill="#7B7B7B"/>
<path d="M10.7705 19.4932L10.3404 20.1076C10.5986 20.2884 10.9424 20.2884 11.2006 20.1076L10.7705 19.4932ZM10.7705 3.24316V2.49316V3.24316ZM16.2705 9.49316C16.2705 12.0356 14.8491 14.3629 13.3296 16.1104C12.5789 16.9737 11.8264 17.67 11.2613 18.1503C10.9793 18.39 10.7454 18.5747 10.5836 18.6983C10.5028 18.7601 10.4401 18.8066 10.3985 18.8369C10.3777 18.8521 10.3622 18.8632 10.3524 18.8702C10.3475 18.8737 10.344 18.8762 10.342 18.8776C10.341 18.8784 10.3404 18.8788 10.3401 18.879C10.34 18.8791 10.3399 18.8791 10.34 18.8791C10.34 18.8791 10.3401 18.879 10.3401 18.879C10.3403 18.8789 10.3404 18.8788 10.7705 19.4932C11.2006 20.1076 11.2008 20.1075 11.201 20.1073C11.2011 20.1072 11.2014 20.1071 11.2016 20.1069C11.202 20.1066 11.2026 20.1062 11.2032 20.1058C11.2044 20.1049 11.2061 20.1038 11.2081 20.1024C11.2121 20.0995 11.2175 20.0957 11.2245 20.0907C11.2383 20.0808 11.2579 20.0667 11.2829 20.0485C11.3329 20.012 11.4044 19.9589 11.4945 19.8901C11.6745 19.7525 11.9289 19.5515 12.2328 19.2932C12.8396 18.7774 13.6496 18.0284 14.4615 17.0947C16.0669 15.2485 17.7705 12.5757 17.7705 9.49316H16.2705ZM10.7705 19.4932C11.2006 18.8788 11.2008 18.8789 11.2009 18.879C11.2009 18.879 11.201 18.8791 11.201 18.8791C11.2011 18.8791 11.2011 18.8791 11.2009 18.879C11.2007 18.8788 11.2 18.8784 11.199 18.8776C11.197 18.8762 11.1935 18.8737 11.1886 18.8702C11.1788 18.8632 11.1633 18.8521 11.1425 18.8369C11.101 18.8066 11.0382 18.7601 10.9574 18.6983C10.7956 18.5747 10.5617 18.39 10.2797 18.1503C9.71463 17.67 8.96209 16.9737 8.21146 16.1104C6.6919 14.3629 5.27051 12.0356 5.27051 9.49316H3.77051C3.77051 12.5757 5.47412 15.2485 7.07956 17.0947C7.89143 18.0284 8.70139 18.7774 9.30821 19.2932C9.61215 19.5515 9.8665 19.7525 10.0465 19.8901C10.1366 19.9589 10.2081 20.012 10.2581 20.0485C10.2831 20.0667 10.3027 20.0808 10.3166 20.0907C10.3235 20.0957 10.329 20.0995 10.3329 20.1024C10.3349 20.1038 10.3366 20.1049 10.3378 20.1058C10.3384 20.1062 10.339 20.1066 10.3394 20.1069C10.3396 20.1071 10.3399 20.1072 10.34 20.1073C10.3402 20.1075 10.3404 20.1076 10.7705 19.4932ZM5.27051 9.49316C5.27051 8.03447 5.84997 6.63552 6.88142 5.60407L5.82076 4.54341C4.50801 5.85617 3.77051 7.63664 3.77051 9.49316H5.27051ZM6.88142 5.60407C7.91287 4.57262 9.31182 3.99316 10.7705 3.99316V2.49316C8.91399 2.49316 7.13352 3.23066 5.82076 4.54341L6.88142 5.60407ZM10.7705 3.99316C12.2292 3.99316 13.6281 4.57262 14.6596 5.60407L15.7202 4.54341C14.4075 3.23066 12.627 2.49316 10.7705 2.49316V3.99316ZM14.6596 5.60407C15.691 6.63552 16.2705 8.03447 16.2705 9.49316H17.7705C17.7705 7.63664 17.033 5.85617 15.7202 4.54341L14.6596 5.60407Z" fill="#7B7B7B"/>
</svg>
