<svg width="25" height="25" viewBox="0 0 25 25" fill="none" xmlns="http://www.w3.org/2000/svg">
<path d="M5.95209 6.32039H22.1319V4.16309H5.95209V6.32039ZM22.1319 6.32039C21.9829 6.32039 21.8622 6.19966 21.8622 6.05073H24.0195C24.0195 5.00821 23.1744 4.16309 22.1319 4.16309V6.32039ZM21.8622 6.05073V22.2305H24.0195V6.05073H21.8622ZM21.8622 22.2305C21.8622 22.0815 21.9829 21.9608 22.1319 21.9608V24.1181C23.1744 24.1181 24.0195 23.273 24.0195 22.2305H21.8622ZM22.1319 21.9608H5.95209V24.1181H22.1319V21.9608ZM5.95209 21.9608C6.10102 21.9608 6.22176 22.0815 6.22176 22.2305H4.06445C4.06445 23.273 4.90958 24.1181 5.95209 24.1181V21.9608ZM6.22176 22.2305V6.05073H4.06445V22.2305H6.22176ZM6.22176 6.05073C6.22176 6.19966 6.10102 6.32039 5.95209 6.32039V4.16309C4.90958 4.16309 4.06445 5.00821 4.06445 6.05073H6.22176Z" fill="#1A1A1A"/>
<path d="M22.1781 18.1393C22.5994 18.5605 23.2824 18.5605 23.7036 18.1393C24.1248 17.7181 24.1248 17.0351 23.7036 16.6139L22.1781 18.1393ZM18.6634 13.099L17.8948 13.8559L17.9006 13.8618L18.6634 13.099ZM17.5105 13.099L18.2733 13.8618L18.279 13.8559L17.5105 13.099ZM13.0004 17.6092L12.2377 16.8464L12.2319 16.8523L13.0004 17.6092ZM11.8476 17.6092L12.6162 16.8523L12.6103 16.8464L11.8476 17.6092ZM9.76445 15.526L8.99589 16.2829L9.00173 16.2887L9.76445 15.526ZM8.61165 15.526L9.37438 16.2888L9.38019 16.2829L8.61165 15.526ZM4.38038 18.2318C3.95914 18.6531 3.95914 19.336 4.38038 19.7573C4.80162 20.1785 5.48459 20.1785 5.90583 19.7573L4.38038 18.2318ZM23.7036 16.6139L19.4261 12.3363L17.9006 13.8618L22.1781 18.1393L23.7036 16.6139ZM19.4319 12.3422C19.2562 12.1638 19.0468 12.0222 18.816 11.9255L17.9827 13.9154C17.9498 13.9016 17.9198 13.8814 17.8948 13.8559L19.4319 12.3422ZM18.816 11.9255C18.585 11.8288 18.3373 11.7791 18.0869 11.7791V13.9364C18.0511 13.9364 18.0157 13.9292 17.9827 13.9154L18.816 11.9255ZM18.0869 11.7791C17.8366 11.7791 17.5888 11.8288 17.3579 11.9255L18.1911 13.9154C18.1581 13.9292 18.1227 13.9364 18.0869 13.9364V11.7791ZM17.3579 11.9255C17.127 12.0222 16.9177 12.1638 16.742 12.3422L18.279 13.8559C18.254 13.8814 18.224 13.9016 18.1911 13.9154L17.3579 11.9255ZM16.7478 12.3363L12.2377 16.8464L13.7631 18.3719L18.2732 13.8618L16.7478 12.3363ZM12.2319 16.8523C12.257 16.8268 12.2869 16.8066 12.3199 16.7928L13.153 18.7827C13.3839 18.686 13.5933 18.5444 13.7689 18.366L12.2319 16.8523ZM12.3199 16.7928C12.3528 16.779 12.3882 16.7719 12.424 16.7719V18.9292C12.6743 18.9292 12.9221 18.8794 13.153 18.7827L12.3199 16.7928ZM12.424 16.7719C12.4598 16.7719 12.4952 16.779 12.5281 16.7928L11.695 18.7827C11.9259 18.8794 12.1737 18.9292 12.424 18.9292V16.7719ZM12.5281 16.7928C12.5611 16.8066 12.591 16.8268 12.6161 16.8523L11.0791 18.366C11.2547 18.5444 11.4641 18.686 11.695 18.7827L12.5281 16.7928ZM12.6103 16.8464L10.5272 14.7633L9.00173 16.2887L11.0849 18.3719L12.6103 16.8464ZM10.533 14.7692C10.3573 14.5908 10.148 14.4492 9.91709 14.3525L9.0839 16.3424C9.05092 16.3286 9.02101 16.3084 8.99591 16.2829L10.533 14.7692ZM9.91709 14.3525C9.68619 14.2558 9.43837 14.206 9.18805 14.206V16.3633C9.15228 16.3633 9.11688 16.3562 9.0839 16.3424L9.91709 14.3525ZM9.18805 14.206C8.93772 14.206 8.6899 14.2558 8.45901 14.3525L9.29219 16.3424C9.25922 16.3562 9.22382 16.3633 9.18805 16.3633V14.206ZM8.45901 14.3525C8.22811 14.4492 8.01875 14.5908 7.84311 14.7692L9.38019 16.2829C9.35509 16.3084 9.32518 16.3286 9.29219 16.3424L8.45901 14.3525ZM7.84892 14.7633L4.38038 18.2318L5.90583 19.7573L9.37436 16.2887L7.84892 14.7633Z" fill="#1A1A1A"/>
<path d="M10.1315 10.635C10.8016 10.635 11.3449 10.0917 11.3449 9.42149C11.3449 8.7513 10.8016 8.20801 10.1315 8.20801C9.46126 8.20801 8.91797 8.7513 8.91797 9.42149C8.91797 10.0917 9.46126 10.635 10.1315 10.635Z" fill="#1A1A1A"/>
</svg>
