<svg width="17" height="17" viewBox="0 0 17 17" fill="none" xmlns="http://www.w3.org/2000/svg">
<path d="M14.2459 5.44333H2.34358V3.66082C2.34358 3.50324 2.28906 3.35211 2.19201 3.24068C2.09496 3.12925 1.96334 3.06665 1.82609 3.06665C1.68884 3.06665 1.55721 3.12925 1.46016 3.24068C1.36312 3.35211 1.30859 3.50324 1.30859 3.66082V15.5442C1.30859 15.7018 1.36312 15.8529 1.46016 15.9643C1.55721 16.0757 1.68884 16.1383 1.82609 16.1383C1.96334 16.1383 2.09496 16.0757 2.19201 15.9643C2.28906 15.8529 2.34358 15.7018 2.34358 15.5442V13.1675H15.7984V15.5442C15.7984 15.7018 15.853 15.8529 15.95 15.9643C16.047 16.0757 16.1786 16.1383 16.3159 16.1383C16.4531 16.1383 16.5847 16.0757 16.6818 15.9643C16.7788 15.8529 16.8334 15.7018 16.8334 15.5442V8.41418C16.8326 7.62653 16.5598 6.8714 16.0747 6.31445C15.5896 5.7575 14.9319 5.44422 14.2459 5.44333ZM2.34358 6.63166H7.00102V11.9792H2.34358V6.63166Z" fill="#636363"/>
</svg>
