<svg width="25" height="25" viewBox="0 0 25 25" fill="none" xmlns="http://www.w3.org/2000/svg">
<path d="M21.6544 12.752C22.1425 12.2639 22.1425 11.4724 21.6544 10.9843C21.1662 10.4961 20.3748 10.4961 19.8866 10.9843L21.6544 12.752ZM13.2705 19.3682L12.3866 20.252C12.8748 20.7402 13.6662 20.7402 14.1544 20.252L13.2705 19.3682ZM6.65439 10.9843C6.16624 10.4961 5.37478 10.4961 4.88663 10.9843C4.39847 11.4724 4.39847 12.2639 4.88663 12.752L6.65439 10.9843ZM19.8866 10.9843L12.3866 18.4843L14.1544 20.252L21.6544 12.752L19.8866 10.9843ZM14.1544 18.4843L6.65439 10.9843L4.88663 12.752L12.3866 20.252L14.1544 18.4843Z" fill="#636363"/>
</svg>
