<svg width="25" height="25" viewBox="0 0 25 25" fill="none" xmlns="http://www.w3.org/2000/svg">
<path d="M19.2705 12.1182C19.8228 12.1182 20.2705 11.6704 20.2705 11.1182C20.2705 10.5659 19.8228 10.1182 19.2705 10.1182L19.2705 12.1182ZM2.77051 10.1182C2.21821 10.1182 1.77051 10.5659 1.77051 11.1182C1.77051 11.6704 2.21821 12.1182 2.77051 12.1182L2.77051 10.1182ZM19.2705 10.1182L2.77051 10.1182L2.77051 12.1182L19.2705 12.1182L19.2705 10.1182Z" fill="#787878"/>
<path d="M8.8134 18.5753C9.20393 18.9658 9.83709 18.9658 10.2276 18.5753C10.6181 18.1847 10.6181 17.5516 10.2276 17.1611L8.8134 18.5753ZM2.77051 11.1182L2.0634 10.4111C1.67288 10.8016 1.67288 11.4347 2.0634 11.8253L2.77051 11.1182ZM10.2276 5.07526C10.6181 4.68476 10.6181 4.05157 10.2276 3.66107C9.83709 3.27057 9.20393 3.27056 8.8134 3.66106L10.2276 5.07526ZM10.2276 17.1611L3.47762 10.4111L2.0634 11.8253L8.8134 18.5753L10.2276 17.1611ZM3.47762 11.8253L10.2276 5.07526L8.8134 3.66106L2.0634 10.4111L3.47762 11.8253Z" fill="#787878"/>
</svg>
