<svg width="21" height="21" viewBox="0 0 21 21" fill="none" xmlns="http://www.w3.org/2000/svg">
<path d="M16.795 6.78474H1.95634V4.56252C1.95634 4.36606 1.88836 4.17765 1.76737 4.03873C1.64638 3.89982 1.48228 3.82178 1.31118 3.82178C1.14007 3.82178 0.97597 3.89982 0.854979 4.03873C0.733988 4.17765 0.666016 4.36606 0.666016 4.56252V19.3773C0.666016 19.5738 0.733988 19.7622 0.854979 19.9011C0.97597 20.0401 1.14007 20.1181 1.31118 20.1181C1.48228 20.1181 1.64638 20.0401 1.76737 19.9011C1.88836 19.7622 1.95634 19.5738 1.95634 19.3773V16.4144H18.7305V19.3773C18.7305 19.5738 18.7985 19.7622 18.9195 19.9011C19.0405 20.0401 19.2045 20.1181 19.3757 20.1181C19.5468 20.1181 19.7109 20.0401 19.8318 19.9011C19.9529 19.7622 20.0209 19.5738 20.0209 19.3773V10.4884C20.0199 9.50651 19.6797 8.56509 19.075 7.87075C18.4702 7.17642 17.6503 6.78584 16.795 6.78474ZM1.95634 8.26622H7.76279V14.9329H1.95634V8.26622Z" fill="#636363"/>
</svg>
