<svg width="25" height="25" viewBox="0 0 25 25" fill="none" xmlns="http://www.w3.org/2000/svg">
<path d="M13.3418 16.9651L12.9083 17.8663L12.9138 17.8689L13.3418 16.9651ZM14.0824 16.9089L13.5269 16.0773L13.5229 16.0801L14.0824 16.9089ZM16.4262 15.3432L16.9817 16.1748L16.9875 16.1708L16.4262 15.3432ZM17.1387 15.2776L16.738 16.1938L16.7441 16.1965L17.1387 15.2776ZM21.5262 17.162L21.1315 18.0809L21.1419 18.0852L21.5262 17.162ZM21.9762 17.9401L20.9843 17.8127V17.813L21.9762 17.9401ZM17.5137 21.8682V22.8682H17.5139L17.5137 21.8682ZM4.76367 9.1182L3.76367 9.11797V9.1182H4.76367ZM8.69179 4.6557L8.81888 5.64759L8.8192 5.64755L8.69179 4.6557ZM9.46992 5.1057L8.54664 5.48997L8.55077 5.49962L9.46992 5.1057ZM11.3543 9.50257L10.4351 9.8965L10.4371 9.90094L11.3543 9.50257ZM11.298 10.2057L12.1337 10.7551L12.1403 10.7448L11.298 10.2057ZM9.73242 12.587L8.89682 12.0376L8.89289 12.0436L9.73242 12.587ZM9.68554 13.3182L8.78351 13.7499L8.78552 13.754L9.68554 13.3182ZM8.78552 13.754C9.65576 15.5512 11.1089 17.0006 12.9083 17.8663L13.7753 16.064C12.3832 15.3942 11.2589 14.2728 10.5856 12.8824L8.78552 13.754ZM12.9138 17.8689C13.1885 17.999 13.4923 18.0552 13.7953 18.0322L13.6438 16.038C13.6871 16.0347 13.7305 16.0427 13.7698 16.0613L12.9138 17.8689ZM13.7953 18.0322C14.0983 18.0092 14.3901 17.9077 14.642 17.7377L13.5229 16.0801C13.5589 16.0558 13.6005 16.0413 13.6438 16.038L13.7953 18.0322ZM14.6379 17.7404L16.9817 16.1748L15.8707 14.5117L13.527 16.0773L14.6379 17.7404ZM16.9875 16.1708C16.9512 16.1954 16.9093 16.2104 16.8657 16.2145L16.6823 14.2228C16.3895 14.2498 16.1082 14.3505 15.8649 14.5156L16.9875 16.1708ZM16.8657 16.2145C16.8221 16.2185 16.7781 16.2114 16.738 16.1938L17.5394 14.3614C17.27 14.2435 16.9751 14.1959 16.6823 14.2228L16.8657 16.2145ZM16.7441 16.1965L21.1316 18.0808L21.9208 16.2431L17.5333 14.3587L16.7441 16.1965ZM21.1419 18.0852C21.0894 18.0634 21.0456 18.0248 21.0171 17.9756L22.7484 16.9743C22.5573 16.6439 22.2629 16.3854 21.9105 16.2388L21.1419 18.0852ZM21.0171 17.9756C20.9886 17.9264 20.9771 17.8691 20.9843 17.8127L22.968 18.0675C23.0167 17.6889 22.9395 17.3048 22.7484 16.9743L21.0171 17.9756ZM20.9843 17.813C20.8761 18.6572 20.4641 19.4331 19.8253 19.9954L21.1467 21.4966C22.1506 20.613 22.7981 19.3938 22.9681 18.0672L20.9843 17.813ZM19.8253 19.9954C19.1864 20.5577 18.3646 20.868 17.5135 20.8682L17.5139 22.8682C18.8513 22.8679 20.1428 22.3803 21.1467 21.4966L19.8253 19.9954ZM17.5137 20.8682C14.3974 20.8682 11.4087 19.6303 9.20517 17.4267L7.79095 18.841C10.3696 21.4196 13.8669 22.8682 17.5137 22.8682V20.8682ZM9.20517 17.4267C7.00161 15.2232 5.76367 12.2345 5.76367 9.1182H3.76367C3.76367 12.7649 5.21233 16.2623 7.79095 18.841L9.20517 17.4267ZM5.76367 9.11842C5.76386 8.26734 6.07416 7.44548 6.6365 6.80664L5.13526 5.48517C4.25158 6.48906 3.76397 7.78055 3.76367 9.11797L5.76367 9.11842ZM6.6365 6.80664C7.19884 6.1678 7.97469 5.75575 8.81888 5.64759L8.56471 3.66381C7.23814 3.83377 6.01894 4.48128 5.13526 5.48517L6.6365 6.80664ZM8.8192 5.64755C8.76278 5.65479 8.70555 5.64329 8.65631 5.61482L9.65756 3.88349C9.32711 3.69239 8.943 3.61521 8.56439 3.66385L8.8192 5.64755ZM8.65631 5.61482C8.60706 5.58634 8.56855 5.54247 8.54669 5.48995L10.3932 4.72144C10.2465 4.36902 9.988 4.07459 9.65756 3.88349L8.65631 5.61482ZM8.55077 5.49962L10.4352 9.89649L12.2734 9.10865L10.3891 4.71178L8.55077 5.49962ZM10.4371 9.90094C10.4207 9.86333 10.4139 9.82228 10.4172 9.78141L12.4108 9.9409C12.4337 9.6548 12.3859 9.36746 12.2715 9.1042L10.4371 9.90094ZM10.4172 9.78141C10.4204 9.74054 10.4337 9.7011 10.4558 9.66657L12.1403 10.7448C12.295 10.5031 12.3879 10.227 12.4108 9.9409L10.4172 9.78141ZM10.4625 9.65632L8.89684 12.0376L10.568 13.1363L12.1336 10.7551L10.4625 9.65632ZM8.89289 12.0436C8.73025 12.2949 8.6348 12.5838 8.61565 12.8825L10.6116 13.0104C10.6088 13.0531 10.5952 13.0944 10.572 13.1303L8.89289 12.0436ZM8.61565 12.8825C8.5965 13.1812 8.6543 13.4799 8.78352 13.7499L10.5876 12.8865C10.606 12.9251 10.6143 12.9678 10.6116 13.0104L8.61565 12.8825Z" fill="#6E6E6E"/>
</svg>
