<svg width="31" height="31" viewBox="0 0 31 31" fill="none" xmlns="http://www.w3.org/2000/svg">
<path d="M12.5205 30.0591H20.0205V27.5591H12.5205V30.0591ZM20.0205 30.0591C23.2688 30.0591 25.8678 29.4171 27.6231 27.6617C29.3785 25.9064 30.0205 23.3074 30.0205 20.0591H27.5205C27.5205 23.0608 26.9125 24.8368 25.8554 25.894C24.7982 26.9511 23.0222 27.5591 20.0205 27.5591V30.0591ZM30.0205 20.0591V12.5591H27.5205V20.0591H30.0205ZM30.0205 12.5591C30.0205 9.31079 29.3785 6.71181 27.6231 4.95645C25.8678 3.20108 23.2688 2.55908 20.0205 2.55908V5.05908C23.0222 5.05908 24.7982 5.66708 25.8554 6.72421C26.9125 7.78135 27.5205 9.55737 27.5205 12.5591H30.0205ZM20.0205 2.55908H12.5205V5.05908H20.0205V2.55908ZM12.5205 2.55908C9.27222 2.55908 6.67324 3.20108 4.91788 4.95645C3.16251 6.71181 2.52051 9.31079 2.52051 12.5591H5.02051C5.02051 9.55737 5.62851 7.78135 6.68564 6.72421C7.74278 5.66708 9.5188 5.05908 12.5205 5.05908V2.55908ZM2.52051 12.5591V20.0591H5.02051V12.5591H2.52051ZM2.52051 20.0591C2.52051 23.3074 3.16251 25.9064 4.91788 27.6617C6.67324 29.4171 9.27222 30.0591 12.5205 30.0591V27.5591C9.5188 27.5591 7.74278 26.9511 6.68564 25.894C5.62851 24.8368 5.02051 23.0608 5.02051 20.0591H2.52051Z" fill="#FD650B"/>
<path d="M21.2705 11.6216C21.2705 11.9668 20.9907 12.2466 20.6455 12.2466V14.7466C22.3714 14.7466 23.7705 13.3475 23.7705 11.6216H21.2705ZM20.6455 12.2466C20.3003 12.2466 20.0205 11.9668 20.0205 11.6216H17.5205C17.5205 13.3475 18.9196 14.7466 20.6455 14.7466V12.2466ZM20.0205 11.6216C20.0205 11.2764 20.3003 10.9966 20.6455 10.9966V8.49658C18.9196 8.49658 17.5205 9.89569 17.5205 11.6216H20.0205ZM20.6455 10.9966C20.9907 10.9966 21.2705 11.2764 21.2705 11.6216H23.7705C23.7705 9.89569 22.3714 8.49658 20.6455 8.49658V10.9966Z" fill="#FD650B"/>
<path d="M12.5205 11.6216C12.5205 11.9668 12.2407 12.2466 11.8955 12.2466V14.7466C13.6214 14.7466 15.0205 13.3475 15.0205 11.6216H12.5205ZM11.8955 12.2466C11.5503 12.2466 11.2705 11.9668 11.2705 11.6216H8.77051C8.77051 13.3475 10.1696 14.7466 11.8955 14.7466V12.2466ZM11.2705 11.6216C11.2705 11.2764 11.5503 10.9966 11.8955 10.9966V8.49658C10.1696 8.49658 8.77051 9.89569 8.77051 11.6216H11.2705ZM11.8955 10.9966C12.2407 10.9966 12.5205 11.2764 12.5205 11.6216H15.0205C15.0205 9.89569 13.6214 8.49658 11.8955 8.49658V10.9966Z" fill="#FD650B"/>
<path d="M11.7705 19.1841H20.7705V16.6841H11.7705V19.1841ZM20.7705 19.1841C20.7422 19.1841 20.7081 19.1707 20.6835 19.1461C20.6588 19.1214 20.6455 19.0874 20.6455 19.0591H23.1455C23.1455 17.7437 22.0859 16.6841 20.7705 16.6841V19.1841ZM20.6455 19.0591C20.6455 21.4812 18.6926 23.4341 16.2705 23.4341V25.9341C20.0734 25.9341 23.1455 22.8619 23.1455 19.0591H20.6455ZM16.2705 23.4341C13.8484 23.4341 11.8955 21.4812 11.8955 19.0591H9.39551C9.39551 22.8619 12.4676 25.9341 16.2705 25.9341V23.4341ZM11.8955 19.0591C11.8955 19.0874 11.8822 19.1214 11.8575 19.1461C11.8329 19.1707 11.7988 19.1841 11.7705 19.1841V16.6841C10.4552 16.6841 9.39551 17.7437 9.39551 19.0591H11.8955Z" fill="#FD650B"/>
</svg>
