<svg width="21" height="21" viewBox="0 0 21 21" fill="none" xmlns="http://www.w3.org/2000/svg">
<path d="M18.6148 18.7117H14.2068C14.9484 18.0842 15.6478 17.4131 16.3009 16.7023C18.7474 14.0313 20.0407 11.2156 20.0407 8.55933C20.0407 6.58477 19.2143 4.69109 17.7435 3.29487C16.2728 1.89865 14.278 1.11426 12.1981 1.11426C10.1181 1.11426 8.12327 1.89865 6.65251 3.29487C5.18174 4.69109 4.35547 6.58477 4.35547 8.55933C4.35547 11.2156 5.64867 14.0313 8.09521 16.7023C8.74828 17.4131 9.44769 18.0842 10.1893 18.7117H5.7814C5.5923 18.7117 5.41096 18.783 5.27725 18.9099C5.14355 19.0368 5.06843 19.209 5.06843 19.3885C5.06843 19.568 5.14355 19.7401 5.27725 19.8672C5.41096 19.9941 5.5923 20.0654 5.7814 20.0654H18.6148C18.8038 20.0654 18.9851 19.9941 19.1188 19.8672C19.2525 19.7401 19.3277 19.568 19.3277 19.3885C19.3277 19.209 19.2525 19.0368 19.1188 18.9099C18.9851 18.783 18.8038 18.7117 18.6148 18.7117ZM12.1981 5.85203C12.7621 5.85203 13.3135 6.01081 13.7825 6.30829C14.2515 6.60578 14.617 7.02859 14.8328 7.52329C15.0487 8.01798 15.1052 8.56234 14.9951 9.08749C14.8851 9.61266 14.6135 10.0951 14.2146 10.4737C13.8158 10.8523 13.3076 11.1101 12.7544 11.2146C12.2012 11.3191 11.6278 11.2655 11.1067 11.0605C10.5856 10.8556 10.1402 10.5086 9.82684 10.0634C9.51348 9.61821 9.34623 9.09478 9.34623 8.55933C9.34622 8.2038 9.41998 7.85175 9.56331 7.52328C9.70662 7.19482 9.91668 6.89637 10.1815 6.64498C10.4463 6.39357 10.7607 6.19416 11.1067 6.05811C11.4527 5.92205 11.8236 5.85202 12.1981 5.85203Z" fill="#1A1A1A"/>
</svg>
