<svg width="17" height="18" viewBox="0 0 17 18" fill="none" xmlns="http://www.w3.org/2000/svg">
<path d="M16.6383 3.57325L14.4553 5.75585L15.9754 7.27561C16.0681 7.36832 16.1312 7.48644 16.1568 7.61501C16.1824 7.74359 16.1693 7.87686 16.1191 7.99797C16.0689 8.11908 15.9839 8.2226 15.8749 8.29544C15.7659 8.36828 15.6377 8.40715 15.5066 8.40716H11.5287C11.3529 8.40716 11.1843 8.33733 11.0599 8.21302C10.9356 8.08872 10.8658 7.92013 10.8658 7.74434V3.76736C10.8658 3.63626 10.9047 3.50812 10.9775 3.39912C11.0504 3.29012 11.1539 3.20517 11.2751 3.155C11.3962 3.10483 11.5295 3.0917 11.6581 3.11727C11.7867 3.14283 11.9048 3.20595 11.9976 3.29863L13.5177 4.8184L15.7008 2.6358C15.7623 2.57425 15.8354 2.52542 15.9158 2.49211C15.9962 2.4588 16.0824 2.44165 16.1695 2.44165C16.2566 2.44165 16.3429 2.4588 16.4233 2.49211C16.5037 2.52542 16.5768 2.57425 16.6383 2.6358C16.7 2.69736 16.7487 2.77043 16.7821 2.85085C16.8154 2.93128 16.8325 3.01747 16.8325 3.10453C16.8325 3.19157 16.8154 3.27777 16.7821 3.3582C16.7487 3.43862 16.7 3.51169 16.6383 3.57325ZM7.5509 11.0585H3.57306C3.44194 11.0585 3.31377 11.0974 3.20475 11.1702C3.09573 11.2431 3.01075 11.3466 2.96058 11.4677C2.9104 11.5888 2.89726 11.7221 2.92283 11.8507C2.9484 11.9792 3.01153 12.0973 3.10424 12.19L4.62433 13.7098L2.44126 15.8925C2.3797 15.954 2.33086 16.0271 2.29754 16.1075C2.26422 16.1879 2.24707 16.274 2.24707 16.3611C2.24707 16.4481 2.26422 16.5344 2.29754 16.6148C2.33086 16.6952 2.3797 16.7683 2.44126 16.8298C2.5656 16.9542 2.73424 17.024 2.91009 17.024C2.99716 17.024 3.08337 17.0069 3.16381 16.9736C3.24425 16.9402 3.31734 16.8914 3.37891 16.8298L5.56198 14.6473L7.08207 16.167C7.1748 16.2598 7.29294 16.3228 7.42154 16.3484C7.55015 16.374 7.68344 16.3609 7.80458 16.3107C7.92571 16.2605 8.02926 16.1755 8.10212 16.0666C8.17497 15.9576 8.21385 15.8294 8.21386 15.6983V11.7213C8.21386 11.5455 8.14401 11.3769 8.01968 11.2526C7.89535 11.1283 7.72673 11.0585 7.5509 11.0585Z" fill="#636363"/>
</svg>
