<svg width="17" height="17" viewBox="0 0 17 17" fill="none" xmlns="http://www.w3.org/2000/svg">
<path d="M6.80084 2.93747C6.50794 2.64457 6.03307 2.64457 5.74018 2.93747C5.44728 3.23037 5.44728 3.70521 5.74018 3.9981L6.80084 2.93747ZM11.2705 8.46777L11.8008 8.9981C12.0937 8.70521 12.0937 8.23033 11.8008 7.93744L11.2705 8.46777ZM5.74018 12.9374C5.44728 13.2303 5.44728 13.7052 5.74018 13.9981C6.03307 14.291 6.50794 14.291 6.80084 13.9981L5.74018 12.9374ZM5.74018 3.9981L10.7402 8.9981L11.8008 7.93744L6.80084 2.93747L5.74018 3.9981ZM10.7402 7.93744L5.74018 12.9374L6.80084 13.9981L11.8008 8.9981L10.7402 7.93744Z" fill="#1A1A1A"/>
</svg>
