<svg width="25" height="25" viewBox="0 0 25 25" fill="none" xmlns="http://www.w3.org/2000/svg">
<path d="M18.7705 11.933C18.7705 15.73 15.6925 18.808 11.8955 18.808L11.8955 20.808C16.797 20.808 20.7705 16.8345 20.7705 11.933L18.7705 11.933ZM11.8955 18.808C8.09853 18.808 5.02049 15.73 5.0205 11.933L3.0205 11.933C3.02049 16.8345 6.99395 20.808 11.8955 20.808L11.8955 18.808ZM5.0205 11.933C5.0205 8.13603 8.09854 5.05799 11.8955 5.058L11.8955 3.058C6.99398 3.05799 3.0205 7.03145 3.0205 11.933L5.0205 11.933ZM11.8955 5.058C15.6925 5.058 18.7705 8.13605 18.7705 11.933L20.7705 11.933C20.7705 7.03148 16.797 3.058 11.8955 3.058L11.8955 5.058Z" fill="#1A1A1A"/>
<path d="M18.171 16.7946C17.7804 16.4041 17.1473 16.4041 16.7568 16.7946C16.3662 17.1851 16.3662 17.8183 16.7568 18.2088L18.171 16.7946ZM21.3131 22.7651C21.7036 23.1557 22.3367 23.1557 22.7273 22.7651C23.1178 22.3746 23.1178 21.7414 22.7273 21.3509L21.3131 22.7651ZM16.7568 18.2088L21.3131 22.7651L22.7273 21.3509L18.171 16.7946L16.7568 18.2088Z" fill="#1A1A1A"/>
</svg>
