<svg width="25" height="25" viewBox="0 0 25 25" fill="none" xmlns="http://www.w3.org/2000/svg">
<path d="M5.51953 6.36816H20.5195V4.36816H5.51953V6.36816ZM20.5195 6.36816C20.3814 6.36816 20.2695 6.25624 20.2695 6.11816H22.2695C22.2695 5.15167 21.486 4.36816 20.5195 4.36816V6.36816ZM20.2695 6.11816V21.1182H22.2695V6.11816H20.2695ZM20.2695 21.1182C20.2695 20.9801 20.3814 20.8682 20.5195 20.8682V22.8682C21.486 22.8682 22.2695 22.0847 22.2695 21.1182H20.2695ZM20.5195 20.8682H5.51953V22.8682H20.5195V20.8682ZM5.51953 20.8682C5.6576 20.8682 5.76953 20.9801 5.76953 21.1182H3.76953C3.76953 22.0847 4.55303 22.8682 5.51953 22.8682V20.8682ZM5.76953 21.1182V6.11816H3.76953V21.1182H5.76953ZM5.76953 6.11816C5.76953 6.25624 5.6576 6.36816 5.51953 6.36816V4.36816C4.55303 4.36816 3.76953 5.15167 3.76953 6.11816H5.76953Z" fill="#6E6E6E"/>
<path d="M12.0195 17.6182C12.5718 17.6182 13.0195 17.1704 13.0195 16.6182C13.0195 16.0659 12.5718 15.6182 12.0195 15.6182L12.0195 17.6182ZM10.0195 15.6182C9.46725 15.6182 9.01953 16.0659 9.01953 16.6182C9.01953 17.1704 9.46725 17.6182 10.0195 17.6182L10.0195 15.6182ZM12.0195 15.6182L10.0195 15.6182L10.0195 17.6182L12.0195 17.6182L12.0195 15.6182Z" fill="#6E6E6E"/>
<path d="M4.76953 10.8682C4.21725 10.8682 3.76953 11.3159 3.76953 11.8682C3.76953 12.4204 4.21725 12.8682 4.76953 12.8682V10.8682ZM21.2695 12.8682C21.8218 12.8682 22.2695 12.4204 22.2695 11.8682C22.2695 11.3159 21.8218 10.8682 21.2695 10.8682V12.8682ZM4.76953 12.8682H21.2695V10.8682H4.76953V12.8682Z" fill="#6E6E6E"/>
<path d="M18.5195 3.86816C18.5195 3.31588 18.0718 2.86816 17.5195 2.86816C16.9672 2.86816 16.5195 3.31588 16.5195 3.86816H18.5195ZM16.5195 7.86816C16.5195 8.42044 16.9672 8.86816 17.5195 8.86816C18.0718 8.86816 18.5195 8.42044 18.5195 7.86816H16.5195ZM16.5195 3.86816V7.86816H18.5195V3.86816H16.5195Z" fill="#6E6E6E"/>
<path d="M9.51953 3.86816C9.51953 3.31588 9.07182 2.86816 8.51953 2.86816C7.96725 2.86816 7.51953 3.31588 7.51953 3.86816H9.51953ZM7.51953 7.86816C7.51953 8.42044 7.96725 8.86816 8.51953 8.86816C9.07182 8.86816 9.51953 8.42044 9.51953 7.86816H7.51953ZM7.51953 3.86816V7.86816H9.51953V3.86816H7.51953Z" fill="#6E6E6E"/>
</svg>
