<svg width="31" height="31" viewBox="0 0 31 31" fill="none" xmlns="http://www.w3.org/2000/svg">
<path d="M26.2637 16.65C26.2637 22.2281 21.7418 26.75 16.1637 26.75V29.05C23.012 29.05 28.5637 23.4983 28.5637 16.65H26.2637ZM16.1637 26.75C10.5856 26.75 6.06367 22.2281 6.06367 16.65H3.76367C3.76367 23.4983 9.31534 29.05 16.1637 29.05V26.75ZM6.06367 16.65C6.06367 11.0719 10.5856 6.55 16.1637 6.55V4.25C9.31534 4.25 3.76367 9.80167 3.76367 16.65H6.06367ZM16.1637 6.55C21.7418 6.55 26.2637 11.0719 26.2637 16.65H28.5637C28.5637 9.80167 23.012 4.25 16.1637 4.25V6.55Z" fill="#1A1A1A"/>
<path d="M20.7268 13.7132C21.176 13.2641 21.176 12.5359 20.7268 12.0868C20.2777 11.6377 19.5496 11.6377 19.1005 12.0868L20.7268 13.7132ZM11.6005 19.5868C11.1514 20.0359 11.1514 20.7641 11.6005 21.2132C12.0496 21.6623 12.7777 21.6623 13.2268 21.2132L11.6005 19.5868ZM19.1005 12.0868L11.6005 19.5868L13.2268 21.2132L20.7268 13.7132L19.1005 12.0868Z" fill="#1A1A1A"/>
<path d="M19.1005 21.2132C19.5496 21.6623 20.2777 21.6623 20.7268 21.2132C21.176 20.7641 21.176 20.0359 20.7268 19.5868L19.1005 21.2132ZM13.2268 12.0868C12.7777 11.6377 12.0496 11.6377 11.6005 12.0868C11.1514 12.5359 11.1514 13.2641 11.6005 13.7132L13.2268 12.0868ZM20.7268 19.5868L13.2268 12.0868L11.6005 13.7132L19.1005 21.2132L20.7268 19.5868Z" fill="#1A1A1A"/>
</svg>
