<svg width="21" height="21" viewBox="0 0 21 21" fill="none" xmlns="http://www.w3.org/2000/svg">
<path d="M5.64551 19.118C5.64551 19.3157 5.59053 19.5091 5.48751 19.6736C5.3845 19.838 5.23808 19.9662 5.06678 20.0418C4.89547 20.1176 4.70697 20.1374 4.52511 20.0988C4.34326 20.0602 4.17621 19.9649 4.0451 19.8251C3.91399 19.6852 3.8247 19.5071 3.78852 19.3131C3.75235 19.119 3.77092 18.918 3.84187 18.7353C3.91283 18.5525 4.03299 18.3964 4.18716 18.2865C4.34133 18.1766 4.52259 18.118 4.70801 18.118C4.95665 18.118 5.19511 18.2234 5.37092 18.4109C5.54674 18.5984 5.64551 18.8528 5.64551 19.118ZM6.89551 15.7847C6.71009 15.7847 6.52883 15.8433 6.37466 15.9532C6.22049 16.0631 6.10033 16.2192 6.02937 16.4019C5.95842 16.5847 5.93985 16.7857 5.97602 16.9797C6.0122 17.1738 6.10149 17.3519 6.2326 17.4917C6.36371 17.6316 6.53076 17.7268 6.71261 17.7654C6.89447 17.8041 7.08297 17.7842 7.25428 17.7085C7.42558 17.6329 7.572 17.5046 7.67501 17.3403C7.77803 17.1758 7.83301 16.9824 7.83301 16.7846C7.83301 16.5195 7.73424 16.2651 7.55842 16.0776C7.38261 15.89 7.14415 15.7847 6.89551 15.7847V15.7847ZM2.20801 15.4513C2.02259 15.4513 1.84133 15.51 1.68716 15.6199C1.53299 15.7297 1.41283 15.8859 1.34187 16.0686C1.27091 16.2513 1.25235 16.4524 1.28852 16.6464C1.3247 16.8404 1.41398 17.0186 1.5451 17.1584C1.67621 17.2982 1.84325 17.3935 2.02511 17.4321C2.20697 17.4707 2.39547 17.4509 2.56678 17.3752C2.73808 17.2995 2.8845 17.1713 2.98751 17.0069C3.09053 16.8425 3.14551 16.6491 3.14551 16.4513C3.14551 16.1861 3.04674 15.9317 2.87092 15.7442C2.69511 15.5567 2.45665 15.4513 2.20801 15.4513ZM5.33301 14.118C5.33301 13.9202 5.27803 13.7268 5.17501 13.5625C5.072 13.398 4.92558 13.2698 4.75428 13.1941C4.58297 13.1184 4.39447 13.0986 4.21261 13.1372C4.03076 13.1758 3.86371 13.271 3.7326 13.4109C3.60149 13.5507 3.5122 13.729 3.47602 13.9229C3.43985 14.1169 3.45842 14.318 3.52937 14.5007C3.60033 14.6834 3.72049 14.8396 3.87466 14.9495C4.02883 15.0593 4.21009 15.118 4.39551 15.118C4.64415 15.118 4.88261 15.0126 5.05842 14.8251C5.23424 14.6376 5.33301 14.3832 5.33301 14.118V14.118ZM19.3955 2.78467H17.1544C16.9901 2.78419 16.8275 2.81846 16.6758 2.8855C16.524 2.95254 16.3863 3.05101 16.2705 3.17522L14.0952 5.49552L4.24071 7.24744C4.01417 7.28772 3.80241 7.39379 3.62867 7.55403C3.45494 7.71426 3.32595 7.92244 3.25586 8.15574C3.18577 8.38903 3.1773 8.63842 3.23136 8.87651C3.28543 9.11461 3.39994 9.33222 3.56234 9.50545L11.2198 17.6733C11.3822 17.8465 11.5862 17.9688 11.8094 18.0265C12.0326 18.0841 12.2664 18.0751 12.4851 18.0003C12.7038 17.9256 12.899 17.788 13.0492 17.6027C13.1995 17.4173 13.2989 17.1915 13.3367 16.9498L14.9791 6.43836V6.43832L17.1544 4.118H19.3955C19.5613 4.118 19.7202 4.04777 19.8374 3.92275C19.9547 3.79772 20.0205 3.62815 20.0205 3.45134C20.0205 3.27453 19.9547 3.10496 19.8374 2.97993C19.7202 2.85491 19.5613 2.78467 19.3955 2.78467V2.78467Z" fill="#636363"/>
</svg>
