<svg width="25" height="25" viewBox="0 0 25 25" fill="none" xmlns="http://www.w3.org/2000/svg">
<path d="M12.4261 17.9963L17.1511 20.9963C17.7605 21.3807 18.5105 20.8088 18.3324 20.1057L16.9636 14.7244C16.9266 14.5753 16.9325 14.4187 16.9806 14.2727C17.0287 14.1268 17.1171 13.9974 17.2355 13.8994L21.473 10.3651C22.0261 9.90568 21.7449 8.97756 21.023 8.93068L15.4918 8.57443C15.3408 8.56565 15.1957 8.5131 15.0742 8.42319C14.9527 8.33329 14.8599 8.20993 14.8074 8.06818L12.7449 2.87444C12.6903 2.72435 12.5908 2.59469 12.46 2.50307C12.3292 2.41145 12.1734 2.3623 12.0137 2.3623C11.854 2.3623 11.6981 2.41145 11.5673 2.50307C11.4365 2.59469 11.337 2.72435 11.2824 2.87444L9.21992 8.06818C9.16735 8.20993 9.07464 8.33329 8.9531 8.42319C8.83156 8.5131 8.68647 8.56565 8.53554 8.57443L3.00429 8.93068C2.28242 8.97756 2.00117 9.90568 2.55429 10.3651L6.79179 13.8994C6.91023 13.9974 6.99859 14.1268 7.04669 14.2727C7.0948 14.4187 7.10068 14.5753 7.06367 14.7244L5.79804 19.7119C5.58242 20.5557 6.48242 21.2401 7.20429 20.7807L11.6012 17.9963C11.7245 17.9179 11.8676 17.8763 12.0137 17.8763C12.1598 17.8763 12.3028 17.9179 12.4261 17.9963Z" fill="#1A1A1A"/>
<path d="M12.4261 17.9963L17.1511 20.9963C17.7605 21.3807 18.5105 20.8088 18.3324 20.1057L16.9636 14.7244C16.9266 14.5753 16.9325 14.4187 16.9806 14.2727C17.0287 14.1268 17.1171 13.9974 17.2355 13.8994L21.473 10.3651C22.0261 9.90568 21.7449 8.97756 21.023 8.93068L15.4918 8.57443C15.3408 8.56565 15.1957 8.5131 15.0742 8.42319C14.9527 8.33329 14.8599 8.20993 14.8074 8.06818L12.7449 2.87444C12.6903 2.72435 12.5908 2.59469 12.46 2.50307C12.3292 2.41145 12.1734 2.3623 12.0137 2.3623C11.854 2.3623 11.6981 2.41145 11.5673 2.50307C11.4365 2.59469 11.337 2.72435 11.2824 2.87444L9.21992 8.06818C9.16735 8.20993 9.07464 8.33329 8.9531 8.42319C8.83156 8.5131 8.68647 8.56565 8.53554 8.57443L3.00429 8.93068C2.28242 8.97756 2.00117 9.90568 2.55429 10.3651L6.79179 13.8994C6.91023 13.9974 6.99859 14.1268 7.04669 14.2727C7.0948 14.4187 7.10068 14.5753 7.06367 14.7244L5.79804 19.7119C5.58242 20.5557 6.48242 21.2401 7.20429 20.7807L11.6012 17.9963C11.7245 17.9179 11.8676 17.8763 12.0137 17.8763C12.1598 17.8763 12.3028 17.9179 12.4261 17.9963ZM12.4261 17.9963V17.9963Z" stroke="#1A1A1A" stroke-width="1.5" stroke-linecap="round" stroke-linejoin="round"/>
</svg>
