<svg width="25" height="25" viewBox="0 0 25 25" fill="none" xmlns="http://www.w3.org/2000/svg">
<path d="M22.3204 12.752C22.8085 12.2639 22.8085 11.4724 22.3204 10.9843C21.8322 10.4961 21.0408 10.4961 20.5526 10.9843L22.3204 12.752ZM13.9365 19.3682L13.0526 20.252C13.5408 20.7402 14.3323 20.7402 14.8204 20.252L13.9365 19.3682ZM7.32041 10.9843C6.83225 10.4961 6.0408 10.4961 5.55264 10.9843C5.06448 11.4724 5.06448 12.2639 5.55264 12.752L7.32041 10.9843ZM20.5526 10.9843L13.0526 18.4843L14.8204 20.252L22.3204 12.752L20.5526 10.9843ZM14.8204 18.4843L7.32041 10.9843L5.55264 12.752L13.0526 20.252L14.8204 18.4843Z" fill="#6E6E6E"/>
</svg>
