<svg width="25" height="25" viewBox="0 0 25 25" fill="none" xmlns="http://www.w3.org/2000/svg">
<path d="M22.2426 22.9239H16.747C17.6716 22.1385 18.5437 21.2986 19.3579 20.4092C22.4081 17.0663 24.0204 13.5423 24.0204 10.218C24.0204 7.74684 22.9902 5.37686 21.1565 3.62947C19.3229 1.88207 16.8358 0.900391 14.2426 0.900391C11.6494 0.900391 9.16237 1.88207 7.32869 3.62947C5.495 5.37686 4.46484 7.74684 4.46484 10.218C4.46484 13.5423 6.07715 17.0663 9.12739 20.4092C9.94161 21.2986 10.8136 22.1385 11.7382 22.9239H6.24262C6.00688 22.9239 5.78078 23.0131 5.61408 23.1721C5.44738 23.3308 5.35373 23.5463 5.35373 23.771C5.35373 23.9956 5.44738 24.2111 5.61408 24.3699C5.78078 24.5288 6.00688 24.618 6.24262 24.618H22.2426C22.4784 24.618 22.7045 24.5288 22.8711 24.3699C23.0379 24.2111 23.1315 23.9956 23.1315 23.771C23.1315 23.5463 23.0379 23.3308 22.8711 23.1721C22.7045 23.0131 22.4784 22.9239 22.2426 22.9239ZM14.2426 6.8298C14.9459 6.8298 15.6333 7.02852 16.218 7.40082C16.8027 7.77313 17.2584 8.3023 17.5276 8.92142C17.7966 9.54054 17.867 10.2218 17.7299 10.879C17.5927 11.5363 17.2541 12.14 16.7568 12.6139C16.2596 13.0878 15.626 13.4104 14.9363 13.5412C14.2466 13.6719 13.5317 13.6048 12.882 13.3483C12.2323 13.0919 11.677 12.6577 11.2863 12.1004C10.8956 11.5432 10.6871 10.8882 10.6871 10.218C10.6871 9.77308 10.779 9.33249 10.9577 8.92141C11.1364 8.51033 11.3983 8.13681 11.7285 7.82218C12.0586 7.50756 12.4506 7.25799 12.882 7.0877C13.3134 6.91743 13.7757 6.8298 14.2426 6.8298V6.8298Z" fill="#1A1A1A"/>
</svg>
