<svg width="21" height="21" viewBox="0 0 21 21" fill="none" xmlns="http://www.w3.org/2000/svg">
<path d="M11.043 14.1573L10.7178 14.8332L10.722 14.8352L11.043 14.1573ZM11.6602 14.1105L11.2436 13.4868L11.2405 13.4889L11.6602 14.1105ZM13.6133 12.8058L14.0299 13.4295L14.0342 13.4265L13.6133 12.8058ZM14.207 12.7511L13.9065 13.4383L13.911 13.4403L14.207 12.7511ZM17.8633 14.3214L17.5673 15.0106L17.5751 15.0138L17.8633 14.3214ZM18.2383 14.9698L17.4944 14.8743L17.4943 14.8745L18.2383 14.9698ZM14.5195 18.2433V18.9933H14.5197L14.5195 18.2433ZM3.89453 7.61831L3.14453 7.61814V7.61831H3.89453ZM7.16797 3.89956L7.26328 4.64348L7.26352 4.64345L7.16797 3.89956ZM7.8164 4.27456L7.12395 4.56277L7.12705 4.57L7.8164 4.27456ZM9.38672 7.93862L8.69735 8.23407L8.6988 8.2374L9.38672 7.93862ZM9.33984 8.52456L9.96657 8.93662L9.97151 8.92891L9.33984 8.52456ZM8.03515 10.5089L7.40846 10.0969L7.40551 10.1015L8.03515 10.5089ZM7.99609 11.1183L7.31957 11.4421L7.32107 11.4452L7.99609 11.1183ZM7.32107 11.4452C8.03807 12.9258 9.23534 14.12 10.7178 14.8332L11.3681 13.4815C10.191 12.9153 9.2404 11.9671 8.67111 10.7914L7.32107 11.4452ZM10.722 14.8352C10.9378 14.9374 11.1765 14.9816 11.4146 14.9635L11.301 13.4679C11.3226 13.4662 11.3443 13.4702 11.3639 13.4795L10.722 14.8352ZM11.4146 14.9635C11.6527 14.9454 11.8819 14.8657 12.0798 14.7321L11.2405 13.4889C11.2585 13.4768 11.2793 13.4695 11.301 13.4679L11.4146 14.9635ZM12.0768 14.7341L14.0299 13.4295L13.1967 12.1822L11.2436 13.4869L12.0768 14.7341ZM14.0342 13.4265C14.0157 13.4391 13.9942 13.4468 13.9719 13.4489L13.8343 11.9552C13.6043 11.9764 13.3835 12.0555 13.1923 12.1851L14.0342 13.4265ZM13.9719 13.4489C13.9495 13.4509 13.927 13.4473 13.9065 13.4383L14.5075 12.064C14.2959 11.9714 14.0643 11.934 13.8343 11.9552L13.9719 13.4489ZM13.911 13.4403L17.5673 15.0105L18.1592 13.6323L14.503 12.062L13.911 13.4403ZM17.5751 15.0138C17.5482 15.0026 17.5257 14.9829 17.5111 14.9577L18.8096 14.2068C18.6595 13.9472 18.4283 13.7442 18.1514 13.629L17.5751 15.0138ZM17.5111 14.9577C17.4965 14.9325 17.4907 14.9032 17.4944 14.8743L18.9821 15.0654C19.0203 14.768 18.9597 14.4663 18.8096 14.2068L17.5111 14.9577ZM17.4943 14.8745C17.4016 15.5981 17.0484 16.2631 16.5009 16.7451L17.492 17.8711C18.3133 17.1481 18.8431 16.1505 18.9822 15.0652L17.4943 14.8745ZM16.5009 16.7451C15.9533 17.2271 15.2488 17.4931 14.5193 17.4933L14.5197 18.9933C15.6139 18.993 16.6706 18.5941 17.492 17.8711L16.5009 16.7451ZM14.5195 17.4933C11.9005 17.4933 9.38877 16.4529 7.53685 14.601L6.47619 15.6616C8.60942 17.7948 11.5027 18.9933 14.5195 18.9933V17.4933ZM7.53685 14.601C5.68493 12.7491 4.64453 10.2373 4.64453 7.61831H3.14453C3.14453 10.6352 4.34297 13.5284 6.47619 15.6616L7.53685 14.601ZM4.64453 7.61848C4.6447 6.88898 4.91066 6.18453 5.39267 5.63695L4.26674 4.64585C3.54373 5.46722 3.14478 6.52389 3.14453 7.61814L4.64453 7.61848ZM5.39267 5.63695C5.87468 5.08937 6.53969 4.73619 7.26328 4.64348L7.07266 3.15564C5.98727 3.29471 4.98975 3.82448 4.26674 4.64585L5.39267 5.63695ZM7.26352 4.64345C7.23463 4.64716 7.20533 4.64127 7.18011 4.62669L7.93105 3.3282C7.6715 3.17809 7.3698 3.11747 7.07241 3.15568L7.26352 4.64345ZM7.18011 4.62669C7.1549 4.61211 7.13518 4.58964 7.12398 4.56275L8.50883 3.98637C8.39361 3.70956 8.1906 3.4783 7.93105 3.3282L7.18011 4.62669ZM7.12705 4.57L8.69736 8.23406L10.0761 7.64318L8.50576 3.97912L7.12705 4.57ZM8.6988 8.2374C8.69063 8.2186 8.68722 8.19807 8.68885 8.17764L10.1841 8.29726C10.2021 8.07246 10.1645 7.84669 10.0746 7.63984L8.6988 8.2374ZM8.68885 8.17764C8.69049 8.1572 8.69712 8.13748 8.70817 8.12022L9.97151 8.92891C10.0931 8.73897 10.1661 8.52205 10.1841 8.29726L8.68885 8.17764ZM8.71316 8.11253L7.40847 10.0969L8.66184 10.921L9.96652 8.93659L8.71316 8.11253ZM7.40551 10.1015C7.27772 10.2989 7.20272 10.5258 7.18768 10.7606L8.6846 10.8565C8.68324 10.8778 8.67642 10.8985 8.6648 10.9164L7.40551 10.1015ZM7.18768 10.7606C7.17263 10.9953 7.21804 11.2299 7.31957 11.4421L8.67261 10.7946C8.68184 10.8138 8.68597 10.8352 8.6846 10.8565L7.18768 10.7606Z" fill="#6E6E6E"/>
</svg>
