<svg width="21" height="20" viewBox="0 0 21 20" fill="none" xmlns="http://www.w3.org/2000/svg">
<path d="M11.0195 11.0001C10.4672 11.0001 10.0195 11.4478 10.0195 12.0001C10.0195 12.5524 10.4672 13.0001 11.0195 13.0001V11.0001ZM17.8945 12.0001L18.8945 11.9991C18.8939 11.4472 18.4464 11.0001 17.8945 11.0001V12.0001ZM15.1717 7.84781C15.5622 8.23836 16.1954 8.2384 16.586 7.8479C16.9765 7.4574 16.9765 6.82424 16.586 6.43369L15.1717 7.84781ZM11.0195 13.0001H17.8945V11.0001H11.0195V13.0001ZM16.8945 12.0012C16.896 13.3625 16.4252 14.6821 15.5626 15.7352L17.1098 17.0026C18.2657 15.5915 18.8964 13.8232 18.8945 11.9991L16.8945 12.0012ZM15.5626 15.7352C14.6999 16.7883 13.4988 17.5096 12.1638 17.7762L12.5555 19.7375C14.3443 19.3802 15.9538 18.4137 17.1098 17.0026L15.5626 15.7352ZM12.1638 17.7762C10.8289 18.0428 9.44283 17.8382 8.24186 17.1973L7.30018 18.9617C8.90944 19.8205 10.7668 20.0947 12.5555 19.7375L12.1638 17.7762ZM8.24186 17.1973C7.0409 16.5563 6.09939 15.5187 5.57782 14.2613L3.73044 15.0275C4.42932 16.7124 5.69092 18.1028 7.30018 18.9617L8.24186 17.1973ZM5.57782 14.2613C5.05625 13.0039 4.98691 11.6045 5.38162 10.3016L3.46753 9.72175C2.93864 11.4675 3.03156 13.3426 3.73044 15.0275L5.57782 14.2613ZM5.38162 10.3016C5.77632 8.99881 6.61064 7.8732 7.74235 7.11666L6.63086 5.45396C5.11438 6.4677 3.99642 7.976 3.46753 9.72175L5.38162 10.3016ZM7.74235 7.11666C8.87407 6.36012 10.2331 6.01948 11.5879 6.1528L11.7838 4.16242C9.96844 3.98377 8.14733 4.44021 6.63086 5.45396L7.74235 7.11666ZM11.5879 6.1528C12.9426 6.28613 14.2092 6.88517 15.1717 7.84781L16.586 6.43369C15.2963 5.14377 13.5991 4.34107 11.7838 4.16242L11.5879 6.1528Z" fill="#1A1A1A"/>
</svg>
