<svg width="17" height="17" viewBox="0 0 17 17" fill="none" xmlns="http://www.w3.org/2000/svg">
<path d="M13.8008 5.39849C14.0937 5.1056 14.0937 4.63073 13.8008 4.33783C13.5079 4.04494 13.0331 4.04494 12.7402 4.33783L13.8008 5.39849ZM3.74018 13.3378C3.44728 13.6307 3.44728 14.1056 3.74018 14.3985C4.03307 14.6914 4.50794 14.6914 4.80084 14.3985L3.74018 13.3378ZM12.7402 4.33783L3.74018 13.3378L4.80084 14.3985L13.8008 5.39849L12.7402 4.33783Z" fill="#1A1A1A"/>
<path d="M12.7402 14.3985C13.0331 14.6914 13.5079 14.6914 13.8008 14.3985C14.0937 14.1056 14.0937 13.6307 13.8008 13.3378L12.7402 14.3985ZM4.80084 4.33783C4.50794 4.04494 4.03307 4.04494 3.74018 4.33783C3.44728 4.63073 3.44728 5.1056 3.74018 5.39849L4.80084 4.33783ZM13.8008 13.3378L4.80084 4.33783L3.74018 5.39849L12.7402 14.3985L13.8008 13.3378Z" fill="#1A1A1A"/>
</svg>
