<svg width="25" height="25" viewBox="0 0 25 25" fill="none" xmlns="http://www.w3.org/2000/svg">
<path d="M19.1035 11.9932C19.1035 15.7902 16.0255 18.8682 12.2285 18.8682V20.8682C17.13 20.8682 21.1035 16.8947 21.1035 11.9932H19.1035ZM12.2285 18.8682C8.43156 18.8682 5.35352 15.7902 5.35352 11.9932H3.35352C3.35352 16.8947 7.32699 20.8682 12.2285 20.8682V18.8682ZM5.35352 11.9932C5.35352 8.1962 8.43156 5.11816 12.2285 5.11816V3.11816C7.32699 3.11816 3.35352 7.09163 3.35352 11.9932H5.35352ZM12.2285 5.11816C16.0255 5.11816 19.1035 8.1962 19.1035 11.9932H21.1035C21.1035 7.09163 17.13 3.11816 12.2285 3.11816V5.11816Z" fill="#6E6E6E"/>
<path d="M18.504 16.8549C18.1135 16.4644 17.4803 16.4644 17.0898 16.8549C16.6992 17.2454 16.6992 17.8786 17.0898 18.2691L18.504 16.8549ZM21.6461 22.8254C22.0366 23.216 22.6698 23.216 23.0603 22.8254C23.4508 22.4349 23.4508 21.8017 23.0603 21.4112L21.6461 22.8254ZM17.0898 18.2691L21.6461 22.8254L23.0603 21.4112L18.504 16.8549L17.0898 18.2691Z" fill="#6E6E6E"/>
</svg>
