<svg width="91" height="121" viewBox="0 0 91 121" fill="none" xmlns="http://www.w3.org/2000/svg">
<g filter="url(#filter0_d_105_4851)">
<ellipse cx="59.8951" cy="59.2687" rx="0.125611" ry="0.849504" fill="white"/>
</g>
<path d="M0.126442 0.663442C0.126834 0.647497 0.125143 0.632525 0.122665 0.630002C0.120188 0.627479 0.117862 0.63836 0.117469 0.654305L0.126442 0.663442ZM0.0966061 0.788576C0.0941285 0.791099 0.0924379 0.80607 0.0928299 0.822015C0.093222 0.83796 0.0955482 0.848841 0.0980258 0.846318L0.0966061 0.788576ZM0.117469 0.654305C0.116641 0.687998 0.114176 0.719138 0.110428 0.743259L0.116851 0.784597C0.121956 0.751744 0.125313 0.709332 0.126442 0.663442L0.117469 0.654305ZM0.110428 0.743259C0.10668 0.767381 0.101841 0.783244 0.0966061 0.788576L0.0980258 0.846318C0.105156 0.839056 0.111746 0.81745 0.116851 0.784597L0.110428 0.743259Z" fill="#FD650B"/>
<path d="M0.0686077 0.401002L0.0723802 0.364493C0.0708748 0.35805 0.0690333 0.355722 0.0672611 0.358022C0.0654889 0.360322 0.0639314 0.36706 0.0629316 0.376754L0.0686077 0.401002ZM0.0527112 0.673573H0.0458984H0.0527112ZM0.14809 0.673573H0.154903H0.14809ZM0.111074 0.231102L0.115883 0.200045C0.114317 0.19 0.112091 0.185472 0.109912 0.187899C0.107733 0.190326 0.105873 0.199407 0.104923 0.212255L0.111074 0.231102ZM0.091317 0.498192L0.0875444 0.534701C0.0891896 0.541742 0.0912287 0.543841 0.0931329 0.54045C0.0950372 0.537063 0.096619 0.528519 0.0974683 0.517039L0.091317 0.498192ZM0.0629316 0.376754C0.0539793 0.463551 0.0458984 0.569727 0.0458984 0.673573H0.059524C0.059524 0.596192 0.06575 0.507989 0.0742838 0.42525L0.0629316 0.376754ZM0.0458984 0.673573C0.0458984 0.766601 0.0516406 0.855818 0.0618618 0.9216L0.0714965 0.859594C0.0638306 0.810257 0.059524 0.743346 0.059524 0.673573H0.0458984ZM0.0618618 0.9216C0.0720829 0.98738 0.0859458 1.02434 0.100401 1.02434V0.936645C0.0895595 0.936645 0.0791624 0.908929 0.0714965 0.859594L0.0618618 0.9216ZM0.100401 1.02434C0.114856 1.02434 0.128718 0.98738 0.13894 0.9216L0.129305 0.859594C0.121639 0.908929 0.111242 0.936645 0.100401 0.936645V1.02434ZM0.13894 0.9216C0.149161 0.855818 0.154903 0.766601 0.154903 0.673573H0.141277C0.141277 0.743346 0.136971 0.810257 0.129305 0.859594L0.13894 0.9216ZM0.154903 0.673573C0.154903 0.46351 0.132349 0.305652 0.115883 0.200045L0.106265 0.262158C0.122955 0.369201 0.141277 0.503645 0.141277 0.673573H0.154903ZM0.104923 0.212255L0.0851657 0.479346L0.0974683 0.517039L0.117225 0.249948L0.104923 0.212255ZM0.0950895 0.461683L0.0723802 0.364493L0.0648352 0.437512L0.0875444 0.534701L0.0950895 0.461683Z" fill="#FD650B"/>
<defs>
<filter id="filter0_d_105_4851" x="29.7695" y="58.4192" width="60.251" height="61.699" filterUnits="userSpaceOnUse" color-interpolation-filters="sRGB">
<feFlood flood-opacity="0" result="BackgroundImageFix"/>
<feColorMatrix in="SourceAlpha" type="matrix" values="0 0 0 0 0 0 0 0 0 0 0 0 0 0 0 0 0 0 127 0" result="hardAlpha"/>
<feOffset dy="30"/>
<feGaussianBlur stdDeviation="15"/>
<feComposite in2="hardAlpha" operator="out"/>
<feColorMatrix type="matrix" values="0 0 0 0 0.571389 0 0 0 0 0.682951 0 0 0 0 0.733333 0 0 0 0.2 0"/>
<feBlend mode="normal" in2="BackgroundImageFix" result="effect1_dropShadow_105_4851"/>
<feBlend mode="normal" in="SourceGraphic" in2="effect1_dropShadow_105_4851" result="shape"/>
</filter>
</defs>
</svg>
