<svg width="121" height="121" viewBox="0 0 121 121" fill="none" xmlns="http://www.w3.org/2000/svg">
<g filter="url(#filter0_d_105_4826)">
<circle cx="60.0205" cy="30.1182" r="30" fill="white"/>
</g>
<path d="M60.0179 16.7847C57.3809 16.7847 54.803 17.5667 52.6103 19.0317C50.4176 20.4968 48.7087 22.5792 47.6995 25.0156C46.6903 27.4519 46.4263 30.1328 46.9408 32.7192C47.4552 35.3057 48.7251 37.6814 50.5898 39.5461C52.4545 41.4108 54.8303 42.6807 57.4167 43.1952C60.0031 43.7096 62.684 43.4456 65.1204 42.4364C67.5567 41.4273 69.6391 39.7183 71.1042 37.5256C72.5693 35.333 73.3513 32.7551 73.3513 30.118C73.3513 28.3671 73.0064 26.6332 72.3363 25.0156C71.6663 23.3979 70.6841 21.928 69.446 20.6899C68.2079 19.4518 66.7381 18.4697 65.1204 17.7996C63.5027 17.1295 61.7689 16.7847 60.0179 16.7847V16.7847ZM60.0179 40.7847C57.9083 40.7847 55.846 40.1591 54.0918 38.987C52.3377 37.815 50.9705 36.1491 50.1632 34.2C49.3559 32.2509 49.1446 30.1062 49.5562 28.0371C49.9678 25.9679 50.9837 24.0673 52.4754 22.5755C53.9672 21.0838 55.8678 20.0679 57.937 19.6563C60.0061 19.2447 62.1508 19.4559 64.0999 20.2633C66.049 21.0706 67.7149 22.4378 68.8869 24.1919C70.059 25.946 70.6846 28.0084 70.6846 30.118C70.6846 32.947 69.5608 35.6601 67.5604 37.6605C65.56 39.6609 62.8469 40.7847 60.0179 40.7847V40.7847Z" fill="#FD650B"/>
<path d="M60.0179 28.7848C57.3512 28.7848 57.3512 27.9448 57.3512 27.4515C57.3512 26.9582 58.2846 26.1182 60.0179 26.1182C61.7512 26.1182 61.8712 26.9715 61.8846 27.4515H64.5512C64.5332 26.5432 64.2065 25.668 63.6249 24.9701C63.0433 24.2722 62.2414 23.793 61.3512 23.6115V22.1182H58.6846V23.5715C56.0179 24.0115 54.6846 25.7315 54.6846 27.4515C54.6846 28.9448 55.3779 31.4515 60.0179 31.4515C62.6846 31.4515 62.6846 32.3582 62.6846 32.7849C62.6846 33.2115 61.8579 34.1182 60.0179 34.1182C57.5646 34.1182 57.3512 32.9715 57.3512 32.7849H54.6846C54.6846 34.0115 55.5646 36.1849 58.6846 36.6782V38.1182H61.3512V36.6782C64.0179 36.2249 65.3513 34.5049 65.3513 32.7849C65.3513 31.2915 64.6579 28.7848 60.0179 28.7848V28.7848Z" fill="#FD650B"/>
<defs>
<filter id="filter0_d_105_4826" x="0.0205078" y="0.118164" width="120" height="120" filterUnits="userSpaceOnUse" color-interpolation-filters="sRGB">
<feFlood flood-opacity="0" result="BackgroundImageFix"/>
<feColorMatrix in="SourceAlpha" type="matrix" values="0 0 0 0 0 0 0 0 0 0 0 0 0 0 0 0 0 0 127 0" result="hardAlpha"/>
<feOffset dy="30"/>
<feGaussianBlur stdDeviation="15"/>
<feComposite in2="hardAlpha" operator="out"/>
<feColorMatrix type="matrix" values="0 0 0 0 0.571389 0 0 0 0 0.682951 0 0 0 0 0.733333 0 0 0 0.2 0"/>
<feBlend mode="normal" in2="BackgroundImageFix" result="effect1_dropShadow_105_4826"/>
<feBlend mode="normal" in="SourceGraphic" in2="effect1_dropShadow_105_4826" result="shape"/>
</filter>
</defs>
</svg>
