<svg width="17" height="17" viewBox="0 0 17 17" fill="none" xmlns="http://www.w3.org/2000/svg">
<path d="M14.294 8.9981C14.5869 8.70521 14.5869 8.23034 14.294 7.93744C14.0011 7.64455 13.5262 7.64455 13.2333 7.93744L14.294 8.9981ZM8.76367 13.4678L8.23334 13.9981C8.52623 14.291 9.00111 14.291 9.294 13.9981L8.76367 13.4678ZM4.294 7.93744C4.00111 7.64455 3.52623 7.64455 3.23334 7.93744C2.94045 8.23034 2.94045 8.70521 3.23334 8.9981L4.294 7.93744ZM13.2333 7.93744L8.23334 12.9374L9.294 13.9981L14.294 8.9981L13.2333 7.93744ZM9.294 12.9374L4.294 7.93744L3.23334 8.9981L8.23334 13.9981L9.294 12.9374Z" fill="#1A1A1A"/>
</svg>
