<svg width="21" height="21" viewBox="0 0 21 21" fill="none" xmlns="http://www.w3.org/2000/svg">
<path d="M4.53867 10.1182C3.76547 10.1182 3.13867 10.745 3.13867 11.5182C3.13867 12.2914 3.76547 12.9182 4.53867 12.9182V10.1182ZM18.2887 12.9182C19.0619 12.9182 19.6887 12.2914 19.6887 11.5182C19.6887 10.745 19.0619 10.1182 18.2887 10.1182V12.9182ZM4.53867 12.9182H18.2887V10.1182H4.53867V12.9182Z" fill="white"/>
<path d="M12.8137 4.64316C12.8137 3.86997 12.1869 3.24316 11.4137 3.24316C10.6405 3.24316 10.0137 3.86997 10.0137 4.64316H12.8137ZM10.0137 18.3932C10.0137 19.1664 10.6405 19.7932 11.4137 19.7932C12.1869 19.7932 12.8137 19.1664 12.8137 18.3932H10.0137ZM10.0137 4.64316V18.3932H12.8137V4.64316H10.0137Z" fill="white"/>
</svg>
