<svg width="21" height="21" viewBox="0 0 21 21" fill="none" xmlns="http://www.w3.org/2000/svg">
<path d="M10.9874 2.14833C10.4992 1.66023 9.70779 1.66023 9.21963 2.14833C8.73148 2.63653 8.73148 3.42793 9.21963 3.91613L10.9874 2.14833ZM16.3535 9.28223L17.2374 10.1661C17.7256 9.67796 17.7256 8.8865 17.2374 8.39835L16.3535 9.28223ZM9.21963 14.6483C8.73148 15.1365 8.73148 15.928 9.21963 16.4161C9.70779 16.9043 10.4992 16.9043 10.9874 16.4161L9.21963 14.6483ZM9.21963 3.91613L15.4696 10.1661L17.2374 8.39835L10.9874 2.14833L9.21963 3.91613ZM15.4696 8.39835L9.21963 14.6483L10.9874 16.4161L17.2374 10.1661L15.4696 8.39835Z" fill="#1A1A1A"/>
</svg>
