<svg width="31" height="31" viewBox="0 0 31 31" fill="none" xmlns="http://www.w3.org/2000/svg">
<path d="M2.52051 15.6841C2.52051 16.3745 3.08015 16.9341 3.77051 16.9341C4.46086 16.9341 5.02051 16.3745 5.02051 15.6841H2.52051ZM15.6455 5.05908C16.3359 5.05908 16.8955 4.49944 16.8955 3.80908C16.8955 3.11873 16.3359 2.55908 15.6455 2.55908V5.05908ZM5.02051 15.6841C5.02051 9.81194 9.77337 5.05908 15.6455 5.05908V2.55908C8.39265 2.55908 2.52051 8.43122 2.52051 15.6841H5.02051Z" fill="#FD650B"/>
<path d="M28.7692 15.6841C28.7692 14.9937 28.2096 14.4341 27.5192 14.4341C26.8288 14.4341 26.2692 14.9937 26.2692 15.6841H28.7692ZM6.10329 20.3697C5.7985 19.7503 5.04927 19.4952 4.42984 19.8C3.81041 20.1048 3.55535 20.854 3.86015 21.4735L6.10329 20.3697ZM26.2692 15.6841C26.2692 21.5562 21.5163 26.3091 15.6442 26.3091V28.8091C22.8971 28.8091 28.7692 22.9369 28.7692 15.6841H26.2692ZM15.6442 26.3091C11.4626 26.3091 7.83813 23.8953 6.10329 20.3697L3.86015 21.4735C6.00031 25.8228 10.4758 28.8091 15.6442 28.8091V26.3091Z" fill="#FD650B"/>
<path d="M18.7705 6.30908C18.0802 6.30908 17.5205 6.86873 17.5205 7.55908C17.5205 8.24944 18.0802 8.80908 18.7705 8.80908V6.30908ZM26.2705 8.80908C26.9609 8.80908 27.5205 8.24944 27.5205 7.55908C27.5205 6.86873 26.9609 6.30908 26.2705 6.30908V8.80908ZM18.7705 8.80908H26.2705V6.30908H18.7705V8.80908Z" fill="#FD650B"/>
<path d="M18.7705 10.0591C18.0802 10.0591 17.5205 10.6187 17.5205 11.3091C17.5205 11.9994 18.0802 12.5591 18.7705 12.5591V10.0591ZM22.5205 12.5591C23.2109 12.5591 23.7705 11.9994 23.7705 11.3091C23.7705 10.6187 23.2109 10.0591 22.5205 10.0591V12.5591ZM18.7705 12.5591H22.5205V10.0591H18.7705V12.5591Z" fill="#FD650B"/>
<path d="M27.8866 29.693C28.3748 30.1811 29.1662 30.1811 29.6544 29.693C30.1425 29.2048 30.1425 28.4134 29.6544 27.9252L27.8866 29.693ZM27.1544 25.4252C26.6662 24.937 25.8748 24.937 25.3866 25.4252C24.8985 25.9134 24.8985 26.7048 25.3866 27.193L27.1544 25.4252ZM29.6544 27.9252L27.1544 25.4252L25.3866 27.193L27.8866 29.693L29.6544 27.9252Z" fill="#FD650B"/>
</svg>
