<svg width="25" height="25" viewBox="0 0 25 25" fill="none" xmlns="http://www.w3.org/2000/svg">
<path d="M5.17051 12.1182C4.39731 12.1182 3.77051 12.745 3.77051 13.5182C3.77051 14.2914 4.39731 14.9182 5.17051 14.9182V12.1182ZM21.6705 14.9182C22.4437 14.9182 23.0705 14.2914 23.0705 13.5182C23.0705 12.745 22.4437 12.1182 21.6705 12.1182V14.9182ZM5.17051 14.9182H21.6705V12.1182H5.17051V14.9182Z" fill="#636363"/>
<path d="M14.8205 5.26816C14.8205 4.49497 14.1937 3.86816 13.4205 3.86816C12.6473 3.86816 12.0205 4.49497 12.0205 5.26816H14.8205ZM12.0205 21.7682C12.0205 22.5414 12.6473 23.1682 13.4205 23.1682C14.1937 23.1682 14.8205 22.5414 14.8205 21.7682H12.0205ZM12.0205 5.26816V21.7682H14.8205V5.26816H12.0205Z" fill="#636363"/>
</svg>
