<svg width="25" height="25" viewBox="0 0 25 25" fill="none" xmlns="http://www.w3.org/2000/svg">
<path d="M4.77051 12.1182C4.21822 12.1182 3.77051 12.5659 3.77051 13.1182C3.77051 13.6704 4.21822 14.1182 4.77051 14.1182V12.1182ZM21.2705 14.1182C21.8228 14.1182 22.2705 13.6704 22.2705 13.1182C22.2705 12.5659 21.8228 12.1182 21.2705 12.1182V14.1182ZM4.77051 14.1182H21.2705V12.1182H4.77051V14.1182Z" fill="#FF8B47"/>
<path d="M15.2276 5.66106C14.8371 5.27053 14.2039 5.27053 13.8134 5.66106C13.4229 6.05158 13.4229 6.68475 13.8134 7.07527L15.2276 5.66106ZM21.2705 13.1182L21.9776 13.8253C22.3681 13.4347 22.3681 12.8016 21.9776 12.4111L21.2705 13.1182ZM13.8134 19.1611C13.4229 19.5516 13.4229 20.1848 13.8134 20.5753C14.2039 20.9658 14.8371 20.9658 15.2276 20.5753L13.8134 19.1611ZM13.8134 7.07527L20.5634 13.8253L21.9776 12.4111L15.2276 5.66106L13.8134 7.07527ZM20.5634 12.4111L13.8134 19.1611L15.2276 20.5753L21.9776 13.8253L20.5634 12.4111Z" fill="#FF8B47"/>
</svg>
