<svg width="25" height="25" viewBox="0 0 25 25" fill="none" xmlns="http://www.w3.org/2000/svg">
<path d="M22.5944 11.4323C23.0441 11.1116 23.1485 10.4871 22.8278 10.0375C22.507 9.58789 21.8826 9.48342 21.433 9.80416L22.5944 11.4323ZM14.6543 15.8682V16.8682C14.8625 16.8682 15.0656 16.8033 15.2351 16.6823L14.6543 15.8682ZM11.3731 15.8682L10.7924 16.6823C10.9619 16.8033 11.1649 16.8682 11.3731 16.8682V15.8682ZM4.5945 9.80416C4.14489 9.48342 3.5204 9.58789 3.19966 10.0375C2.87893 10.4871 2.9834 11.1116 3.433 11.4323L4.5945 9.80416ZM21.433 9.80416L14.0736 15.0542L15.2351 16.6823L22.5944 11.4323L21.433 9.80416ZM14.6543 14.8682H11.3731V16.8682H14.6543V14.8682ZM11.9539 15.0542L4.5945 9.80416L3.433 11.4323L10.7924 16.6823L11.9539 15.0542Z" fill="#6E6E6E"/>
<path d="M4.01367 10.6182L3.45897 9.78611C3.18077 9.97158 3.01367 10.2838 3.01367 10.6182H4.01367ZM22.0137 10.6182H23.0137C23.0137 10.2838 22.8466 9.97158 22.5684 9.78611L22.0137 10.6182ZM13.0137 4.61816L13.5684 3.78611C13.2325 3.56218 12.7949 3.56218 12.459 3.78611L13.0137 4.61816ZM3.01367 10.6182V20.3682H5.01367V10.6182H3.01367ZM3.01367 20.3682C3.01367 20.8323 3.19805 21.2774 3.52623 21.6056L4.94045 20.1914C4.98733 20.2383 5.01367 20.3019 5.01367 20.3682H3.01367ZM3.52623 21.6056C3.85442 21.9338 4.29954 22.1182 4.76367 22.1182V20.1182C4.82997 20.1182 4.89356 20.1445 4.94045 20.1914L3.52623 21.6056ZM4.76367 22.1182H21.2637V20.1182H4.76367V22.1182ZM21.2637 22.1182C21.7278 22.1182 22.1729 21.9338 22.5011 21.6056L21.0869 20.1914C21.1338 20.1445 21.1974 20.1182 21.2637 20.1182V22.1182ZM22.5011 21.6056C22.8293 21.2774 23.0137 20.8323 23.0137 20.3682H21.0137C21.0137 20.3019 21.04 20.2383 21.0869 20.1914L22.5011 21.6056ZM23.0137 20.3682V10.6182H21.0137V20.3682H23.0137ZM22.5684 9.78611L13.5684 3.78611L12.459 5.45021L21.459 11.4502L22.5684 9.78611ZM12.459 3.78611L3.45897 9.78611L4.56837 11.4502L13.5684 5.45021L12.459 3.78611Z" fill="#6E6E6E"/>
</svg>
