<svg width="21" height="21" viewBox="0 0 21 21" fill="none" xmlns="http://www.w3.org/2000/svg">
<path d="M19.7782 3.34742L17.0566 6.06873L18.9518 7.9636C19.0673 8.07919 19.146 8.22645 19.1779 8.38676C19.2098 8.54707 19.1934 8.71324 19.1308 8.86424C19.0683 9.01525 18.9623 9.14431 18.8264 9.23513C18.6904 9.32595 18.5307 9.37443 18.3673 9.37445H13.4079C13.1887 9.37444 12.9784 9.28736 12.8234 9.13238C12.6684 8.9774 12.5813 8.76719 12.5813 8.54801V3.58944C12.5813 3.42599 12.6298 3.26622 12.7206 3.13031C12.8115 2.99442 12.9405 2.8885 13.0916 2.82594C13.2426 2.76339 13.4088 2.74702 13.5691 2.7789C13.7295 2.81077 13.8768 2.88946 13.9923 3.00502L15.8875 4.8999L18.6093 2.17859C18.6861 2.10185 18.7772 2.04097 18.8775 1.99944C18.9777 1.9579 19.0852 1.93652 19.1938 1.93652C19.3023 1.93652 19.4098 1.9579 19.5102 1.99944C19.6104 2.04097 19.7015 2.10185 19.7782 2.17859C19.855 2.25534 19.9159 2.34645 19.9575 2.44673C19.9991 2.547 20.0203 2.65447 20.0203 2.76301C20.0203 2.87154 19.9991 2.97902 19.9575 3.07929C19.9159 3.17957 19.855 3.27068 19.7782 3.34742ZM8.44848 12.6802H3.48911C3.32564 12.6802 3.16584 12.7287 3.02992 12.8195C2.894 12.9103 2.78806 13.0394 2.7255 13.1903C2.66294 13.3413 2.64656 13.5076 2.67844 13.6678C2.71032 13.8282 2.78903 13.9755 2.90461 14.091L4.79979 15.9858L2.07805 18.7072C2.00129 18.784 1.9404 18.8751 1.89886 18.9753C1.85732 19.0756 1.83594 19.183 1.83594 19.2916C1.83594 19.4001 1.85732 19.5076 1.89886 19.6079C1.9404 19.7082 2.00129 19.7993 2.07805 19.876C2.23307 20.031 2.44332 20.118 2.66255 20.118C2.77111 20.118 2.8786 20.0968 2.97889 20.0552C3.07918 20.0136 3.17031 19.9528 3.24706 19.876L5.9688 17.1547L7.86398 19.0496C7.97959 19.1651 8.12687 19.2438 8.2872 19.2757C8.44754 19.3076 8.61374 19.2912 8.76476 19.2286C8.9158 19.1661 9.04488 19.0602 9.13571 18.9243C9.22654 18.7883 9.27503 18.6286 9.27505 18.4652V13.5066C9.27504 13.2874 9.18795 13.0772 9.03294 12.9222C8.87794 12.7672 8.6677 12.6802 8.44848 12.6802V12.6802Z" fill="#636363"/>
</svg>
