<svg width="2" height="3" viewBox="0 0 2 3" fill="none" xmlns="http://www.w3.org/2000/svg">
<path d="M0.884429 1.28271C0.874907 1.28271 0.867188 1.32546 0.867188 1.3782C0.867188 1.43093 0.874907 1.47368 0.884429 1.47368V1.28271ZM1.16891 1.47368C1.17843 1.47368 1.18615 1.43093 1.18615 1.3782C1.18615 1.32546 1.17843 1.28271 1.16891 1.28271V1.47368ZM0.884429 1.47368H1.16891V1.28271H0.884429V1.47368Z" fill="#FD650B"/>
<path d="M0.767714 0.66615C0.760981 0.628861 0.750064 0.628861 0.743331 0.66615C0.736598 0.703439 0.736598 0.763896 0.743331 0.801185L0.767714 0.66615ZM0.871902 1.37818L0.884094 1.4457C0.890827 1.40841 0.890827 1.34796 0.884094 1.31067L0.871902 1.37818ZM0.743331 1.95519C0.736598 1.99247 0.736598 2.05293 0.743331 2.09022C0.750064 2.12751 0.760981 2.12751 0.767714 2.09022L0.743331 1.95519ZM0.743331 0.801185L0.859711 1.4457L0.884094 1.31067L0.767714 0.66615L0.743331 0.801185ZM0.859711 1.31067L0.743331 1.95519L0.767714 2.09022L0.884094 1.4457L0.859711 1.31067Z" fill="#FD650B"/>
</svg>
