<svg width="25" height="25" viewBox="0 0 25 25" fill="none" xmlns="http://www.w3.org/2000/svg">
<path d="M16.7527 15.4475C16.6425 14.822 16.0461 14.4043 15.4206 14.5145C14.7951 14.6247 14.3774 15.2211 14.4876 15.8466L16.7527 15.4475ZM15.1532 19.6247C15.2634 20.2502 15.8598 20.6679 16.4853 20.5577C17.1108 20.4475 17.5285 19.8511 17.4183 19.2256L15.1532 19.6247ZM14.4876 15.8466L15.1532 19.6247L17.4183 19.2256L16.7527 15.4475L14.4876 15.8466Z" fill="#6E6E6E"/>
<path d="M11.8308 15.8368C11.9407 15.2113 11.5227 14.615 10.8972 14.5051C10.2717 14.3952 9.67543 14.8131 9.5655 15.4387L11.8308 15.8368ZM8.89988 19.2262C8.78994 19.8517 9.20792 20.4479 9.83346 20.5579C10.459 20.6678 11.0552 20.2498 11.1652 19.6243L8.89988 19.2262ZM9.5655 15.4387L8.89988 19.2262L11.1652 19.6243L11.8308 15.8368L9.5655 15.4387Z" fill="#6E6E6E"/>
<path d="M21.0118 13.0077C20.6932 12.4583 19.9896 12.2711 19.4401 12.5896C18.8906 12.9082 18.7034 13.6118 19.022 14.1613L21.0118 13.0077ZM21.1689 17.8644C21.4874 18.4139 22.1911 18.6011 22.7406 18.2825C23.29 17.964 23.4772 17.2603 23.1587 16.7109L21.1689 17.8644ZM19.022 14.1613L21.1689 17.8644L23.1587 16.7109L21.0118 13.0077L19.022 14.1613Z" fill="#6E6E6E"/>
<path d="M7.29762 14.1591C7.61497 13.609 7.42623 12.9057 6.87607 12.5884C6.32591 12.271 5.62266 12.4597 5.30531 13.0099L7.29762 14.1591ZM3.15843 16.7318C2.84109 17.2819 3.02982 17.9852 3.57998 18.3025C4.13014 18.6199 4.83339 18.4312 5.15074 17.881L3.15843 16.7318ZM5.30531 13.0099L3.15843 16.7318L5.15074 17.881L7.29762 14.1591L5.30531 13.0099Z" fill="#6E6E6E"/>
<path d="M5.05834 10.7619C4.65927 10.2678 3.93522 10.1908 3.44112 10.5899C2.94703 10.989 2.87 11.713 3.26908 12.2071L5.05834 10.7619ZM23.0583 12.2071C23.4574 11.713 23.3804 10.989 22.8863 10.5899C22.3922 10.1908 21.6681 10.2678 21.2691 10.7619L23.0583 12.2071ZM3.26908 12.2071C4.97112 14.3144 8.15567 17.0501 13.1637 17.0501V14.7501C9.09675 14.7501 6.5063 12.5546 5.05834 10.7619L3.26908 12.2071ZM13.1637 17.0501C18.1717 17.0501 21.3563 14.3144 23.0583 12.2071L21.2691 10.7619C19.8211 12.5546 17.2307 14.7501 13.1637 14.7501V17.0501Z" fill="#6E6E6E"/>
</svg>
