<svg width="91" height="121" viewBox="0 0 91 121" fill="none" xmlns="http://www.w3.org/2000/svg">
<g filter="url(#filter0_d_105_6707)">
<ellipse cx="59.877" cy="59.3039" rx="0.143609" ry="0.814154" fill="white"/>
</g>
<path d="M0.142008 0.640795C0.142456 0.625513 0.140523 0.611165 0.137691 0.608747C0.134858 0.606329 0.132199 0.616757 0.13175 0.632038L0.142008 0.640795ZM0.107897 0.760722C0.105065 0.76314 0.103132 0.777488 0.10358 0.79277C0.104028 0.808051 0.106688 0.818479 0.109521 0.816061L0.107897 0.760722ZM0.13175 0.632038C0.130803 0.664329 0.127985 0.694173 0.1237 0.717291L0.131044 0.756909C0.13688 0.725423 0.140718 0.684775 0.142008 0.640795L0.13175 0.632038ZM0.1237 0.717291C0.119415 0.740409 0.113883 0.755612 0.107897 0.760722L0.109521 0.816061C0.117673 0.809102 0.125207 0.788395 0.131044 0.756909L0.1237 0.717291Z" fill="#FD650B"/>
<path d="M0.0747914 0.389178L0.0791045 0.354188C0.0773834 0.348013 0.075278 0.345782 0.0732518 0.347986C0.0712257 0.35019 0.069445 0.356649 0.068302 0.365939L0.0747914 0.389178ZM0.0566171 0.650407H0.0488281H0.0566171ZM0.165663 0.650407H0.173452H0.165663ZM0.123343 0.226347L0.128841 0.196583C0.12705 0.186956 0.124505 0.182616 0.122014 0.184942C0.119524 0.187268 0.117397 0.195971 0.11631 0.208285L0.123343 0.226347ZM0.100755 0.482324L0.0964416 0.517313C0.0983225 0.524062 0.100654 0.526073 0.102831 0.522824C0.105008 0.519577 0.106816 0.511388 0.107787 0.500386L0.100755 0.482324ZM0.068302 0.365939C0.0580668 0.449124 0.0488281 0.550882 0.0488281 0.650407H0.0644061C0.0644061 0.576246 0.0715242 0.491712 0.0812808 0.412417L0.068302 0.365939ZM0.0488281 0.650407C0.0488281 0.739564 0.0553931 0.825068 0.0670789 0.888113L0.0780941 0.828687C0.0693298 0.781403 0.0644061 0.717276 0.0644061 0.650407H0.0488281ZM0.0670789 0.888113C0.0787646 0.951155 0.0946138 0.986573 0.11114 0.986573V0.902532C0.0987454 0.902532 0.0868585 0.875969 0.0780941 0.828687L0.0670789 0.888113ZM0.11114 0.986573C0.127666 0.986573 0.143515 0.951155 0.155201 0.888113L0.144186 0.828687C0.135421 0.875969 0.123534 0.902532 0.11114 0.902532V0.986573ZM0.155201 0.888113C0.166887 0.825068 0.173452 0.739564 0.173452 0.650407H0.157874C0.157874 0.717276 0.15295 0.781403 0.144186 0.828687L0.155201 0.888113ZM0.173452 0.650407C0.173452 0.449084 0.147666 0.297796 0.128841 0.196583L0.117845 0.256112C0.136926 0.3587 0.157874 0.48755 0.157874 0.650407H0.173452ZM0.11631 0.208285L0.093722 0.464262L0.107787 0.500386L0.130376 0.24441L0.11631 0.208285ZM0.105068 0.447334L0.0791045 0.354188L0.0704783 0.424168L0.0964416 0.517313L0.105068 0.447334Z" fill="#FD650B"/>
<defs>
<filter id="filter0_d_105_6707" x="29.7334" y="58.4897" width="60.2871" height="61.6284" filterUnits="userSpaceOnUse" color-interpolation-filters="sRGB">
<feFlood flood-opacity="0" result="BackgroundImageFix"/>
<feColorMatrix in="SourceAlpha" type="matrix" values="0 0 0 0 0 0 0 0 0 0 0 0 0 0 0 0 0 0 127 0" result="hardAlpha"/>
<feOffset dy="30"/>
<feGaussianBlur stdDeviation="15"/>
<feComposite in2="hardAlpha" operator="out"/>
<feColorMatrix type="matrix" values="0 0 0 0 0.571389 0 0 0 0 0.682951 0 0 0 0 0.733333 0 0 0 0.2 0"/>
<feBlend mode="normal" in2="BackgroundImageFix" result="effect1_dropShadow_105_6707"/>
<feBlend mode="normal" in="SourceGraphic" in2="effect1_dropShadow_105_6707" result="shape"/>
</filter>
</defs>
</svg>
