<svg width="17" height="17" viewBox="0 0 17 17" fill="none" xmlns="http://www.w3.org/2000/svg">
<path d="M5.38605 15.3363C5.38605 15.4949 5.34196 15.65 5.25934 15.7819C5.17671 15.9138 5.05927 16.0166 4.92187 16.0773C4.78447 16.138 4.63328 16.1539 4.48741 16.1229C4.34155 16.092 4.20756 16.0156 4.1024 15.9034C3.99724 15.7913 3.92562 15.6484 3.89661 15.4928C3.86759 15.3371 3.88248 15.1759 3.9394 15.0293C3.99631 14.8828 4.09269 14.7575 4.21635 14.6694C4.34001 14.5813 4.48539 14.5343 4.63411 14.5343C4.83354 14.5343 5.0248 14.6188 5.16582 14.7692C5.30684 14.9196 5.38605 15.1236 5.38605 15.3363ZM6.38866 12.6628C6.23994 12.6628 6.09455 12.7098 5.9709 12.798C5.84724 12.8861 5.75086 13.0114 5.69394 13.1579C5.63703 13.3045 5.62214 13.4657 5.65115 13.6213C5.68017 13.7769 5.75179 13.9198 5.85695 14.032C5.96211 14.1441 6.0961 14.2205 6.24196 14.2515C6.38782 14.2825 6.53902 14.2666 6.67642 14.2059C6.81382 14.1451 6.93126 14.0424 7.01389 13.9104C7.09651 13.7786 7.14061 13.6235 7.14061 13.4648C7.14061 13.2521 7.06139 13.0482 6.92037 12.8977C6.77935 12.7473 6.58809 12.6628 6.38866 12.6628ZM2.6289 12.3954C2.48018 12.3954 2.3348 12.4425 2.21114 12.5306C2.08749 12.6187 1.99111 12.744 1.93419 12.8906C1.87728 13.0371 1.86239 13.1983 1.8914 13.354C1.92042 13.5096 1.99203 13.6524 2.09719 13.7646C2.20236 13.8768 2.33634 13.9532 2.48221 13.9841C2.62807 14.0151 2.77926 13.9992 2.91666 13.9385C3.05406 13.8778 3.1715 13.775 3.25413 13.6431C3.33676 13.5112 3.38086 13.3561 3.38086 13.1975C3.38086 12.9848 3.30163 12.7808 3.16061 12.6304C3.0196 12.4799 2.82833 12.3954 2.6289 12.3954ZM5.13541 11.326C5.13541 11.1674 5.09131 11.0123 5.00869 10.8804C4.92606 10.7485 4.80862 10.6457 4.67122 10.585C4.53382 10.5243 4.38263 10.5084 4.23676 10.5394C4.0909 10.5703 3.95691 10.6467 3.85175 10.7589C3.74659 10.8711 3.67497 11.014 3.64596 11.1696C3.61694 11.3251 3.63183 11.4864 3.68875 11.633C3.74566 11.7795 3.84204 11.9048 3.9657 11.9929C4.08936 12.081 4.23474 12.1281 4.38346 12.1281C4.58289 12.1281 4.77415 12.0436 4.91517 11.8932C5.05619 11.7427 5.13541 11.5387 5.13541 11.326ZM16.4147 2.23609H14.6171C14.4854 2.2357 14.3549 2.26319 14.2332 2.31696C14.1115 2.37072 14.001 2.4497 13.9081 2.54932L12.1634 4.41034L4.2593 5.81547C4.07759 5.84778 3.90774 5.93285 3.76839 6.06137C3.62905 6.18989 3.52558 6.35686 3.46937 6.54398C3.41315 6.7311 3.40635 6.93111 3.44972 7.12208C3.49308 7.31305 3.58493 7.48758 3.71519 7.62652L9.85707 14.1776C9.98732 14.3166 10.151 14.4145 10.33 14.4608C10.509 14.5071 10.6966 14.4998 10.872 14.4399C11.0474 14.3798 11.204 14.2696 11.3245 14.1209C11.4449 13.9723 11.5247 13.7911 11.555 13.5973L12.8723 5.16654V5.1665L14.6171 3.30549H16.4147C16.5476 3.30549 16.6751 3.24916 16.7691 3.14888C16.8631 3.04861 16.916 2.9126 16.916 2.77079C16.916 2.62898 16.8631 2.49297 16.7691 2.3927C16.6751 2.29242 16.5476 2.23609 16.4147 2.23609Z" fill="#636363"/>
</svg>
