<svg width="17" height="17" viewBox="0 0 17 17" fill="none" xmlns="http://www.w3.org/2000/svg">
<path d="M8.29502 12.537L11.445 14.537C11.8512 14.7932 12.3512 14.412 12.2325 13.9432L11.32 10.3557C11.2953 10.2562 11.2993 10.1518 11.3313 10.0545C11.3634 9.95724 11.4223 9.87097 11.5013 9.80568L14.3262 7.44943C14.695 7.14318 14.5075 6.52443 14.0262 6.49318L10.3388 6.25568C10.2382 6.24983 10.1414 6.21479 10.0604 6.15486C9.97937 6.09492 9.91756 6.01268 9.88252 5.91818L8.50752 2.45568C8.47112 2.35562 8.40481 2.26918 8.3176 2.2081C8.23039 2.14702 8.12649 2.11426 8.02002 2.11426C7.91354 2.11426 7.80965 2.14702 7.72243 2.2081C7.63522 2.26918 7.56891 2.35562 7.53252 2.45568L6.15752 5.91818C6.12247 6.01268 6.06066 6.09492 5.97964 6.15486C5.89861 6.21479 5.80188 6.24983 5.70127 6.25568L2.01377 6.49318C1.53252 6.52443 1.34502 7.14318 1.71377 7.44943L4.53877 9.80568C4.61773 9.87097 4.67663 9.95724 4.7087 10.0545C4.74077 10.1518 4.74469 10.2562 4.72002 10.3557L3.87627 13.6807C3.73252 14.2432 4.33252 14.6995 4.81377 14.3932L7.74502 12.537C7.82721 12.4847 7.92261 12.4569 8.02002 12.4569C8.11743 12.4569 8.21282 12.4847 8.29502 12.537Z" fill="#1A1A1A"/>
<path d="M8.29502 12.537L11.445 14.537C11.8512 14.7932 12.3512 14.412 12.2325 13.9432L11.32 10.3557C11.2953 10.2562 11.2993 10.1518 11.3313 10.0545C11.3634 9.95724 11.4223 9.87097 11.5013 9.80568L14.3262 7.44943C14.695 7.14318 14.5075 6.52443 14.0262 6.49318L10.3388 6.25568C10.2382 6.24983 10.1414 6.21479 10.0604 6.15486C9.97937 6.09492 9.91756 6.01268 9.88252 5.91818L8.50752 2.45568C8.47112 2.35562 8.40481 2.26918 8.3176 2.2081C8.23039 2.14702 8.12649 2.11426 8.02002 2.11426C7.91354 2.11426 7.80965 2.14702 7.72243 2.2081C7.63522 2.26918 7.56891 2.35562 7.53252 2.45568L6.15752 5.91818C6.12247 6.01268 6.06066 6.09492 5.97964 6.15486C5.89861 6.21479 5.80188 6.24983 5.70127 6.25568L2.01377 6.49318C1.53252 6.52443 1.34502 7.14318 1.71377 7.44943L4.53877 9.80568C4.61773 9.87097 4.67663 9.95724 4.7087 10.0545C4.74077 10.1518 4.74469 10.2562 4.72002 10.3557L3.87627 13.6807C3.73252 14.2432 4.33252 14.6995 4.81377 14.3932L7.74502 12.537C7.82721 12.4847 7.92261 12.4569 8.02002 12.4569C8.11743 12.4569 8.21282 12.4847 8.29502 12.537ZM8.29502 12.537V12.537Z" stroke="#1A1A1A" stroke-linecap="round" stroke-linejoin="round"/>
</svg>
