<svg width="25" height="25" viewBox="0 0 25 25" fill="none" xmlns="http://www.w3.org/2000/svg">
<path d="M18.0137 10.6182C18.0137 13.3796 15.7751 15.6182 13.0137 15.6182V17.6182C16.8797 17.6182 20.0137 14.4842 20.0137 10.6182H18.0137ZM13.0137 15.6182C10.2523 15.6182 8.01367 13.3796 8.01367 10.6182H6.01367C6.01367 14.4842 9.14768 17.6182 13.0137 17.6182V15.6182ZM8.01367 10.6182C8.01367 7.85674 10.2523 5.61816 13.0137 5.61816V3.61816C9.14768 3.61816 6.01367 6.75217 6.01367 10.6182H8.01367ZM13.0137 5.61816C15.7751 5.61816 18.0137 7.85674 18.0137 10.6182H20.0137C20.0137 6.75217 16.8797 3.61816 13.0137 3.61816V5.61816Z" fill="#6E6E6E"/>
<path d="M3.05402 21.3681C2.77792 21.8464 2.94185 22.458 3.42017 22.7341C3.89849 23.0102 4.51006 22.8463 4.78616 22.3679L3.05402 21.3681ZM21.2415 22.3679C21.5176 22.8463 22.1292 23.0102 22.6075 22.7341C23.0858 22.458 23.2498 21.8464 22.9737 21.3681L21.2415 22.3679ZM4.78616 22.3679C5.6199 20.9236 6.81919 19.7241 8.26346 18.8902L7.26338 17.1582C5.51505 18.1677 4.06328 19.6196 3.05402 21.3681L4.78616 22.3679ZM8.26346 18.8902C9.70773 18.0562 11.3461 17.6172 13.0138 17.6172V15.6172C10.995 15.6172 9.01171 16.1487 7.26338 17.1582L8.26346 18.8902ZM13.0138 17.6172C14.6816 17.6172 16.32 18.0562 17.7642 18.8902L18.7643 17.1582C17.016 16.1487 15.0327 15.6172 13.0138 15.6172V17.6172ZM17.7642 18.8902C19.2085 19.7241 20.4078 20.9236 21.2415 22.3679L22.9737 21.3681C21.9644 19.6196 20.5126 18.1677 18.7643 17.1582L17.7642 18.8902Z" fill="#6E6E6E"/>
</svg>
