<svg width="25" height="25" viewBox="0 0 25 25" fill="none" xmlns="http://www.w3.org/2000/svg">
<path d="M18.7705 12.4932C18.7705 16.2902 15.6925 19.3682 11.8955 19.3682V21.3682C16.797 21.3682 20.7705 17.3947 20.7705 12.4932H18.7705ZM11.8955 19.3682C8.09855 19.3682 5.02051 16.2902 5.02051 12.4932H3.02051C3.02051 17.3947 6.99398 21.3682 11.8955 21.3682V19.3682ZM5.02051 12.4932C5.02051 8.6962 8.09855 5.61816 11.8955 5.61816V3.61816C6.99398 3.61816 3.02051 7.59163 3.02051 12.4932H5.02051ZM11.8955 5.61816C15.6925 5.61816 18.7705 8.6962 18.7705 12.4932H20.7705C20.7705 7.59163 16.797 3.61816 11.8955 3.61816V5.61816Z" fill="#636363"/>
<path d="M18.171 17.3549C17.7804 16.9644 17.1473 16.9644 16.7568 17.3549C16.3662 17.7454 16.3662 18.3786 16.7568 18.7691L18.171 17.3549ZM21.3131 23.3254C21.7036 23.716 22.3368 23.716 22.7273 23.3254C23.1178 22.9349 23.1178 22.3017 22.7273 21.9112L21.3131 23.3254ZM16.7568 18.7691L21.3131 23.3254L22.7273 21.9112L18.171 17.3549L16.7568 18.7691Z" fill="#636363"/>
</svg>
