<svg width="25" height="25" viewBox="0 0 25 25" fill="none" xmlns="http://www.w3.org/2000/svg">
<path d="M18.2977 22.1463L17.6813 23.1172L17.6842 23.119L18.2977 22.1463ZM19.479 21.2557L20.5938 20.9733L20.5935 20.9722L19.479 21.2557ZM18.1102 15.8744L16.9941 16.1514L16.9957 16.1579L18.1102 15.8744ZM18.3821 15.0494L19.1149 15.9357L19.1187 15.9326L18.3821 15.0494ZM22.6196 11.5151L21.8849 10.6304L21.883 10.6319L22.6196 11.5151ZM22.1696 10.0807L22.2441 8.9331L22.2435 8.93306L22.1696 10.0807ZM16.6384 9.72443L16.7123 8.57679L16.7052 8.57637L16.6384 9.72443ZM15.954 9.21818L17.0322 8.81832C17.0292 8.81009 17.026 8.8019 17.0228 8.79375L15.954 9.21818ZM13.8915 4.02444L12.8107 4.41755C12.8146 4.42805 12.8185 4.43849 12.8227 4.44887L13.8915 4.02444ZM13.1602 3.5123V2.3623V3.5123ZM12.429 4.02444L13.4978 4.44887C13.5019 4.43849 13.5059 4.42805 13.5097 4.41755L12.429 4.02444ZM10.3665 9.21818L9.29765 8.79375C9.29441 8.8019 9.29127 8.81009 9.28822 8.81832L10.3665 9.21818ZM9.68208 9.72443L9.61529 8.57635L9.60817 8.57681L9.68208 9.72443ZM4.15084 10.0807L4.07692 8.93306L4.07632 8.9331L4.15084 10.0807ZM3.70084 11.5151L4.43743 10.6319L4.43557 10.6304L3.70084 11.5151ZM7.93833 15.0494L7.20173 15.9326L7.20551 15.9357L7.93833 15.0494ZM8.21021 15.8744L9.3249 16.1573L9.32636 16.1514L8.21021 15.8744ZM6.94458 20.8619L8.05878 21.1467L8.05925 21.1448L6.94458 20.8619ZM8.35083 21.9307L7.73557 20.9591L7.73343 20.9605L8.35083 21.9307ZM12.7477 19.1463L13.363 20.1179L13.3648 20.1167L12.7477 19.1463ZM13.1602 19.0263V17.8763V19.0263ZM13.5727 19.1463L12.9556 20.1167L12.9563 20.1172L13.5727 19.1463ZM12.9563 20.1172L17.6813 23.1172L18.9141 21.1755L14.1891 18.1755L12.9563 20.1172ZM17.6842 23.119C19.242 24.1016 21.0065 22.6026 20.5938 20.9733L18.3642 21.5381C18.3306 21.4055 18.3932 21.2649 18.4894 21.192C18.5364 21.1564 18.6026 21.1266 18.6855 21.1209C18.7755 21.1147 18.8569 21.1394 18.9113 21.1736L17.6842 23.119ZM20.5935 20.9722L19.2247 15.591L16.9957 16.1579L18.3645 21.5392L20.5935 20.9722ZM19.2264 15.5975C19.2416 15.6586 19.2391 15.7228 19.2194 15.7827L17.035 15.0628C16.9191 15.4146 16.9049 15.7919 16.9941 16.1514L19.2264 15.5975ZM19.2194 15.7827C19.1997 15.8425 19.1635 15.8956 19.1149 15.9357L17.6493 14.1632C17.3638 14.3992 17.1509 14.711 17.035 15.0628L19.2194 15.7827ZM19.1187 15.9326L23.3562 12.3982L21.883 10.6319L17.6455 14.1663L19.1187 15.9326ZM23.3543 12.3997C24.6628 11.313 24.0612 9.05109 22.2441 8.9331L22.0951 11.2283C22.0255 11.2238 21.9453 11.1936 21.8799 11.1383C21.8205 11.0881 21.789 11.0312 21.7742 10.9832C21.7454 10.8905 21.7605 10.7337 21.8849 10.6304L23.3543 12.3997ZM22.2435 8.93306L16.7123 8.57681L16.5644 10.8721L22.0957 11.2283L22.2435 8.93306ZM16.7052 8.57637C16.7773 8.58057 16.8466 8.60569 16.9047 8.64865L15.5369 10.4977C15.8381 10.7205 16.1976 10.8507 16.5716 10.8725L16.7052 8.57637ZM16.9047 8.64865C16.9628 8.69162 17.0071 8.75058 17.0322 8.81832L14.8757 9.61805C15.006 9.96929 15.2357 10.275 15.5369 10.4977L16.9047 8.64865ZM17.0228 8.79375L14.9603 3.6L12.8227 4.44887L14.8852 9.64262L17.0228 8.79375ZM14.9722 3.63132C14.8369 3.25941 14.5905 2.93813 14.2663 2.71111L12.9469 4.59503C12.8844 4.55124 12.8368 4.48928 12.8107 4.41755L14.9722 3.63132ZM14.2663 2.71111C13.9421 2.48408 13.556 2.3623 13.1602 2.3623V4.6623C13.0839 4.6623 13.0094 4.63881 12.9469 4.59503L14.2663 2.71111ZM13.1602 2.3623C12.7645 2.3623 12.3783 2.48408 12.0541 2.71111L13.3735 4.59503C13.311 4.63881 13.2365 4.6623 13.1602 4.6623V2.3623ZM12.0541 2.71111C11.73 2.93813 11.4835 3.25941 11.3482 3.63132L13.5097 4.41755C13.4836 4.48928 13.4361 4.55124 13.3735 4.59503L12.0541 2.71111ZM11.3602 3.6L9.29765 8.79375L11.4353 9.64262L13.4978 4.44887L11.3602 3.6ZM9.28822 8.81832C9.31334 8.75058 9.35765 8.69162 9.41573 8.64865L10.7835 10.4977C11.0847 10.275 11.3145 9.96929 11.4447 9.61805L9.28822 8.81832ZM9.41573 8.64865C9.47382 8.60569 9.54316 8.58057 9.61529 8.57637L9.74888 10.8725C10.1229 10.8507 10.4824 10.7205 10.7835 10.4977L9.41573 8.64865ZM9.60817 8.57681L4.07692 8.93306L4.22475 11.2283L9.756 10.8721L9.60817 8.57681ZM4.07632 8.9331C2.25928 9.05109 1.6576 11.313 2.9661 12.3997L4.43557 10.6304C4.55994 10.7337 4.575 10.8905 4.54629 10.9832C4.53145 11.0312 4.49997 11.0881 4.44055 11.1383C4.37512 11.1936 4.29495 11.2238 4.22536 11.2283L4.07632 8.9331ZM2.96424 12.3982L7.20174 15.9326L8.67493 14.1663L4.43743 10.6319L2.96424 12.3982ZM7.20551 15.9357C7.15696 15.8956 7.12073 15.8425 7.10101 15.7827L9.28545 15.0628C9.16953 14.711 8.95659 14.3992 8.67115 14.1632L7.20551 15.9357ZM7.10101 15.7827C7.08129 15.7228 7.07888 15.6586 7.09405 15.5975L9.32636 16.1514C9.41556 15.7919 9.40138 15.4146 9.28545 15.0628L7.10101 15.7827ZM7.09554 15.5916L5.82991 20.5791L8.05925 21.1448L9.32488 16.1573L7.09554 15.5916ZM5.83039 20.5772C5.3804 22.338 7.28727 23.9706 8.96824 22.9009L7.73343 20.9605C7.76145 20.9426 7.81449 20.9246 7.87635 20.9289C7.93077 20.9327 7.96897 20.9519 7.99209 20.9695C8.01524 20.9871 8.03637 21.0128 8.04968 21.0485C8.0651 21.09 8.0635 21.1282 8.05878 21.1467L5.83039 20.5772ZM8.96609 22.9023L13.363 20.1179L12.1325 18.1747L7.73557 20.9591L8.96609 22.9023ZM13.3648 20.1167C13.3036 20.1556 13.2327 20.1763 13.1602 20.1763V17.8763C12.7955 17.8763 12.4384 17.9802 12.1306 18.1759L13.3648 20.1167ZM13.1602 20.1763C13.0878 20.1763 13.0168 20.1556 12.9556 20.1167L14.1898 18.1759C13.8821 17.9802 13.5249 17.8763 13.1602 17.8763V20.1763Z" fill="#1A1A1A"/>
</svg>
