<svg width="25" height="25" viewBox="0 0 25 25" fill="none" xmlns="http://www.w3.org/2000/svg">
<path d="M21.0137 13.5C21.0137 17.9183 17.432 21.5 13.0137 21.5V23.5C18.5365 23.5 23.0137 19.0228 23.0137 13.5H21.0137ZM13.0137 21.5C8.59539 21.5 5.01367 17.9183 5.01367 13.5H3.01367C3.01367 19.0228 7.49082 23.5 13.0137 23.5V21.5ZM5.01367 13.5C5.01367 9.08172 8.59539 5.5 13.0137 5.5V3.5C7.49082 3.5 3.01367 7.97715 3.01367 13.5H5.01367ZM13.0137 5.5C17.432 5.5 21.0137 9.08172 21.0137 13.5H23.0137C23.0137 7.97715 18.5365 3.5 13.0137 3.5V5.5Z" fill="#6E6E6E"/>
<path d="M13.9199 13.5813L13.6089 13.0106C13.3144 13.1711 13.1904 13.5292 13.3225 13.8374L13.9199 13.5813ZM11.4074 13.5813L12.0049 13.8374C12.137 13.5292 12.0129 13.1711 11.7185 13.0106L11.4074 13.5813ZM10.1137 16.6001L10.7094 16.8601L10.7111 16.8561L10.1137 16.6001ZM10.798 17.6501L10.7954 18.3001H10.798V17.6501ZM14.5293 17.6501V18.3001L14.5319 18.3001L14.5293 17.6501ZM15.2137 16.6001L14.6162 16.8561L14.6179 16.8601L15.2137 16.6001ZM14.231 14.1521C14.8701 13.8038 15.3749 13.2525 15.6658 12.5853L14.4741 12.0658C14.2987 12.4681 13.9942 12.8006 13.6089 13.0106L14.231 14.1521ZM15.6658 12.5853C15.9566 11.9181 16.017 11.1731 15.8373 10.4678L14.5775 10.7888C14.6859 11.2141 14.6495 11.6634 14.4741 12.0658L15.6658 12.5853ZM15.8373 10.4678C15.6575 9.76246 15.248 9.13714 14.6733 8.69053L13.8756 9.717C14.2222 9.98633 14.4691 10.3634 14.5775 10.7888L15.8373 10.4678ZM14.6733 8.69053C14.0986 8.24391 13.3915 8.00146 12.6637 8.00146V9.30146C13.1026 9.30146 13.529 9.44767 13.8756 9.717L14.6733 8.69053ZM12.6637 8.00146C11.9358 8.00146 11.2288 8.24391 10.6541 8.69053L11.4518 9.717C11.7983 9.44767 12.2248 9.30146 12.6637 9.30146V8.00146ZM10.6541 8.69053C10.0794 9.13714 9.66982 9.76246 9.49009 10.4678L10.7498 10.7888C10.8582 10.3634 11.1052 9.98633 11.4518 9.717L10.6541 8.69053ZM9.49009 10.4678C9.31037 11.1731 9.3707 11.9181 9.66158 12.5853L10.8532 12.0658C10.6778 11.6634 10.6414 11.2141 10.7498 10.7888L9.49009 10.4678ZM9.66158 12.5853C9.95245 13.2525 10.4573 13.8038 11.0964 14.1521L11.7185 13.0106C11.3331 12.8006 11.0287 12.4681 10.8532 12.0658L9.66158 12.5853ZM10.81 13.3253L9.51623 16.344L10.7111 16.8561L12.0049 13.8374L10.81 13.3253ZM9.51794 16.3401C9.42514 16.5527 9.38664 16.785 9.40588 17.0162L10.7014 16.9084C10.7 16.8919 10.7028 16.8753 10.7094 16.8601L9.51794 16.3401ZM9.40588 17.0162C9.42513 17.2474 9.50152 17.4702 9.62819 17.6646L10.7173 16.9547C10.7082 16.9408 10.7028 16.9249 10.7014 16.9084L9.40588 17.0162ZM9.62819 17.6646C9.75487 17.8589 9.92785 18.0187 10.1316 18.1297L10.7532 16.9879C10.7387 16.98 10.7263 16.9686 10.7173 16.9547L9.62819 17.6646ZM10.1316 18.1297C10.3353 18.2406 10.5635 18.2992 10.7954 18.3001L10.8007 17.0001C10.7841 17 10.7678 16.9959 10.7532 16.9879L10.1316 18.1297ZM10.798 18.3001H14.5293V17.0001H10.798V18.3001ZM14.5319 18.3001C14.7639 18.2992 14.992 18.2406 15.1958 18.1297L14.5741 16.9879C14.5596 16.9958 14.5433 17 14.5267 17.0001L14.5319 18.3001ZM15.1958 18.1297C15.3995 18.0187 15.5725 17.8589 15.6992 17.6646L14.6101 16.9547C14.601 16.9686 14.5887 16.98 14.5741 16.9879L15.1958 18.1297ZM15.6992 17.6646C15.8258 17.4702 15.9022 17.2474 15.9215 17.0162L14.6259 16.9084C14.6246 16.9249 14.6191 16.9408 14.6101 16.9547L15.6992 17.6646ZM15.9215 17.0162C15.9407 16.785 15.9022 16.5527 15.8094 16.3401L14.6179 16.8601C14.6246 16.8753 14.6273 16.8919 14.6259 16.9084L15.9215 17.0162ZM15.8111 16.344L14.5174 13.3253L13.3225 13.8374L14.6162 16.8561L15.8111 16.344Z" fill="#6E6E6E"/>
</svg>
