<svg width="21" height="20" viewBox="0 0 21 20" fill="none" xmlns="http://www.w3.org/2000/svg">
<path d="M11.5195 11.0001C10.9672 11.0001 10.5195 11.4478 10.5195 12.0001C10.5195 12.5524 10.9672 13.0001 11.5195 13.0001V11.0001ZM18.3945 12.0001L19.3945 11.9991C19.3939 11.4472 18.9464 11.0001 18.3945 11.0001V12.0001ZM15.6717 7.84781C16.0622 8.23836 16.6954 8.2384 17.086 7.8479C17.4765 7.4574 17.4765 6.82424 17.086 6.43369L15.6717 7.84781ZM11.5195 13.0001H18.3945V11.0001H11.5195V13.0001ZM17.3945 12.0012C17.396 13.3625 16.9252 14.6821 16.0626 15.7352L17.6098 17.0026C18.7657 15.5915 19.3964 13.8232 19.3945 11.9991L17.3945 12.0012ZM16.0626 15.7352C15.1999 16.7883 13.9988 17.5096 12.6638 17.7762L13.0555 19.7375C14.8443 19.3802 16.4538 18.4137 17.6098 17.0026L16.0626 15.7352ZM12.6638 17.7762C11.3289 18.0428 9.94283 17.8382 8.74186 17.1973L7.80018 18.9617C9.40944 19.8205 11.2668 20.0947 13.0555 19.7375L12.6638 17.7762ZM8.74186 17.1973C7.5409 16.5563 6.59939 15.5187 6.07782 14.2613L4.23044 15.0275C4.92932 16.7124 6.19092 18.1028 7.80018 18.9617L8.74186 17.1973ZM6.07782 14.2613C5.55625 13.0039 5.48691 11.6045 5.88162 10.3016L3.96753 9.72175C3.43864 11.4675 3.53156 13.3426 4.23044 15.0275L6.07782 14.2613ZM5.88162 10.3016C6.27632 8.99881 7.11064 7.8732 8.24235 7.11666L7.13086 5.45396C5.61438 6.4677 4.49642 7.976 3.96753 9.72175L5.88162 10.3016ZM8.24235 7.11666C9.37407 6.36012 10.7331 6.01948 12.0879 6.1528L12.2838 4.16242C10.4684 3.98377 8.64733 4.44021 7.13086 5.45396L8.24235 7.11666ZM12.0879 6.1528C13.4426 6.28613 14.7092 6.88517 15.6717 7.84781L17.086 6.43369C15.7963 5.14377 14.0991 4.34107 12.2838 4.16242L12.0879 6.1528Z" fill="#1A1A1A"/>
</svg>
