<svg width="21" height="21" viewBox="0 0 21 21" fill="none" xmlns="http://www.w3.org/2000/svg">
<path d="M15.6455 10.1807C15.6455 13.2527 13.1551 15.7432 10.083 15.7432V17.7432C14.2597 17.7432 17.6455 14.3574 17.6455 10.1807H15.6455ZM10.083 15.7432C7.01093 15.7432 4.52051 13.2527 4.52051 10.1807H2.52051C2.52051 14.3574 5.90636 17.7432 10.083 17.7432V15.7432ZM4.52051 10.1807C4.52051 7.10858 7.01093 4.61816 10.083 4.61816V2.61816C5.90636 2.61816 2.52051 6.00401 2.52051 10.1807H4.52051ZM10.083 4.61816C13.1551 4.61816 15.6455 7.10858 15.6455 10.1807H17.6455C17.6455 6.00401 14.2597 2.61816 10.083 2.61816V4.61816Z" fill="white"/>
<path d="M15.4298 14.1142C15.0392 13.7237 14.4061 13.7237 14.0155 14.1142C13.625 14.5047 13.625 15.1379 14.0155 15.5284L15.4298 14.1142ZM17.8125 19.3253C18.203 19.7158 18.8362 19.7158 19.2267 19.3253C19.6172 18.9348 19.6172 18.3016 19.2267 17.9111L17.8125 19.3253ZM14.0155 15.5284L17.8125 19.3253L19.2267 17.9111L15.4298 14.1142L14.0155 15.5284Z" fill="white"/>
</svg>
