<svg width="17" height="17" viewBox="0 0 17 17" fill="none" xmlns="http://www.w3.org/2000/svg">
<path d="M12.1928 15.287L11.7908 15.9201L11.7926 15.9213L12.1928 15.287ZM12.9803 14.6932L13.7073 14.509L13.7071 14.5083L12.9803 14.6932ZM12.0678 11.1057L11.3398 11.2863L11.3409 11.2906L12.0678 11.1057ZM12.249 10.5557L12.727 11.1337L12.7294 11.1316L12.249 10.5557ZM15.074 8.19943L14.5949 7.62246L14.5936 7.62347L15.074 8.19943ZM14.774 7.24318L14.8226 6.49476L14.8222 6.49473L14.774 7.24318ZM11.0865 7.00568L11.1347 6.25722L11.1301 6.25695L11.0865 7.00568ZM10.6303 6.66818L11.3335 6.4074C11.3315 6.40204 11.3294 6.39669 11.3273 6.39138L10.6303 6.66818ZM9.25527 3.20568L8.55045 3.46206C8.55294 3.4689 8.55553 3.47571 8.55822 3.48249L9.25527 3.20568ZM8.76777 2.86426V2.11426V2.86426ZM8.28027 3.20568L8.97732 3.48249C8.98 3.47571 8.98259 3.4689 8.98509 3.46206L8.28027 3.20568ZM6.90527 6.66818L6.20822 6.39138C6.2061 6.39669 6.20405 6.40204 6.20206 6.4074L6.90527 6.66818ZM6.44902 7.00568L6.40545 6.25693L6.40081 6.25723L6.44902 7.00568ZM2.76151 7.24318L2.71331 6.49473L2.71291 6.49476L2.76151 7.24318ZM2.46151 8.19943L2.9419 7.62347L2.94069 7.62246L2.46151 8.19943ZM5.28652 10.5557L4.80612 11.1316L4.80859 11.1337L5.28652 10.5557ZM5.46777 11.1057L6.19474 11.2902L6.19569 11.2863L5.46777 11.1057ZM4.62402 14.4307L5.35066 14.6164L5.35098 14.6152L4.62402 14.4307ZM5.56152 15.1432L5.16026 14.5096L5.15886 14.5105L5.56152 15.1432ZM8.49277 13.287L8.89402 13.9206L8.8952 13.9199L8.49277 13.287ZM8.76777 13.2069V12.4569V13.2069ZM9.04277 13.287L8.64033 13.9199L8.64076 13.9201L9.04277 13.287ZM8.64076 13.9201L11.7908 15.9201L12.5948 14.6538L9.44477 12.6538L8.64076 13.9201ZM11.7926 15.9213C12.8174 16.5677 13.9791 15.5818 13.7073 14.509L12.2532 14.8774C12.2326 14.796 12.2714 14.7089 12.3306 14.6641C12.3595 14.6422 12.4006 14.6236 12.4524 14.62C12.5089 14.6161 12.5597 14.6317 12.5929 14.6526L11.7926 15.9213ZM13.7071 14.5083L12.7946 10.9208L11.3409 11.2906L12.2534 14.8781L13.7071 14.5083ZM12.7957 10.9251C12.8051 10.9628 12.8036 11.0024 12.7914 11.0393L11.3668 10.5698C11.2905 10.8013 11.2811 11.0497 11.3398 11.2863L12.7957 10.9251ZM12.7914 11.0393C12.7793 11.0762 12.7569 11.1089 12.727 11.1337L11.7711 9.97768C11.5832 10.133 11.4431 10.3383 11.3668 10.5698L12.7914 11.0393ZM12.7294 11.1316L15.5544 8.77539L14.5936 7.62347L11.7686 9.97972L12.7294 11.1316ZM15.5532 8.7764C16.4146 8.06101 16.0181 6.57239 14.8226 6.49476L14.7254 7.99161C14.6827 7.98883 14.6326 7.97013 14.5917 7.93552C14.5546 7.90423 14.5353 7.86907 14.5263 7.83994C14.5089 7.78373 14.5178 7.6865 14.5949 7.62246L15.5532 8.7764ZM14.8222 6.49473L11.1347 6.25723L11.0383 7.75413L14.7258 7.99163L14.8222 6.49473ZM11.1301 6.25695C11.1749 6.25956 11.218 6.27517 11.2542 6.30189L10.3621 7.50782C10.5603 7.65441 10.7969 7.7401 11.0429 7.75442L11.1301 6.25695ZM11.2542 6.30189C11.2903 6.32861 11.3178 6.36527 11.3335 6.4074L9.92706 6.92896C10.0128 7.16008 10.1639 7.36122 10.3621 7.50782L11.2542 6.30189ZM11.3273 6.39138L9.95232 2.92887L8.55822 3.48249L9.93322 6.94499L11.3273 6.39138ZM9.96009 2.9493C9.87107 2.70457 9.70889 2.49317 9.49559 2.34378L8.63511 3.57242C8.59623 3.5452 8.56667 3.50667 8.55045 3.46206L9.96009 2.9493ZM9.49559 2.34378C9.28229 2.19439 9.02818 2.11426 8.76777 2.11426V3.61426C8.7203 3.61426 8.67399 3.59965 8.63511 3.57242L9.49559 2.34378ZM8.76777 2.11426C8.50735 2.11426 8.25324 2.19439 8.03994 2.34378L8.90042 3.57242C8.86155 3.59965 8.81523 3.61426 8.76777 3.61426V2.11426ZM8.03994 2.34378C7.82664 2.49317 7.66447 2.70457 7.57545 2.9493L8.98509 3.46206C8.96886 3.50666 8.9393 3.5452 8.90042 3.57242L8.03994 2.34378ZM7.58322 2.92887L6.20822 6.39138L7.60232 6.94499L8.97732 3.48249L7.58322 2.92887ZM6.20206 6.4074C6.21769 6.36527 6.24524 6.32861 6.28136 6.30189L7.17341 7.50782C7.37158 7.36122 7.52276 7.16008 7.60847 6.92896L6.20206 6.4074ZM6.28136 6.30189C6.31748 6.27518 6.3606 6.25956 6.40545 6.25695L6.49258 7.75442C6.73866 7.7401 6.97524 7.65441 7.17341 7.50782L6.28136 6.30189ZM6.40081 6.25723L2.71331 6.49473L2.80972 7.99163L6.49722 7.75413L6.40081 6.25723ZM2.71291 6.49476C1.51742 6.57239 1.12096 8.06101 1.98234 8.7764L2.94069 7.62246C3.01779 7.6865 3.02663 7.78373 3.00923 7.83994C3.00021 7.86907 2.98092 7.90423 2.94389 7.93552C2.90295 7.97013 2.85289 7.98883 2.81011 7.99161L2.71291 6.49476ZM1.98112 8.77539L4.80613 11.1316L5.7669 9.97972L2.9419 7.62347L1.98112 8.77539ZM4.80859 11.1337C4.77864 11.1089 4.75629 11.0762 4.74413 11.0393L6.16877 10.5698C6.09247 10.3383 5.95231 10.133 5.76444 9.97768L4.80859 11.1337ZM4.74413 11.0393C4.73197 11.0024 4.73048 10.9628 4.73984 10.9251L6.19569 11.2863C6.2544 11.0497 6.24507 10.8013 6.16877 10.5698L4.74413 11.0393ZM4.74081 10.9212L3.89706 14.2462L5.35098 14.6152L6.19473 11.2901L4.74081 10.9212ZM3.89737 14.245C3.60077 15.4056 4.85743 16.4803 5.96417 15.776L5.15886 14.5105C5.17452 14.5005 5.20634 14.4894 5.24403 14.492C5.27688 14.4943 5.29928 14.5058 5.31226 14.5157C5.32528 14.5256 5.33739 14.5402 5.34512 14.5609C5.35424 14.5854 5.35296 14.6074 5.35066 14.6164L3.89737 14.245ZM5.96277 15.7769L8.89402 13.9206L8.09151 12.6533L5.16026 14.5096L5.96277 15.7769ZM8.8952 13.9199C8.85711 13.9441 8.81291 13.9569 8.76777 13.9569V12.4569C8.52781 12.4569 8.29282 12.5253 8.09033 12.654L8.8952 13.9199ZM8.76777 13.9569C8.72263 13.9569 8.67842 13.9441 8.64033 13.9199L9.4452 12.654C9.24271 12.5253 9.00772 12.4569 8.76777 12.4569V13.9569Z" fill="#6E6E6E"/>
</svg>
