<svg width="17" height="17" viewBox="0 0 17 17" fill="none" xmlns="http://www.w3.org/2000/svg">
<path d="M14.3037 8.93843C14.5966 8.64553 14.5966 8.17066 14.3037 7.87777C14.0108 7.58487 13.536 7.58487 13.2431 7.87777L14.3037 8.93843ZM8.77343 13.4081L8.2431 13.9384C8.53599 14.2313 9.01087 14.2313 9.30376 13.9384L8.77343 13.4081ZM4.30377 7.87775C4.01087 7.58486 3.536 7.58486 3.24311 7.87775C2.95021 8.17064 2.95021 8.64552 3.24311 8.93841L4.30377 7.87775ZM13.2431 7.87777L8.2431 12.8778L9.30376 13.9384L14.3037 8.93843L13.2431 7.87777ZM9.30376 12.8778L4.30377 7.87775L3.24311 8.93841L8.2431 13.9384L9.30376 12.8778Z" fill="#6E6E6E"/>
</svg>
