<svg width="21" height="21" viewBox="0 0 21 21" fill="none" xmlns="http://www.w3.org/2000/svg">
<path d="M3.26953 8.86816L2.85351 8.24412C2.64486 8.38322 2.51953 8.6174 2.51953 8.86816H3.26953ZM18.2695 8.86816H19.0195C19.0195 8.6174 18.8942 8.38322 18.6855 8.24412L18.2695 8.86816ZM10.7695 3.86816L11.1856 3.24413C10.9336 3.07618 10.6054 3.07618 10.3535 3.24413L10.7695 3.86816ZM2.51953 8.86816V16.9932H4.01953V8.86816H2.51953ZM2.51953 16.9932C2.51953 17.3579 2.6644 17.7076 2.92226 17.9655L3.98292 16.9048C4.00636 16.9283 4.01953 16.96 4.01953 16.9932H2.51953ZM2.92226 17.9655C3.18012 18.2233 3.52986 18.3682 3.89453 18.3682V16.8682C3.92768 16.8682 3.95948 16.8814 3.98292 16.9048L2.92226 17.9655ZM3.89453 18.3682H17.6445V16.8682H3.89453V18.3682ZM17.6445 18.3682C18.0092 18.3682 18.3589 18.2233 18.6168 17.9655L17.5561 16.9048C17.5796 16.8814 17.6114 16.8682 17.6445 16.8682V18.3682ZM18.6168 17.9655C18.8746 17.7076 19.0195 17.3579 19.0195 16.9932H17.5195C17.5195 16.9601 17.5327 16.9283 17.5561 16.9048L18.6168 17.9655ZM19.0195 16.9932V8.86816H17.5195V16.9932H19.0195ZM18.6855 8.24412L11.1856 3.24413L10.3535 4.4922L17.8535 9.4922L18.6855 8.24412ZM10.3535 3.24413L2.85351 8.24412L3.68556 9.4922L11.1856 4.4922L10.3535 3.24413Z" fill="#6E6E6E"/>
<path d="M18.7052 9.47879C19.0424 9.23823 19.1207 8.76987 18.8802 8.43266C18.6396 8.09546 18.1712 8.01711 17.834 8.25766L18.7052 9.47879ZM12.1368 13.2432V13.9932C12.2929 13.9932 12.4452 13.9445 12.5723 13.8538L12.1368 13.2432ZM9.4024 13.2432L8.96684 13.8538C9.09397 13.9445 9.24624 13.9932 9.4024 13.9932V13.2432ZM3.70515 8.25766C3.36795 8.01711 2.89958 8.09546 2.65903 8.43266C2.41847 8.76987 2.49682 9.23823 2.83403 9.47879L3.70515 8.25766ZM17.834 8.25766L11.7012 12.6327L12.5723 13.8538L18.7052 9.47879L17.834 8.25766ZM12.1368 12.4932H9.4024V13.9932H12.1368V12.4932ZM9.83796 12.6327L3.70515 8.25766L2.83403 9.47879L8.96684 13.8538L9.83796 12.6327Z" fill="#6E6E6E"/>
</svg>
