<svg width="466" height="481" viewBox="0 0 466 481" fill="none" xmlns="http://www.w3.org/2000/svg">
<path fill-rule="evenodd" clip-rule="evenodd" d="M449.522 475.522L448.987 476.048L452.512 476.016L452.036 475.472" fill="white"/>
<path fill-rule="evenodd" clip-rule="evenodd" d="M450.252 462.923C449.084 464.327 448.336 466.028 448.01 468.025C447.674 470.085 447.766 472.583 448.287 475.518L453.037 475.453C453.506 472.477 453.567 469.977 453.217 467.954C452.878 465.992 452.124 464.313 450.957 462.914C450.891 462.835 450.754 462.786 450.606 462.788C450.456 462.79 450.32 462.842 450.252 462.923Z" fill="#FD650B"/>
<path fill-rule="evenodd" clip-rule="evenodd" d="M448.776 465.369L452.339 465.274C451.562 463.584 450.976 462.746 450.58 462.761C450.185 462.777 449.583 463.646 448.776 465.369Z" fill="#883402"/>
<path fill-rule="evenodd" clip-rule="evenodd" d="M451.966 476.044L452.166 477.507L451.274 476.838L450.596 477.491L450.192 476.821L449.166 477.432L449.464 476.067L448.821 476.073L449.426 475.478L449.552 475.524L449.086 475.982L452.357 475.952L451.937 475.472L452.069 475.43L452.602 476.039L451.966 476.044Z" fill="#1A1A1A"/>
<path d="M447.912 468.008C447.575 470.072 447.668 472.572 448.189 475.51C448.193 475.533 448.225 475.55 448.263 475.549L453.012 475.485C453.051 475.484 453.082 475.467 453.086 475.444C453.556 472.464 453.616 469.961 453.266 467.935C452.926 465.969 452.17 464.284 450.999 462.88C450.92 462.786 450.758 462.728 450.581 462.73C450.403 462.733 450.242 462.794 450.162 462.89C448.988 464.3 448.239 466.006 447.912 468.008ZM448.329 475.459C447.815 472.544 447.726 470.062 448.06 468.015C448.384 466.024 449.13 464.328 450.294 462.929C450.349 462.863 450.46 462.821 450.581 462.819C450.702 462.817 450.812 462.857 450.866 462.921C452.029 464.315 452.781 465.989 453.119 467.946C453.467 469.957 453.408 472.44 452.944 475.397L448.329 475.459Z" fill="#1A1A1A"/>
<path fill-rule="evenodd" clip-rule="evenodd" d="M448.274 471.133L448.505 471.652L448.301 475.484L445.982 477.039L445.577 477.044L448.274 471.133ZM453.071 471.055L455.673 476.922L455.267 476.923L452.973 475.408L452.832 471.578L453.071 471.055Z" fill="white"/>
<path d="M448.192 471.157C448.212 471.113 448.316 471.112 448.335 471.156L448.567 471.675L448.569 471.688L448.366 475.52C448.365 475.531 448.358 475.541 448.346 475.549L446.027 477.103C446.013 477.112 445.993 477.118 445.973 477.118L445.568 477.124C445.518 477.125 445.483 477.097 445.496 477.068L448.192 471.157ZM445.664 477.034L445.94 477.03L448.218 475.503L448.42 471.694L448.262 471.338L445.664 477.034ZM448.421 471.687L448.423 471.7L448.42 471.694L448.421 471.687ZM452.99 471.079C453.01 471.035 453.113 471.034 453.133 471.078L455.734 476.945C455.747 476.973 455.71 477.002 455.662 477.002L455.257 477.003C455.236 477.003 455.216 476.998 455.202 476.989L452.908 475.473C452.896 475.466 452.889 475.455 452.889 475.445L452.748 471.616L452.75 471.603L452.99 471.079ZM452.896 471.619L453.037 475.425L455.291 476.914L455.566 476.913L453.06 471.26L452.896 471.619Z" fill="#1A1A1A"/>
<path d="M451.707 468.423C452.293 468.074 452.306 467.51 451.736 467.164C451.165 466.818 450.227 466.821 449.641 467.17C449.056 467.52 449.043 468.084 449.613 468.429C450.183 468.775 451.121 468.772 451.707 468.423Z" fill="white"/>
<path d="M451.75 468.431C452.366 468.064 452.379 467.473 451.78 467.109C451.181 466.746 450.197 466.749 449.581 467.116C448.966 467.483 448.952 468.075 449.551 468.438C450.15 468.801 451.135 468.798 451.75 468.431ZM451.647 468.369C451.09 468.701 450.199 468.704 449.657 468.375C449.116 468.046 449.128 467.511 449.685 467.179C450.241 466.847 451.132 466.844 451.674 467.173C452.216 467.501 452.204 468.037 451.647 468.369Z" fill="#1A1A1A"/>
<path d="M451.209 468.12C450.906 468.301 450.422 468.302 450.127 468.124C449.832 467.945 449.839 467.654 450.142 467.473C450.444 467.293 450.929 467.291 451.224 467.47C451.518 467.648 451.512 467.94 451.209 468.12ZM451.106 468.058C451.35 467.912 451.355 467.677 451.118 467.533C450.88 467.389 450.489 467.39 450.245 467.536C450.001 467.681 449.995 467.916 450.233 468.06C450.471 468.204 450.862 468.203 451.106 468.058ZM448.743 465.392L448.74 465.303L452.352 465.22L452.356 465.308L448.743 465.392Z" fill="#1A1A1A"/>
<path fill-rule="evenodd" clip-rule="evenodd" d="M171.424 238.619C171.441 238.472 171.515 237.096 171.645 234.491C171.678 233.839 170.927 233.268 169.865 233.136C169.793 233.127 169.758 233.122 169.758 233.122C168.476 233.068 167.334 233.608 167.119 234.37L166.02 238.259" fill="white"/>
<path d="M169.77 233.152L169.873 233.165C170.911 233.294 171.644 233.852 171.612 234.489C171.482 237.092 171.408 238.469 171.391 238.616C171.389 238.633 171.41 238.648 171.439 238.649C171.468 238.65 171.493 238.637 171.495 238.62C171.512 238.472 171.586 237.097 171.717 234.491C171.75 233.824 170.982 233.239 169.894 233.104L169.787 233.09L169.781 233.09C168.472 233.035 167.306 233.585 167.087 234.363L165.987 238.252C165.982 238.27 166.001 238.286 166.03 238.289C166.058 238.292 166.085 238.28 166.09 238.263L167.19 234.374C167.4 233.629 168.516 233.101 169.77 233.152Z" fill="#1A1A1A"/>
<path fill-rule="evenodd" clip-rule="evenodd" d="M172.276 238.277L172.838 235.652C172.892 235.399 172.595 235.168 172.175 235.135C172.142 235.133 172.11 235.131 172.077 235.131C171.556 235.131 171.095 235.333 170.933 235.63L169.494 238.279L172.276 238.277Z" fill="white"/>
<path d="M172.323 238.289C172.349 238.289 172.371 238.277 172.375 238.262L172.936 235.636C172.994 235.366 172.677 235.119 172.228 235.085C172.193 235.082 172.158 235.081 172.123 235.081C171.58 235.081 171.099 235.291 170.93 235.601L169.491 238.25C169.48 238.27 169.505 238.291 169.541 238.291L172.323 238.289ZM172.277 238.226L169.613 238.228L171.03 235.62C171.184 235.336 171.626 235.144 172.123 235.144C172.154 235.144 172.184 235.145 172.215 235.147C172.606 235.177 172.883 235.393 172.833 235.628L172.277 238.226Z" fill="#1A1A1A"/>
<path fill-rule="evenodd" clip-rule="evenodd" d="M158.432 244.72L163.763 243.675C164.367 243.557 164.808 243.243 164.901 242.865L166.04 238.237H172.217L171.125 244.118C170.932 245.154 170.004 246.089 168.579 246.683L162.515 249.21L158.432 244.72Z" fill="#FD650B"/>
<path fill-rule="evenodd" clip-rule="evenodd" d="M171.239 243.587C170.006 243.993 169.11 244.454 168.552 244.972C167.994 245.49 167.517 246.266 167.121 247.301C167.463 247.151 167.753 247.025 167.994 246.923C168.977 246.506 169.733 246.126 170.192 245.685C170.821 245.084 171.17 244.384 171.239 243.587Z" fill="#883402"/>
<path d="M164.53 243.318C164.53 243.318 164.53 243.318 164.531 243.317C164.532 243.316 164.534 243.315 164.535 243.314C164.703 243.184 164.817 243.028 164.859 242.858L165.997 238.234C166.001 238.218 166.023 238.207 166.049 238.207H172.227C172.258 238.207 172.282 238.223 172.279 238.242L171.804 240.796C171.812 240.802 171.816 240.81 171.815 240.819C171.814 240.828 171.806 240.835 171.796 240.84L171.186 244.12C170.992 245.167 170.052 246.112 168.61 246.711L162.579 249.215C162.56 249.224 162.534 249.223 162.516 249.214C161.686 248.798 160.995 248.27 160.444 247.63C159.894 246.993 159.276 246.005 158.59 244.667C158.582 244.65 158.597 244.633 158.624 244.627L163.747 243.645C164.062 243.584 164.333 243.469 164.53 243.318ZM160.345 244.364L158.706 244.678C159.384 245.998 159.994 246.972 160.537 247.601C161.075 248.226 161.747 248.742 162.552 249.15L164.089 248.512L160.345 244.364ZM160.446 244.344L164.176 248.476L168.551 246.659C169.968 246.07 170.891 245.142 171.082 244.113L171.69 240.843L165.546 240.511C165.545 240.511 165.544 240.511 165.543 240.511L164.962 242.867C164.921 243.038 164.81 243.195 164.648 243.329L168.303 244.905C168.327 244.915 168.332 244.934 168.315 244.949C168.299 244.963 168.266 244.966 168.242 244.956L164.583 243.378C164.376 243.528 164.1 243.643 163.779 243.705L160.446 244.344ZM165.558 240.449L171.701 240.781L172.168 238.27H166.094L165.558 240.449Z" fill="#1A1A1A"/>
<path fill-rule="evenodd" clip-rule="evenodd" d="M148.833 245.371C148.833 245.371 147.205 245.881 143.947 246.902L145.333 248.432L149.531 246.733C149.066 245.825 148.833 245.371 148.833 245.371Z" fill="#883402"/>
<path fill-rule="evenodd" clip-rule="evenodd" d="M181.221 252.316L180.209 247.364L180.732 247.217L182.896 245.287L183.28 245.224C183.419 245.204 183.524 245.204 183.594 245.224C183.665 245.244 183.758 245.3 183.873 245.392V251.267C183.796 251.378 183.727 251.455 183.664 251.498C183.601 251.54 183.496 251.582 183.35 251.624L181.221 252.316ZM171.902 256.68L178.534 255.212L178.848 255.757L183.175 256.429L183.35 256.617C183.31 256.756 183.264 256.854 183.21 256.911C183.157 256.968 183.052 257.031 182.896 257.1L173.857 258.38C173.67 258.391 173.519 258.377 173.403 258.338C173.288 258.299 173.171 258.222 173.054 258.107L171.902 256.68Z" fill="white"/>
<path d="M148.783 245.345L143.897 246.876C143.871 246.884 143.862 246.904 143.876 246.919L145.262 248.449C145.276 248.466 145.311 248.471 145.337 248.46L149.535 246.761C149.554 246.753 149.562 246.739 149.556 246.725L148.858 245.363C148.848 245.345 148.812 245.336 148.783 245.345ZM149.444 246.722L145.326 248.389L143.993 246.917L148.776 245.418L149.444 246.722Z" fill="#1A1A1A"/>
<path fill-rule="evenodd" clip-rule="evenodd" d="M163.806 250.574V250.639L159.025 245.077L152.254 246.797C152.38 249.282 152.958 250.932 153.989 251.749C155.02 252.566 156.849 252.825 159.478 252.526H163.283L163.806 250.574Z" fill="#FD650B"/>
<path d="M163.868 250.574V250.639C163.868 250.651 163.858 250.66 163.844 250.665L163.344 252.531C163.34 252.546 163.318 252.557 163.292 252.557H159.493C156.849 252.858 155.001 252.596 153.957 251.768C152.918 250.944 152.338 249.289 152.211 246.798C152.21 246.785 152.223 246.774 152.243 246.768L159.014 245.048C159.039 245.042 159.068 245.048 159.081 245.062L163.794 250.545C163.825 250.538 163.868 250.548 163.868 250.574ZM163.854 250.627L163.857 250.618L163.849 250.609C163.854 250.615 163.855 250.621 163.854 250.627ZM159.01 245.117L152.317 246.818C152.445 249.284 153.021 250.922 154.04 251.73C155.057 252.536 156.867 252.792 159.478 252.495L159.488 252.494H163.247L163.748 250.629L159.01 245.117Z" fill="#1A1A1A"/>
<path fill-rule="evenodd" clip-rule="evenodd" d="M162.55 249.21L162.899 249.609C161.826 250.118 160.977 250.474 160.351 250.679C159.725 250.884 159.039 251.073 158.292 251.246L157.873 250.805C158.554 250.628 159.205 250.433 159.827 250.218C160.45 250.003 161.357 249.667 162.55 249.21Z" fill="#883402"/>
<path fill-rule="evenodd" clip-rule="evenodd" d="M164.608 257.75L181.151 252.358L180.243 247.385L163.84 252.232" fill="#883402"/>
<path d="M162.519 249.163C161.292 249.661 160.339 250.024 159.661 250.253C158.984 250.482 158.347 250.656 157.751 250.775C157.723 250.781 157.708 250.799 157.718 250.815C157.727 250.832 157.756 250.84 157.784 250.835C158.387 250.714 159.03 250.539 159.712 250.308C160.394 250.078 161.349 249.714 162.578 249.216C162.602 249.206 162.608 249.186 162.592 249.172C162.576 249.157 162.543 249.154 162.519 249.163Z" fill="#1A1A1A"/>
<path d="M162.892 249.584C161.753 250.103 160.758 250.501 159.907 250.777C159.06 251.052 158.483 251.198 158.182 251.214C158.154 251.216 158.132 251.231 158.135 251.249C158.138 251.266 158.163 251.279 158.192 251.277C158.512 251.26 159.097 251.112 159.957 250.833C160.813 250.555 161.812 250.155 162.955 249.634C162.978 249.624 162.983 249.604 162.965 249.59C162.948 249.576 162.915 249.574 162.892 249.584Z" fill="#1A1A1A"/>
<path d="M181.113 252.33C181.112 252.327 181.11 252.324 181.11 252.321L180.203 247.413L163.839 252.26C163.813 252.268 163.782 252.262 163.769 252.246C163.756 252.23 163.767 252.212 163.793 252.204L180.638 247.214L182.792 245.304C182.868 245.237 182.995 245.197 183.13 245.198C183.178 245.198 183.224 245.204 183.266 245.213C183.269 245.211 183.274 245.207 183.281 245.203C183.304 245.189 183.331 245.18 183.362 245.176C183.394 245.173 183.426 245.171 183.458 245.171C183.729 245.17 183.949 245.302 183.949 245.465L183.964 251.101C183.965 251.344 183.764 251.582 183.378 251.641L183.378 251.645C183.378 251.656 183.367 251.667 183.351 251.672L164.609 257.778C164.583 257.786 164.552 257.781 164.538 257.765C164.524 257.75 164.533 257.731 164.559 257.723L181.113 252.33ZM181.211 252.298L183.274 251.626L183.421 245.442C183.424 245.343 183.293 245.262 183.129 245.261C183.029 245.26 182.935 245.289 182.879 245.339L180.717 247.256C180.711 247.26 180.704 247.264 180.696 247.267L180.293 247.386C180.3 247.391 180.305 247.397 180.306 247.404L181.211 252.298ZM183.374 245.25C183.468 245.295 183.528 245.365 183.526 245.443L183.38 251.575C183.701 251.517 183.86 251.309 183.859 251.101L183.845 245.465C183.844 245.337 183.671 245.233 183.458 245.234C183.433 245.234 183.408 245.235 183.383 245.238C183.38 245.243 183.377 245.247 183.374 245.25Z" fill="#1A1A1A"/>
<path fill-rule="evenodd" clip-rule="evenodd" d="M151.416 251.583L151.949 253.325L155.928 257.546C156.974 258.657 159.206 259.148 161.198 258.707L162.593 258.398C163.934 258.1 165.091 257.562 165.908 256.857L169.511 253.743L171.903 256.68L178.534 255.211L173.872 248.583C173.361 247.857 172.177 247.385 170.866 247.385C169.48 247.385 168.15 247.715 167.169 248.303L160.919 252.045" fill="#FD650B"/>
<path fill-rule="evenodd" clip-rule="evenodd" d="M166.912 248.455C168.029 248.973 169.192 249.343 170.402 249.567C171.612 249.791 172.95 249.742 174.416 249.42C174.089 248.769 173.728 248.314 173.334 248.056C172.864 247.75 171.989 247.476 171.484 247.406C170.822 247.314 169.598 247.421 168.622 247.7C168.153 247.834 167.583 248.086 166.912 248.455Z" fill="#883402"/>
<path d="M183.333 256.55L183.352 256.547L183.353 256.549C183.462 256.82 183.184 257.093 182.733 257.158L174.015 258.422C173.621 258.479 173.214 258.37 173.021 258.158C173.004 258.156 172.99 258.15 172.982 258.14L169.503 253.803L165.95 256.873C165.128 257.584 163.962 258.126 162.61 258.426L161.216 258.735C159.199 259.182 156.941 258.684 155.882 257.56L151.903 253.339C151.901 253.336 151.899 253.332 151.898 253.329L151.364 251.587C151.359 251.57 151.378 251.554 151.406 251.551C151.435 251.547 151.462 251.559 151.467 251.576L151.999 253.312L155.973 257.529C157.007 258.627 159.211 259.112 161.18 258.676L162.574 258.367C163.905 258.071 165.054 257.538 165.864 256.837L169.468 253.723C169.491 253.703 169.541 253.706 169.558 253.728L171.9 256.647L178.457 255.195L174.522 249.591C172.194 250.273 169.591 249.946 166.721 248.613L160.955 252.065C160.935 252.078 160.902 252.078 160.881 252.065C160.861 252.053 160.861 252.033 160.882 252.021L167.131 248.279C168.123 247.685 169.466 247.352 170.865 247.352C172.198 247.352 173.401 247.832 173.919 248.57L178.564 255.186C178.572 255.189 178.579 255.194 178.583 255.201C178.586 255.206 178.587 255.211 178.585 255.216L178.931 255.708L183.031 256.33C183.177 256.352 183.291 256.422 183.324 256.511C183.329 256.524 183.332 256.537 183.333 256.55ZM183.27 256.695C183.215 256.746 183.128 256.785 183.021 256.8L173.13 258.145C173.307 258.321 173.654 258.409 173.99 258.36L182.709 257.097C183.03 257.05 183.251 256.883 183.27 256.695ZM171.946 256.704L173.058 258.09L182.998 256.738C183.158 256.716 183.258 256.621 183.222 256.525C183.197 256.459 183.114 256.408 183.005 256.391L178.88 255.765C178.864 255.763 178.851 255.756 178.844 255.747L178.498 255.253L171.946 256.704ZM174.481 249.533L173.822 248.594C173.321 247.88 172.156 247.415 170.865 247.415C169.493 247.415 168.177 247.742 167.205 248.324L166.796 248.569C169.635 249.885 172.195 250.205 174.481 249.533Z" fill="#1A1A1A"/>
<path fill-rule="evenodd" clip-rule="evenodd" d="M154.837 244.657L141.783 249.669C138.813 250.809 137.723 253.101 139.239 255.013L140.176 256.193C141.835 258.285 146.001 259.171 149.481 258.174C149.667 258.12 149.849 258.062 150.026 257.999L155.998 255.878C157.11 255.483 158.018 254.911 158.621 254.224L158.693 254.141C159.318 253.43 159.338 252.581 158.746 251.859L157.28 250.071C155.104 251.046 153.929 251.718 153.755 252.085C153.6 252.413 151.826 253.088 148.432 254.11C147.696 254.332 146.8 254.177 146.373 253.753C146.031 253.413 146.212 252.97 146.777 252.765C146.842 252.741 146.91 252.721 146.981 252.705L153.336 251.288" fill="#FD650B"/>
<path fill-rule="evenodd" clip-rule="evenodd" d="M139.061 254.813C139.235 255.107 139.993 256.026 140.282 256.324C140.587 256.637 140.911 256.932 141.329 257.226C141.744 257.517 142.302 257.804 143.144 258.065C143.426 258.152 143.728 258.243 144.052 258.338C143.834 257.235 143.59 256.466 143.319 256.03C143.099 255.677 142.875 255.322 142.551 255.044C141.736 254.344 140.42 253.637 138.602 252.923C138.443 253.4 138.595 254.03 139.061 254.813Z" fill="#883402"/>
<path fill-rule="evenodd" clip-rule="evenodd" d="M153.999 251.686L154.069 252.232C154.908 253.188 155.425 253.765 155.618 253.963C155.821 254.171 156.223 254.686 156.826 255.505C157.501 255.154 158.036 254.79 158.431 254.414C158.826 254.038 159.071 253.661 159.164 253.281C159.257 252.778 159.025 252.211 158.466 251.582C158.188 251.268 157.78 250.743 157.245 250.008C155.726 250.491 154.667 250.89 154.069 251.204C153.47 251.518 153.447 251.679 153.999 251.686Z" fill="white"/>
<path d="M158.674 251.854C159.258 252.567 159.239 253.405 158.622 254.107L158.549 254.19C157.951 254.872 157.049 255.44 155.946 255.832L149.952 257.96C149.783 258.021 149.609 258.076 149.432 258.128C145.984 259.125 141.844 258.253 140.186 256.18L139.284 255.053C137.777 253.169 138.826 250.905 141.737 249.761L154.656 244.684C154.68 244.674 154.687 244.655 154.671 244.64C154.655 244.625 154.623 244.621 154.598 244.631L141.679 249.709C138.725 250.87 137.66 253.168 139.19 255.08L140.091 256.207C141.775 258.311 145.977 259.197 149.477 258.184C149.657 258.132 149.834 258.076 150.006 258.015L155.999 255.886C157.119 255.488 158.034 254.911 158.642 254.219L158.714 254.137C159.347 253.416 159.367 252.557 158.767 251.826L157.301 250.038C157.289 250.022 157.259 250.016 157.233 250.023C155.497 250.491 154.432 250.841 154.032 251.076C153.849 251.184 153.747 251.32 153.706 251.485C153.68 251.588 153.678 251.677 153.689 251.836C153.698 251.976 153.697 252.019 153.679 252.057C153.53 252.371 151.754 253.047 148.383 254.063C147.671 254.277 146.805 254.127 146.393 253.718C146.07 253.397 146.24 252.981 146.773 252.787C146.839 252.763 146.908 252.743 146.98 252.728L153.597 251.317C153.625 251.312 153.639 251.294 153.629 251.277C153.62 251.261 153.59 251.252 153.562 251.258L146.945 252.668C146.866 252.685 146.79 252.707 146.719 252.733C146.137 252.945 145.951 253.4 146.303 253.75C146.744 254.188 147.669 254.348 148.43 254.119C151.846 253.09 153.618 252.416 153.78 252.074C153.803 252.026 153.803 251.983 153.793 251.833C153.783 251.678 153.785 251.592 153.809 251.495C153.848 251.342 153.94 251.219 154.105 251.121C154.49 250.895 155.533 250.551 157.23 250.093L158.674 251.854Z" fill="#1A1A1A"/>
<path fill-rule="evenodd" clip-rule="evenodd" d="M159.034 245.073C157.814 243.444 157.081 242.362 156.835 241.826C156.037 240.091 155.479 238.577 152.497 238.577C149.515 238.577 147.098 240.031 147.098 241.824C147.098 242.334 147.831 243.972 149.296 246.736C151.458 246.731 153.207 246.666 154.543 246.542C155.88 246.418 157.376 245.928 159.034 245.073Z" fill="#FD650B" stroke="#1A1A1A" stroke-width="0.877811" stroke-linecap="round" stroke-linejoin="round"/>
<path fill-rule="evenodd" clip-rule="evenodd" d="M159.024 245.068C157.804 243.439 157.072 242.357 156.825 241.822C156.027 240.086 155.47 238.573 152.488 238.573C149.505 238.573 147.088 240.026 147.088 241.819C147.088 242.33 147.821 243.967 149.287 246.731C151.449 246.726 153.198 246.662 154.534 246.537C155.87 246.413 157.367 245.923 159.024 245.068Z" fill="#FD650B"/>
<path d="M159.076 245.099L159.11 245.123C159.128 245.114 159.134 245.099 159.124 245.086L159.076 245.099ZM156.878 241.853L156.827 241.861L156.878 241.853ZM149.339 246.763L149.289 246.772C149.296 246.786 149.316 246.794 149.339 246.794L149.339 246.763ZM154.586 246.569L154.578 246.538L154.586 246.569ZM159.124 245.086C157.904 243.457 157.173 242.377 156.928 241.845L156.827 241.861C157.075 242.4 157.809 243.484 159.029 245.112L159.124 245.086ZM156.928 241.845C156.53 240.979 156.189 240.161 155.572 239.561C155.263 239.26 154.883 239.013 154.39 238.84C153.896 238.668 153.293 238.573 152.54 238.573V238.635C153.278 238.635 153.862 238.729 154.337 238.895C154.812 239.061 155.181 239.3 155.483 239.594C156.09 240.185 156.427 240.992 156.827 241.861L156.928 241.845ZM152.54 238.573C149.529 238.573 147.088 240.04 147.088 241.85H147.193C147.193 240.075 149.587 238.635 152.54 238.635V238.573ZM147.088 241.85C147.088 241.981 147.135 242.182 147.226 242.451C147.318 242.72 147.456 243.06 147.639 243.47C148.006 244.289 148.556 245.39 149.289 246.772L149.389 246.753C148.656 245.371 148.107 244.271 147.74 243.453C147.557 243.044 147.42 242.706 147.329 242.438C147.237 242.17 147.193 241.975 147.193 241.85H147.088ZM149.339 246.794C151.502 246.789 153.254 246.724 154.594 246.6L154.578 246.538C153.246 246.662 151.499 246.726 149.339 246.731L149.339 246.794ZM154.594 246.6C155.944 246.474 157.45 245.98 159.11 245.123L159.042 245.075C157.388 245.929 155.9 246.415 154.578 246.538L154.594 246.6Z" fill="#1A1A1A"/>
<path d="M159.071 245.055C157.853 243.428 157.121 242.346 156.875 241.813C156.843 241.743 156.701 241.432 156.663 241.349C156.193 240.329 155.868 239.809 155.344 239.372C154.684 238.82 153.78 238.541 152.487 238.541C149.476 238.541 147.035 240.009 147.035 241.819C147.035 242.334 147.768 243.972 149.236 246.741C149.243 246.754 149.264 246.763 149.286 246.763C151.451 246.758 153.202 246.693 154.541 246.568C155.889 246.443 157.394 245.951 159.058 245.092C159.075 245.083 159.081 245.068 159.071 245.055ZM154.525 246.506C153.2 246.629 151.466 246.694 149.324 246.7C147.869 243.953 147.14 242.323 147.14 241.819C147.14 240.043 149.534 238.604 152.487 238.604C153.746 238.604 154.618 238.873 155.259 239.409C155.773 239.838 156.095 240.353 156.562 241.365C156.6 241.448 156.742 241.76 156.774 241.83C157.021 242.365 157.749 243.441 158.96 245.059C157.321 245.902 155.843 246.384 154.525 246.506Z" fill="#1A1A1A"/>
<path d="M149.963 243.313C149.963 243.313 152.878 244.001 157.308 243.065C157.385 243.049 157.468 243.02 157.559 242.979C157.33 242.703 157.19 242.514 157.14 242.412C156.936 241.996 156.917 241.732 156.687 241.468C156.538 241.297 156.485 241.006 156.338 240.734C156.258 240.587 156.107 240.356 155.884 240.041C155.663 239.777 155.511 239.602 155.43 239.517C155.306 239.386 155.306 239.258 155.144 239.272C154.268 239.348 153.324 239.69 152.311 240.296C149.958 241.705 149.963 243.313 149.963 243.313Z" fill="#1A1A1A"/>
<path fill-rule="evenodd" clip-rule="evenodd" d="M151.834 240.608C152.078 240.44 152.213 240.335 152.427 240.209C152.641 240.083 152.916 239.936 153.405 239.726C153.66 240.132 153.916 240.573 154.242 241.174C154.731 242.076 153.957 242.219 153.021 241.615C152.396 241.212 152.024 240.89 151.834 240.608ZM154.602 240.555C154.776 240.563 154.871 241.017 154.924 241.095C154.954 241.138 154.92 241.188 154.847 241.206C154.781 241.222 154.705 241.206 154.67 241.169C154.466 240.951 154.365 240.821 154.367 240.777C154.37 240.667 154.428 240.548 154.602 240.555Z" fill="white"/>
<path d="M153.625 251.204C155.977 251.204 157.883 250.058 157.883 248.644C157.883 247.23 155.977 246.084 153.625 246.084C151.273 246.084 149.367 247.23 149.367 248.644C149.367 250.058 151.273 251.204 153.625 251.204Z" fill="#1A1A1A"/>
<path d="M150.011 243.098C149.643 242.116 150.184 241.182 151.638 240.294C153.092 239.406 154.12 238.975 154.703 239.002C154.732 239.004 154.695 239.009 154.697 238.992C154.699 238.975 154.691 238.972 154.662 238.971C154.645 238.97 154.677 238.938 154.66 238.938C154.028 238.934 153.001 239.372 151.563 240.25C150.086 241.152 149.533 242.107 149.909 243.111C149.916 243.128 149.944 243.139 149.972 243.135C150 243.131 150.018 243.115 150.011 243.098Z" fill="#1A1A1A"/>
<path fill-rule="evenodd" clip-rule="evenodd" d="M150.867 250.637L152.438 248.223L156.377 247.536C156.525 247.511 156.68 247.562 156.723 247.651C156.748 247.705 156.728 247.762 156.669 247.805L154.427 249.42L154.243 251.204L150.867 250.637Z" fill="white"/>
<path fill-rule="evenodd" clip-rule="evenodd" d="M152.431 248.224C151.895 248.576 151.554 248.808 151.409 248.918C150.644 249.5 150.673 249.72 151.034 249.861C151.732 250.134 152.456 250.681 152.944 250.177C153.27 249.842 153.099 249.191 152.431 248.224Z" fill="#FD650B"/>
<path d="M152.4 248.202C152.426 248.185 152.472 248.19 152.487 248.211C153.161 249.186 153.334 249.844 152.997 250.192C152.805 250.39 152.56 250.449 152.261 250.392C152.044 250.35 151.88 250.283 151.444 250.077C151.34 250.028 151.279 250 151.214 249.97C151.141 249.938 151.076 249.91 151.014 249.886C150.575 249.714 150.655 249.445 151.375 248.897C151.522 248.786 151.863 248.554 152.4 248.202ZM152.907 250.16C153.216 249.841 153.058 249.213 152.422 248.281C151.919 248.611 151.597 248.83 151.458 248.936C150.77 249.459 150.702 249.689 151.071 249.833C151.135 249.858 151.202 249.887 151.276 249.92C151.343 249.949 151.404 249.978 151.509 250.028C151.933 250.228 152.093 250.294 152.292 250.332C152.545 250.38 152.739 250.333 152.907 250.16ZM154.549 249.339C154.566 249.325 154.599 249.322 154.622 249.332C154.646 249.342 154.652 249.361 154.635 249.375C154.433 249.551 154.246 249.641 154.069 249.641C154.04 249.641 154.017 249.627 154.017 249.609C154.017 249.592 154.04 249.578 154.069 249.578C154.202 249.578 154.364 249.5 154.549 249.339Z" fill="#1A1A1A"/>
<path d="M149.775 243.692C150.065 243.692 150.299 243.551 150.299 243.377C150.299 243.204 150.065 243.063 149.775 243.063C149.486 243.063 149.252 243.204 149.252 243.377C149.252 243.551 149.486 243.692 149.775 243.692Z" fill="white"/>
<path d="M149.752 243.724C150.07 243.724 150.328 243.569 150.328 243.377C150.328 243.186 150.07 243.031 149.752 243.031C149.434 243.031 149.176 243.186 149.176 243.377C149.176 243.569 149.434 243.724 149.752 243.724ZM149.752 243.661C149.491 243.661 149.28 243.534 149.28 243.377C149.28 243.221 149.491 243.094 149.752 243.094C150.012 243.094 150.223 243.221 150.223 243.377C150.223 243.534 150.012 243.661 149.752 243.661Z" fill="#1A1A1A"/>
<path d="M149.751 243.556C149.933 243.556 150.083 243.477 150.083 243.377C150.083 243.278 149.933 243.199 149.751 243.199C149.57 243.199 149.42 243.278 149.42 243.377C149.42 243.477 149.57 243.556 149.751 243.556ZM149.751 243.493C149.625 243.493 149.525 243.44 149.525 243.377C149.525 243.315 149.625 243.262 149.751 243.262C149.878 243.262 149.978 243.315 149.978 243.377C149.978 243.44 149.878 243.493 149.751 243.493Z" fill="#1A1A1A"/>
<path fill-rule="evenodd" clip-rule="evenodd" d="M154.242 251.057L154.043 252.232L151.076 253.281L148.728 254.015L147.576 253.092C148.539 253.059 149.086 252.968 149.217 252.819C149.603 252.38 150.15 251.66 150.857 250.658L154.242 251.057Z" fill="white"/>
<path d="M154.254 251.005C154.28 251.008 154.299 251.023 154.296 251.039L154.096 252.214C154.095 252.224 154.085 252.233 154.071 252.238L151.102 253.288L148.754 254.022C148.731 254.029 148.703 254.026 148.688 254.013L147.536 253.09C147.511 253.07 147.533 253.041 147.575 253.04C148.518 253.007 149.054 252.918 149.172 252.784C149.558 252.346 150.104 251.626 150.81 250.625C150.82 250.611 150.844 250.603 150.869 250.606L154.254 251.005ZM150.89 250.673C150.191 251.663 149.649 252.377 149.264 252.813C149.126 252.97 148.6 253.062 147.678 253.099L148.745 253.954L151.051 253.233L153.995 252.192L154.187 251.061L150.89 250.673ZM154.018 252.184L153.992 252.208L153.995 252.192L154.018 252.184Z" fill="#1A1A1A"/>
<path fill-rule="evenodd" clip-rule="evenodd" d="M141.503 242.475C141.156 242.475 140.875 242.306 140.875 242.097C140.875 241.889 141.156 241.72 141.503 241.72C141.85 241.72 142.131 241.889 142.131 242.097C142.131 242.306 141.85 242.475 141.503 242.475ZM147.646 243.419L147.81 243.797C147.771 243.805 147.732 243.814 147.693 243.823C146.59 244.092 146.057 244.847 146.504 245.511L146.833 246L146.205 246.21L145.833 245.483C145.432 244.698 146.06 243.856 147.301 243.514L147.646 243.419Z" fill="white"/>
<path d="M142.953 243.865C142.954 243.858 142.953 243.851 142.948 243.846L141.761 242.44C141.748 242.424 141.717 242.418 141.691 242.426C141.665 242.434 141.655 242.453 141.668 242.468L142.847 243.865L142.71 244.422C142.706 244.436 142.719 244.45 142.741 244.455L143.698 244.696L145.263 246.444C145.277 246.46 145.309 246.465 145.334 246.457C145.36 246.449 145.369 246.43 145.355 246.415L143.782 244.657C143.776 244.65 143.767 244.645 143.756 244.643L142.819 244.407L142.953 243.865Z" fill="#1A1A1A"/>
<path d="M141.479 242.507C141.104 242.507 140.799 242.323 140.799 242.097C140.799 241.871 141.104 241.688 141.479 241.688C141.855 241.688 142.16 241.871 142.16 242.097C142.16 242.323 141.855 242.507 141.479 242.507ZM141.479 242.444C141.797 242.444 142.055 242.289 142.055 242.097C142.055 241.906 141.797 241.751 141.479 241.751C141.161 241.751 140.904 241.906 140.904 242.097C140.904 242.289 141.161 242.444 141.479 242.444ZM147.6 243.391C147.63 243.383 147.664 243.392 147.673 243.411L147.837 243.789C147.844 243.805 147.829 243.821 147.803 243.827C147.765 243.835 147.727 243.843 147.689 243.852C146.612 244.114 146.093 244.852 146.528 245.499L146.858 245.988C146.868 246.003 146.858 246.02 146.835 246.028L146.207 246.237C146.177 246.247 146.141 246.238 146.131 246.219L145.759 245.492C145.351 244.692 145.991 243.834 147.256 243.486L147.6 243.391ZM147.299 243.543C146.082 243.878 145.466 244.704 145.86 245.473L146.212 246.164L146.743 245.986L146.431 245.523C145.974 244.843 146.519 244.069 147.65 243.794C147.674 243.788 147.699 243.782 147.724 243.777L147.587 243.464L147.299 243.543Z" fill="#1A1A1A"/>
<path d="M142.809 254.827C143.723 255.576 144.305 256.773 144.558 258.419L144.454 258.425C144.199 256.766 143.608 255.568 142.684 254.832C141.929 254.23 141.119 253.735 140.284 253.336C139.671 253.042 139.098 252.825 138.596 252.674L138.643 252.617C139.151 252.771 139.731 252.99 140.349 253.286C141.182 253.685 141.991 254.178 142.745 254.776L146.261 253.631C146.287 253.623 146.318 253.629 146.332 253.644C146.346 253.659 146.337 253.678 146.311 253.687L142.809 254.827ZM147.803 254.232C147.789 254.216 147.799 254.197 147.824 254.189C147.849 254.181 147.881 254.186 147.895 254.202L151.009 257.63C151.023 257.646 151.013 257.665 150.988 257.673C150.963 257.682 150.931 257.676 150.917 257.661L147.803 254.232ZM146.661 252.785C146.674 252.8 146.663 252.819 146.637 252.827C146.611 252.834 146.579 252.828 146.567 252.812L143.482 249.036C143.469 249.02 143.48 249.001 143.506 248.993C143.532 248.986 143.563 248.992 143.576 249.008L146.661 252.785Z" fill="#1A1A1A"/>
<path d="M149.422 246.773C149.409 246.758 149.377 246.751 149.352 246.759C149.326 246.767 149.315 246.785 149.328 246.801L149.422 246.773ZM150.873 248.689C150.886 248.705 150.917 248.711 150.943 248.704C150.969 248.696 150.98 248.677 150.967 248.662L150.873 248.689ZM149.328 246.801L150.873 248.689L150.967 248.662L149.422 246.773L149.328 246.801Z" fill="#1A1A1A"/>
<path d="M154.16 252.239C154.146 252.223 154.115 252.217 154.089 252.225C154.063 252.233 154.053 252.252 154.066 252.267L154.16 252.239ZM156.831 255.536C156.844 255.552 156.876 255.558 156.901 255.55C156.927 255.542 156.937 255.523 156.924 255.508L156.831 255.536ZM154.066 252.267L156.831 255.536L156.924 255.508L154.16 252.239L154.066 252.267Z" fill="#1A1A1A"/>
<path fill-rule="evenodd" clip-rule="evenodd" d="M154.291 248.203C153.951 248.056 153.674 248.02 153.458 248.093C153.135 248.203 152.719 248.422 152.95 248.696C153.181 248.97 153.366 249.189 153.597 249.189C153.828 249.189 154.244 249.216 154.475 248.915C154.63 248.714 154.568 248.476 154.291 248.203Z" fill="#FD650B"/>
<path fill-rule="evenodd" clip-rule="evenodd" d="M154.27 248.329C154.247 248.477 154.164 248.573 154.024 248.616C153.901 248.653 153.708 248.675 153.446 248.681C153.331 248.684 153.233 248.63 153.229 248.561C153.227 248.537 153.237 248.513 153.257 248.493C153.401 248.343 153.528 248.251 153.64 248.217C153.756 248.182 153.909 248.173 154.097 248.192C154.205 248.203 154.281 248.263 154.27 248.329Z" fill="white"/>
<path d="M154.183 248.378C154.148 248.411 154.078 248.434 153.998 248.434C153.882 248.434 153.788 248.387 153.788 248.329C153.788 248.273 153.878 248.226 153.99 248.224C153.846 248.215 153.728 248.225 153.638 248.252C153.538 248.283 153.415 248.371 153.276 248.515C153.261 248.531 153.254 248.549 153.255 248.566C153.259 248.618 153.332 248.659 153.418 248.657C153.673 248.651 153.859 248.63 153.974 248.595C154.082 248.562 154.153 248.491 154.183 248.378ZM154.085 248.234C154.102 248.237 154.118 248.242 154.132 248.249C154.118 248.243 154.102 248.238 154.085 248.234ZM154.297 248.339C154.271 248.497 154.181 248.602 154.021 248.651C153.89 248.691 153.691 248.714 153.422 248.72C153.278 248.723 153.156 248.656 153.151 248.569C153.149 248.539 153.161 248.51 153.186 248.484C153.334 248.329 153.467 248.234 153.59 248.196C153.718 248.157 153.882 248.148 154.08 248.168C154.215 248.182 154.31 248.256 154.297 248.339Z" fill="#1A1A1A"/>
<path fill-rule="evenodd" clip-rule="evenodd" d="M156.478 247.522C156.314 247.497 156.142 247.514 155.961 247.573V247.573C155.927 247.583 155.914 247.609 155.932 247.629C155.936 247.634 155.941 247.638 155.947 247.641C156.016 247.678 156.1 247.699 156.198 247.704C156.329 247.711 156.48 247.711 156.652 247.704C156.722 247.611 156.664 247.55 156.478 247.522Z" fill="#FD650B"/>
<path d="M156.525 247.487C156.348 247.46 156.163 247.478 155.971 247.54C155.911 247.559 155.889 247.604 155.921 247.64C155.927 247.647 155.936 247.654 155.947 247.66C156.025 247.701 156.119 247.725 156.229 247.731C156.362 247.738 156.516 247.738 156.69 247.731C156.71 247.73 156.727 247.723 156.735 247.713C156.819 247.6 156.741 247.519 156.525 247.487ZM156.238 247.668C156.15 247.664 156.077 247.645 156.017 247.613C156.015 247.612 156.014 247.611 156.013 247.61C156.008 247.605 156.012 247.598 156.02 247.596C156.191 247.541 156.35 247.525 156.5 247.548C156.643 247.569 156.688 247.606 156.651 247.669C156.494 247.675 156.357 247.674 156.238 247.668Z" fill="#1A1A1A"/>
<path d="M173.09 256.743C173.379 256.743 173.613 256.602 173.613 256.429C173.613 256.255 173.379 256.114 173.09 256.114C172.801 256.114 172.566 256.255 172.566 256.429C172.566 256.602 172.801 256.743 173.09 256.743Z" fill="white"/>
<path d="M173.064 256.775C173.382 256.775 173.64 256.62 173.64 256.428C173.64 256.237 173.382 256.082 173.064 256.082C172.746 256.082 172.488 256.237 172.488 256.428C172.488 256.62 172.746 256.775 173.064 256.775ZM173.064 256.712C172.804 256.712 172.593 256.585 172.593 256.428C172.593 256.272 172.804 256.145 173.064 256.145C173.324 256.145 173.535 256.272 173.535 256.428C173.535 256.585 173.324 256.712 173.064 256.712Z" fill="#1A1A1A"/>
<path d="M180.977 251.749C181.266 251.749 181.5 251.608 181.5 251.435C181.5 251.261 181.266 251.12 180.977 251.12C180.688 251.12 180.453 251.261 180.453 251.435C180.453 251.608 180.688 251.749 180.977 251.749Z" fill="white"/>
<path d="M180.976 251.781C181.294 251.781 181.552 251.626 181.552 251.435C181.552 251.243 181.294 251.088 180.976 251.088C180.658 251.088 180.4 251.243 180.4 251.435C180.4 251.626 180.658 251.781 180.976 251.781ZM180.976 251.718C180.716 251.718 180.505 251.591 180.505 251.435C180.505 251.278 180.716 251.151 180.976 251.151C181.236 251.151 181.447 251.278 181.447 251.435C181.447 251.591 181.236 251.718 180.976 251.718Z" fill="#1A1A1A"/>
<path d="M173.064 256.607C173.246 256.607 173.396 256.528 173.396 256.428C173.396 256.329 173.246 256.25 173.064 256.25C172.882 256.25 172.732 256.329 172.732 256.428C172.732 256.528 172.882 256.607 173.064 256.607ZM173.064 256.544C172.937 256.544 172.837 256.491 172.837 256.428C172.837 256.366 172.937 256.313 173.064 256.313C173.191 256.313 173.291 256.366 173.291 256.428C173.291 256.491 173.191 256.544 173.064 256.544Z" fill="#1A1A1A"/>
<path d="M180.976 251.613C181.158 251.613 181.308 251.534 181.308 251.435C181.308 251.335 181.158 251.256 180.976 251.256C180.794 251.256 180.645 251.335 180.645 251.435C180.645 251.534 180.794 251.613 180.976 251.613ZM180.976 251.55C180.849 251.55 180.749 251.497 180.749 251.435C180.749 251.372 180.849 251.319 180.976 251.319C181.103 251.319 181.203 251.372 181.203 251.435C181.203 251.497 181.103 251.55 180.976 251.55Z" fill="#1A1A1A"/>
<path d="M150.24 243.401C150.788 243.702 151.985 243.836 153.836 243.808C155.683 243.779 156.995 243.61 157.773 243.299C157.797 243.289 157.803 243.269 157.787 243.255C157.771 243.241 157.739 243.237 157.715 243.246C156.957 243.55 155.663 243.717 153.834 243.745C152.008 243.772 150.832 243.641 150.31 243.354C150.289 243.342 150.256 243.343 150.236 243.356C150.217 243.369 150.218 243.389 150.24 243.401Z" fill="#1A1A1A"/>
<path d="M171.211 243.351C169.768 243.897 168.774 244.417 168.229 244.913C167.685 245.408 167.194 246.243 166.756 247.42L166.858 247.434C167.294 246.264 167.78 245.435 168.316 244.948C168.852 244.461 169.836 243.946 171.267 243.404L171.211 243.351Z" fill="#1A1A1A"/>
<path fill-rule="evenodd" clip-rule="evenodd" d="M150.989 250.471C151.551 250.592 152.072 250.683 152.551 250.746C153.019 250.807 153.569 250.86 154.201 250.904C154.335 250.914 154.431 250.987 154.415 251.067C154.414 251.073 154.412 251.08 154.409 251.086L154.403 251.102C154.368 251.186 154.234 251.24 154.092 251.228C153.505 251.178 152.956 251.122 152.446 251.06C151.928 250.998 151.406 250.891 150.879 250.738C150.764 250.705 150.704 250.628 150.735 250.553C150.761 250.491 150.866 250.452 150.971 250.468C150.977 250.469 150.983 250.47 150.989 250.471Z" fill="white"/>
<path d="M153.059 250.864C152.88 250.845 152.711 250.825 152.551 250.804C152.356 250.779 152.153 250.746 151.941 250.705L151.866 250.902C152.077 250.94 152.285 250.971 152.489 250.996C152.651 251.015 152.817 251.034 152.987 251.052L153.059 250.864ZM153.162 250.875L153.09 251.063C153.422 251.098 153.768 251.131 154.13 251.162C154.218 251.17 154.302 251.136 154.323 251.084L154.33 251.067C154.332 251.064 154.333 251.06 154.334 251.057C154.342 251.011 154.288 250.969 154.211 250.964C153.832 250.937 153.483 250.907 153.162 250.875ZM151.841 250.686C151.569 250.632 151.284 250.565 150.985 250.487C150.978 250.485 150.972 250.484 150.965 250.483C150.896 250.473 150.826 250.498 150.808 250.539L150.797 250.566C150.777 250.616 150.819 250.667 150.897 250.688C151.193 250.765 151.483 250.83 151.766 250.883L151.841 250.686ZM151.027 250.429C151.591 250.577 152.106 250.682 152.573 250.743C153.041 250.804 153.591 250.857 154.223 250.901C154.357 250.911 154.453 250.984 154.437 251.064C154.436 251.07 154.434 251.076 154.432 251.083L154.425 251.099C154.39 251.183 154.256 251.237 154.115 251.225C153.527 251.174 152.978 251.119 152.468 251.057C151.953 250.995 151.415 250.891 150.856 250.745C150.73 250.713 150.663 250.63 150.696 250.551L150.707 250.524C150.738 250.449 150.865 250.403 150.99 250.422C151.003 250.424 151.015 250.426 151.027 250.429Z" fill="#1A1A1A"/>
<path fill-rule="evenodd" clip-rule="evenodd" d="M144.785 247.028L145.274 246.902L145.762 247.511L145.274 247.7L144.785 247.028ZM146.426 247.259C146.295 247.259 146.164 247.246 146.076 247.196C145.983 247.143 145.937 247.049 145.937 246.965C145.937 246.898 145.979 246.805 146.042 246.756C146.131 246.685 146.267 246.672 146.426 246.672C146.566 246.672 146.685 246.677 146.775 246.735C146.856 246.787 146.914 246.888 146.914 246.965C146.914 247.062 146.86 247.164 146.74 247.217C146.658 247.253 146.534 247.259 146.426 247.259Z" fill="#FD650B"/>
<path d="M144.75 247.012L145.333 246.862L145.864 247.522L145.284 247.746L144.75 247.012ZM145.331 247.653L145.729 247.499L145.282 246.943L144.888 247.045L145.331 247.653ZM146.459 247.291C146.292 247.291 146.164 247.27 146.074 247.219C145.975 247.162 145.918 247.064 145.918 246.965C145.918 246.888 145.966 246.79 146.034 246.736C146.126 246.664 146.255 246.64 146.459 246.64C146.654 246.64 146.757 246.655 146.847 246.713C146.936 246.771 147 246.878 147 246.965C147 247.08 146.932 247.186 146.805 247.242C146.723 247.279 146.614 247.291 146.459 247.291ZM146.459 247.228C146.593 247.228 146.684 247.218 146.742 247.192C146.84 247.149 146.896 247.062 146.896 246.965C146.896 246.894 146.841 246.801 146.77 246.756C146.706 246.715 146.627 246.703 146.459 246.703C146.285 246.703 146.184 246.722 146.117 246.775C146.064 246.816 146.023 246.901 146.023 246.965C146.023 247.048 146.07 247.13 146.146 247.173C146.213 247.211 146.317 247.228 146.459 247.228Z" fill="#1A1A1A"/>
<path d="M172.147 238.195H166.075C165.959 238.195 165.865 238.251 165.865 238.321C165.865 238.39 165.959 238.447 166.075 238.447H172.147C172.263 238.447 172.357 238.39 172.357 238.321C172.357 238.251 172.263 238.195 172.147 238.195Z" fill="white"/>
<path d="M166.075 238.195H172.147C172.263 238.195 172.357 238.251 172.357 238.321C172.357 238.39 172.263 238.447 172.147 238.447H166.075C165.959 238.447 165.865 238.39 165.865 238.321C165.865 238.251 165.959 238.195 166.075 238.195ZM166.075 238.258C166.017 238.258 165.97 238.286 165.97 238.321C165.97 238.355 166.017 238.384 166.075 238.384H172.147C172.205 238.384 172.252 238.355 172.252 238.321C172.252 238.286 172.205 238.258 172.147 238.258H166.075Z" fill="#1A1A1A"/>
<path d="M156.948 255.431L154.192 252.178C154.152 252.132 154.058 252.113 153.98 252.137C153.903 252.161 153.872 252.218 153.912 252.264L156.669 255.517C156.708 255.564 156.803 255.582 156.88 255.558C156.957 255.535 156.988 255.478 156.948 255.431Z" fill="white" stroke="#1A1A1A" stroke-width="0.877811"/>
<path fill-rule="evenodd" clip-rule="evenodd" d="M155.264 247.062C155.065 247.164 154.133 246.733 153.933 246.683C153.826 246.656 153.776 246.581 153.821 246.517C153.863 246.458 153.971 246.427 154.074 246.444C154.686 246.551 155.031 246.628 155.109 246.676C155.307 246.797 155.462 246.961 155.264 247.062Z" fill="white"/>
<path fill-rule="evenodd" clip-rule="evenodd" d="M159.954 249.923L162.039 249.129C162.072 249.117 162.115 249.122 162.135 249.142C162.136 249.143 162.136 249.143 162.137 249.144L162.935 249.973C162.953 249.993 162.943 250.017 162.912 250.03L160.864 250.824C160.832 250.836 160.789 250.831 160.768 250.811C160.768 250.811 160.767 250.811 160.767 250.81L159.932 249.98C159.912 249.961 159.922 249.935 159.954 249.923Z" fill="white"/>
<path d="M159.857 249.936L162.047 249.113C162.08 249.101 162.123 249.107 162.143 249.126L163.031 249.98C163.052 250 163.042 250.026 163.009 250.038L160.819 250.861C160.786 250.873 160.743 250.867 160.723 250.848L159.835 249.993C159.814 249.974 159.824 249.948 159.857 249.936ZM159.942 249.978L160.793 250.796L162.924 249.996L162.073 249.177L159.942 249.978Z" fill="#1A1A1A"/>
<path d="M160.384 249.949L161.805 249.415C161.838 249.403 161.881 249.409 161.901 249.428L162.493 249.998C162.514 250.017 162.504 250.043 162.471 250.055L161.05 250.589C161.017 250.601 160.974 250.595 160.954 250.576L160.362 250.006C160.342 249.987 160.352 249.961 160.384 249.949ZM161.024 250.525L162.386 250.013L161.831 249.479L160.469 249.991L161.024 250.525Z" fill="#1A1A1A"/>
<path d="M55.2631 3.80342V3.29021C55.2631 3.2685 55.2926 3.25073 55.3287 3.25073C55.3648 3.25073 55.3944 3.2685 55.3944 3.29021V3.80342H56.248C56.2841 3.80342 56.3137 3.82119 56.3137 3.8429C56.3137 3.86461 56.2841 3.88238 56.248 3.88238H55.3944V4.39559C55.3944 4.4173 55.3648 4.43506 55.3287 4.43506C55.2926 4.43506 55.2631 4.4173 55.2631 4.39559V3.88238H54.4094C54.3733 3.88238 54.3438 3.86461 54.3438 3.8429C54.3438 3.82119 54.3733 3.80342 54.4094 3.80342H55.2631Z" fill="#1A1A1A"/>
<path d="M1.87243 3.31172V2.79851C1.87243 2.7768 1.90198 2.75903 1.93809 2.75903C1.97421 2.75903 2.00376 2.7768 2.00376 2.79851V3.31172H2.85739C2.89351 3.31172 2.92306 3.32949 2.92306 3.3512C2.92306 3.37291 2.89351 3.39068 2.85739 3.39068H2.00376V3.90389C2.00376 3.9256 1.97421 3.94336 1.93809 3.94336C1.90198 3.94336 1.87243 3.9256 1.87243 3.90389V3.39068H1.01879C0.982674 3.39068 0.953125 3.37291 0.953125 3.3512C0.953125 3.32949 0.982674 3.31172 1.01879 3.31172H1.87243Z" fill="#1A1A1A"/>
<path d="M54.5463 23.2963V22.7831C54.5463 22.7614 54.5758 22.7437 54.6119 22.7437C54.648 22.7437 54.6776 22.7614 54.6776 22.7831V23.2963H55.5312C55.5673 23.2963 55.5969 23.3141 55.5969 23.3358C55.5969 23.3575 55.5673 23.3753 55.5312 23.3753H54.6776V23.8885C54.6776 23.9102 54.648 23.928 54.6119 23.928C54.5758 23.928 54.5463 23.9102 54.5463 23.8885V23.3753H53.6926C53.6565 23.3753 53.627 23.3575 53.627 23.3358C53.627 23.3141 53.6565 23.2963 53.6926 23.2963H54.5463Z" fill="#1A1A1A"/>
<path d="M3.61879 12.7243V12.3295C3.61879 12.3078 3.64834 12.29 3.68446 12.29C3.72057 12.29 3.75012 12.3078 3.75012 12.3295V12.7243H4.40677C4.44289 12.7243 4.47243 12.7421 4.47243 12.7638C4.47243 12.7855 4.44289 12.8032 4.40677 12.8032H3.75012V13.198C3.75012 13.2197 3.72057 13.2375 3.68446 13.2375C3.64834 13.2375 3.61879 13.2197 3.61879 13.198V12.8032H2.96215C2.92603 12.8032 2.89648 12.7855 2.89648 12.7638C2.89648 12.7421 2.92603 12.7243 2.96215 12.7243H3.61879Z" fill="#1A1A1A"/>
<path d="M43.7832 12.2741V11.8991C43.7832 11.8774 43.8128 11.8596 43.8489 11.8596C43.885 11.8596 43.9146 11.8774 43.9146 11.8991V12.2741H44.5384C44.5745 12.2741 44.604 12.2919 44.604 12.3136C44.604 12.3353 44.5745 12.3531 44.5384 12.3531H43.9146V12.7281C43.9146 12.7498 43.885 12.7676 43.8489 12.7676C43.8128 12.7676 43.7832 12.7498 43.7832 12.7281V12.3531H43.1594C43.1233 12.3531 43.0938 12.3353 43.0938 12.3136C43.0938 12.2919 43.1233 12.2741 43.1594 12.2741H43.7832Z" fill="#1A1A1A"/>
<path d="M30.9981 0.529262V0.154224C30.9981 0.132511 31.0276 0.114746 31.0637 0.114746C31.0999 0.114746 31.1294 0.132511 31.1294 0.154224V0.529262H31.7532C31.7893 0.529262 31.8189 0.547027 31.8189 0.56874C31.8189 0.590453 31.7893 0.608217 31.7532 0.608217H31.1294V0.983259C31.1294 1.00497 31.0999 1.02273 31.0637 1.02273C31.0276 1.02273 30.9981 1.00497 30.9981 0.983259V0.608217H30.3743C30.3381 0.608217 30.3086 0.590453 30.3086 0.56874C30.3086 0.547027 30.3381 0.529262 30.3743 0.529262H30.9981Z" fill="#1A1A1A"/>
<path d="M44.8829 11.3426C44.8829 11.3262 44.9046 11.313 44.9319 11.3131C44.9591 11.3131 44.981 11.3262 44.981 11.3425L45.002 13.9527C45.007 14.5904 45.8714 15.1048 46.9322 15.1018C47.1798 15.1012 47.4243 15.0718 47.6527 15.0151L48.578 14.7868C49.4749 14.5652 50.5003 14.8229 50.869 15.3618C51.0342 15.6039 51.0441 15.8743 50.8968 16.1205L50.1807 17.3159C49.8171 17.9226 49.9564 18.5975 50.556 19.1321L51.4341 19.9158C51.4496 19.9295 51.4433 19.9477 51.4206 19.957C51.3981 19.966 51.3676 19.9625 51.3521 19.9489L50.4732 19.1655C49.8558 18.6147 49.7126 17.9204 50.0871 17.2958L50.8031 16.1004C50.9427 15.8681 50.9333 15.613 50.7769 15.3842C50.4291 14.8754 49.4612 14.6322 48.6149 14.8413L47.6896 15.0696C47.4492 15.1287 47.1917 15.1597 46.9317 15.1607C45.8164 15.1637 44.9082 14.6231 44.9032 13.9526L44.8829 11.3426Z" fill="#1A1A1A"/>
<path d="M97.4721 167.92V154.873H104.806V151.291H97.4721V132.104H93.8905V151.291H68.0516L89.2003 106.521H85.2775L64.1289 151.291V154.873H93.8905V167.92H97.4721ZM142.303 169.2C152.536 169.2 160.978 160.757 160.978 150.524V123.918C160.978 113.684 152.536 105.242 142.303 105.242C132.069 105.242 123.627 113.684 123.627 123.918V150.524C123.627 160.757 132.069 169.2 142.303 169.2ZM142.303 165.618C134.031 165.618 127.209 158.796 127.209 150.524V123.918C127.209 115.646 134.031 108.824 142.303 108.824C150.574 108.824 157.396 115.646 157.396 123.918V150.524C157.396 158.796 150.574 165.618 142.303 165.618ZM213.14 167.92V154.873H220.474V151.291H213.14V132.104H209.559V151.291H183.72L204.868 106.521H200.946L179.797 151.291V154.873H209.559V167.92H213.14Z" fill="#6E6E6E"/>
<path d="M97.4721 167.92V154.873H104.806V151.291H97.4721V132.104H93.8905V151.291H68.0516L89.2003 106.521H85.2775L64.1289 151.291V154.873H93.8905V167.92H97.4721ZM142.303 169.2C152.536 169.2 160.978 160.757 160.978 150.524V123.918C160.978 113.684 152.536 105.242 142.303 105.242C132.069 105.242 123.627 113.684 123.627 123.918V150.524C123.627 160.757 132.069 169.2 142.303 169.2ZM142.303 165.618C134.031 165.618 127.209 158.796 127.209 150.524V123.918C127.209 115.646 134.031 108.824 142.303 108.824C150.574 108.824 157.396 115.646 157.396 123.918V150.524C157.396 158.796 150.574 165.618 142.303 165.618ZM213.14 167.92V154.873H220.474V151.291H213.14V132.104H209.559V151.291H183.72L204.868 106.521H200.946L179.797 151.291V154.873H209.559V167.92H213.14Z" fill="#6E6E6E"/>
<path d="M97.4721 167.92V154.873H104.806V151.291H97.4721V132.104H93.8905V151.291H68.0516L89.2003 106.521H85.2775L64.1289 151.291V154.873H93.8905V167.92H97.4721ZM142.303 169.2C152.536 169.2 160.978 160.757 160.978 150.524V123.918C160.978 113.684 152.536 105.242 142.303 105.242C132.069 105.242 123.627 113.684 123.627 123.918V150.524C123.627 160.757 132.069 169.2 142.303 169.2ZM142.303 165.618C134.031 165.618 127.209 158.796 127.209 150.524V123.918C127.209 115.646 134.031 108.824 142.303 108.824C150.574 108.824 157.396 115.646 157.396 123.918V150.524C157.396 158.796 150.574 165.618 142.303 165.618ZM213.14 167.92V154.873H220.474V151.291H213.14V132.104H209.559V151.291H183.72L204.868 106.521H200.946L179.797 151.291V154.873H209.559V167.92H213.14Z" fill="#6E6E6E"/>
</svg>
