<svg width="21" height="21" viewBox="0 0 21 21" fill="none" xmlns="http://www.w3.org/2000/svg">
<path d="M17.1322 8.46471C18.7272 8.46471 20.0203 7.20915 20.0203 5.66034C20.0203 4.11152 18.7272 2.85596 17.1322 2.85596C15.5372 2.85596 14.2441 4.11152 14.2441 5.66034C14.2441 7.20915 15.5372 8.46471 17.1322 8.46471Z" fill="#636363"/>
<path d="M6.32069 8.46471C7.91572 8.46471 9.20875 7.20915 9.20875 5.66034C9.20875 4.11152 7.91572 2.85596 6.32069 2.85596C4.72564 2.85596 3.43262 4.11152 3.43262 5.66034C3.43262 7.20915 4.72564 8.46471 6.32069 8.46471Z" fill="#636363"/>
<path d="M17.1322 20.118C18.7272 20.118 20.0203 18.8625 20.0203 17.3137C20.0203 15.7648 18.7272 14.5093 17.1322 14.5093C15.5372 14.5093 14.2441 15.7648 14.2441 17.3137C14.2441 18.8625 15.5372 20.118 17.1322 20.118Z" fill="#636363"/>
<path d="M6.32069 20.118C7.91572 20.118 9.20875 18.8625 9.20875 17.3137C9.20875 15.7648 7.91572 14.5093 6.32069 14.5093C4.72564 14.5093 3.43262 15.7648 3.43262 17.3137C3.43262 18.8625 4.72564 20.118 6.32069 20.118Z" fill="#636363"/>
</svg>
