<svg width="17" height="18" viewBox="0 0 17 18" fill="none" xmlns="http://www.w3.org/2000/svg">
<path d="M14.5997 7.67639C15.8791 7.67639 16.9162 6.66927 16.9162 5.42694C16.9162 4.1846 15.8791 3.17749 14.5997 3.17749C13.3203 3.17749 12.2832 4.1846 12.2832 5.42694C12.2832 6.66927 13.3203 7.67639 14.5997 7.67639Z" fill="#636363"/>
<path d="M5.92686 7.67639C7.20623 7.67639 8.24336 6.66927 8.24336 5.42694C8.24336 4.1846 7.20623 3.17749 5.92686 3.17749C4.64749 3.17749 3.61035 4.1846 3.61035 5.42694C3.61035 6.66927 4.64749 7.67639 5.92686 7.67639Z" fill="#636363"/>
<path d="M14.5997 17.0238C15.8791 17.0238 16.9162 16.0167 16.9162 14.7743C16.9162 13.532 15.8791 12.5249 14.5997 12.5249C13.3203 12.5249 12.2832 13.532 12.2832 14.7743C12.2832 16.0167 13.3203 17.0238 14.5997 17.0238Z" fill="#636363"/>
<path d="M5.92686 17.0238C7.20623 17.0238 8.24336 16.0167 8.24336 14.7743C8.24336 13.532 7.20623 12.5249 5.92686 12.5249C4.64749 12.5249 3.61035 13.532 3.61035 14.7743C3.61035 16.0167 4.64749 17.0238 5.92686 17.0238Z" fill="#636363"/>
</svg>
