<svg width="33" height="33" viewBox="0 0 33 33" fill="none" xmlns="http://www.w3.org/2000/svg">
<path d="M16.0205 0.618164C7.1853 0.618164 0.0205078 7.78295 0.0205078 16.6182C0.0205078 25.4534 7.1853 32.6182 16.0205 32.6182C24.8557 32.6182 32.0205 25.4534 32.0205 16.6182C32.0205 7.78295 24.8557 0.618164 16.0205 0.618164ZM11.3711 24.8057H7.47437V13.0823H11.3711V24.8057ZM9.42285 11.4815H9.39746C8.08985 11.4815 7.24414 10.5813 7.24414 9.45629C7.24414 8.3059 8.11572 7.43066 9.44873 7.43066C10.7817 7.43066 11.602 8.3059 11.6274 9.45629C11.6274 10.5813 10.7817 11.4815 9.42285 11.4815ZM25.4219 24.8057H21.5256V18.534C21.5256 16.9578 20.9614 15.8828 19.5515 15.8828C18.4751 15.8828 17.834 16.6079 17.5522 17.3079C17.4492 17.5584 17.4241 17.9085 17.4241 18.2588V24.8057H13.5276C13.5276 24.8057 13.5786 14.1822 13.5276 13.0823H17.4241V14.7422C17.9419 13.9434 18.8684 12.8072 20.9358 12.8072C23.4995 12.8072 25.4219 14.4827 25.4219 18.0835V24.8057Z" fill="#1A1A1A"/>
</svg>
