<svg width="41" height="41" viewBox="0 0 41 41" fill="none" xmlns="http://www.w3.org/2000/svg">
<path d="M35.6183 24.938L20.0216 15.3404L4.42826 24.9379C3.83957 25.2991 3.06955 25.1166 2.70945 24.5279C2.34685 23.9404 2.53047 23.1704 3.11916 22.8091L19.3674 12.8092C19.7687 12.5617 20.2762 12.5617 20.6774 12.8092L36.9291 22.8092C37.518 23.1717 37.7006 23.9405 37.3394 24.528C36.9745 25.1192 36.202 25.298 35.6183 24.938Z" fill="#FD650B"/>
<path d="M23.1497 27.6231L16.8997 27.6231C16.5547 27.6231 16.2748 27.9031 16.2749 28.2481L16.2764 37.6231L7.52644 37.623L7.52434 25.2343L20.023 17.5431L32.5243 25.2356L32.5264 37.6231L23.7764 37.6231L23.7749 28.2481C23.7748 27.9031 23.4947 27.6231 23.1497 27.6231ZM35.0205 2.62307L35.0218 10.4106C35.0219 10.7656 34.5932 10.9431 34.3419 10.6918L31.7514 8.10181L27.3772 12.4768C26.8698 12.9856 26.0836 13.0794 25.4685 12.7118L20.0317 9.45056L2.52349 20.2268L2.52287 16.558L19.2023 6.29306C19.6986 5.98681 20.3236 5.98306 20.8261 6.28431L26.0304 9.40681L29.5424 5.89431L26.9518 3.30431C26.6994 3.05181 26.878 2.62306 27.233 2.62306L35.0205 2.62307Z" fill="#FD650B"/>
</svg>
