<svg width="41" height="41" viewBox="0 0 41 41" fill="none" xmlns="http://www.w3.org/2000/svg">
<path d="M35.6142 24.8726L20.0192 15.275L4.4242 24.8725C3.83545 25.2337 3.06546 25.0512 2.70546 24.4625C2.34296 23.875 2.52671 23.105 3.11546 22.7437L19.3654 12.7438C19.7667 12.4963 20.2742 12.4963 20.6754 12.7438L36.9254 22.7438C37.5142 23.1063 37.6967 23.8751 37.3354 24.4626C36.9704 25.0538 36.1979 25.2326 35.6142 24.8726Z" fill="#FD650B"/>
<path d="M23.1455 27.5574L16.8955 27.5574C16.5505 27.5574 16.2705 27.8374 16.2705 28.1824L16.2705 37.5574L7.52046 37.5574L7.52048 25.1687L20.0205 17.4774L32.5205 25.1699L32.5205 37.5574L23.7705 37.5574L23.7705 28.1824C23.7705 27.8374 23.4905 27.5574 23.1455 27.5574ZM35.0205 2.55742L35.0205 10.3449C35.0205 10.6999 34.5918 10.8774 34.3405 10.6262L31.7505 8.03616L27.3755 12.4112C26.868 12.9199 26.0818 13.0137 25.4668 12.6461L20.0305 9.3849L2.52048 20.1612L2.52049 16.4924L19.2017 6.2274C19.698 5.92115 20.323 5.9174 20.8255 6.21865L26.0292 9.34116L29.5418 5.82866L26.9517 3.23866C26.6993 2.98616 26.878 2.55741 27.233 2.55741L35.0205 2.55742Z" fill="#FD650B"/>
</svg>
