<svg width="33" height="33" viewBox="0 0 33 33" fill="none" xmlns="http://www.w3.org/2000/svg">
<path d="M19.3751 31.972C18.6583 32.0291 17.1224 32.0495 16.0279 32.0495C14.9302 32.0495 13.3975 32.0291 12.6807 31.972C12.511 31.9585 12.2391 31.9585 12.0696 31.972C11.9 31.9856 11.9 32.0072 12.0696 32.0207C13.2056 32.1111 15.388 32.1183 16.0279 32.1183C16.6678 32.1183 18.847 32.1111 19.9864 32.0207C20.1527 32.0072 20.1527 31.9855 19.9864 31.972C19.8167 31.9585 19.5447 31.9585 19.3751 31.972Z" fill="#D7D7D7"/>
<path d="M14.019 21.9045C14.019 21.8313 13.2703 21.7717 12.3518 21.7717C11.4336 21.7717 10.6846 21.8313 10.6846 21.9045C10.6846 21.9776 11.4336 22.0372 12.3518 22.0372C13.2703 22.0372 14.019 21.9776 14.019 21.9045Z" fill="#D7D7D7"/>
<path d="M16.0205 10.3081C7.1853 10.3081 0.0205078 10.8785 0.0205078 11.5818C0.0205078 12.2852 7.1853 12.8556 16.0205 12.8556C24.8557 12.8556 32.0205 12.2852 32.0205 11.5818C32.0205 10.8785 24.8557 10.3081 16.0205 10.3081ZM25.3037 11.7518C25.3389 11.7701 25.3581 11.7887 25.3581 11.8076C25.3581 12.0934 21.1789 12.325 16.0237 12.325C10.8684 12.325 6.68921 12.0934 6.68921 11.8076C6.68921 11.7884 6.7085 11.7696 6.74365 11.7512C5.93091 11.7222 5.3645 11.6573 5.3645 11.5818C5.3645 11.4794 6.40772 11.3961 7.69727 11.3961C8.32447 11.3961 8.89087 11.4158 9.31006 11.4479C10.9292 11.3549 13.1694 11.2955 15.6621 11.2904C15.6621 11.2879 16.8269 10.8461 16.8269 10.8461C16.8494 10.8375 16.9133 10.8301 17.0061 10.8253C17.0989 10.8204 17.2109 10.8189 17.3198 10.8207L21.1982 10.8864C21.4702 10.8426 22.03 10.8122 22.686 10.8122C23.6077 10.8122 24.3533 10.8716 24.3533 10.945C24.3533 11.0183 23.6077 11.0777 22.686 11.0777C21.7932 11.0777 21.0701 11.0217 21.0286 10.9514L17.5564 10.8925L16.4941 11.2907C18.9421 11.2975 21.1406 11.3566 22.7341 11.4484C23.1533 11.416 23.7229 11.3961 24.3533 11.3961C25.6431 11.3961 26.686 11.4792 26.686 11.5818C26.686 11.6578 26.1133 11.7227 25.3037 11.7518Z" fill="#D7D7D7"/>
<path d="M19.6877 0.118164C18.7693 0.118164 18.0205 0.177774 18.0205 0.250891C18.0205 0.323989 18.7693 0.383618 19.6877 0.383618C20.606 0.383618 21.355 0.323989 21.355 0.250891C21.355 0.177774 20.6062 0.118164 19.6877 0.118164Z" fill="#D7D7D7"/>
</svg>
