<svg width="72" height="54" viewBox="0 0 72 54" fill="none" xmlns="http://www.w3.org/2000/svg">
<path d="M27.2784 45.2665C32.2436 40.4198 34.6781 33.0114 34.6781 23.147C34.6781 16.2213 33.0954 10.7127 29.8701 6.68025L29.8701 6.68023L29.8657 6.67491C26.5446 2.63778 22.1493 0.61816 16.7267 0.618159C12.0443 0.618159 8.15434 2.12969 5.09789 5.1694L5.09268 5.17473C2.04934 8.2931 0.520511 12.0228 0.520511 16.3381C0.520511 20.8086 1.89942 24.6213 4.6686 27.7454C7.3733 30.988 11.1467 32.592 15.9213 32.592C18.3491 32.592 20.32 32.1216 21.7705 31.1252C21.18 33.8892 19.9171 36.2244 17.985 38.1458L18.3376 38.5004L17.985 38.1458C15.4196 40.6973 11.7585 42.0056 6.92711 42.0056C5.43377 42.0056 3.71186 41.8745 1.75891 41.6096L1.19171 41.5327L1.19171 42.1051L1.19171 51.7176L1.19171 52.2176L1.69171 52.2176C2.01392 52.2176 2.47729 52.2581 3.09245 52.3454C3.63773 52.4355 4.18371 52.4819 4.73011 52.4845C5.18288 52.5721 5.60284 52.6182 5.98741 52.6182C15.1145 52.6182 22.2363 50.1899 27.2784 45.2665ZM27.2784 45.2665L26.9291 44.9087L27.2784 45.2665ZM65.7125 6.68026L65.7126 6.68023L65.7082 6.67491C62.387 2.63779 57.9917 0.618163 52.5691 0.618163C47.8867 0.618162 43.9967 2.1297 40.9403 5.16944L40.9403 5.1694L40.9351 5.17474C37.8917 8.2931 36.3629 12.0228 36.3629 16.3381C36.3629 20.8085 37.7418 24.6212 40.511 27.7453C43.2156 30.988 46.9891 32.592 51.7637 32.592C54.1915 32.592 56.1624 32.1216 57.6129 31.1252C57.0224 33.8892 55.7595 36.2244 53.8274 38.1458L53.8274 38.1458C51.262 40.6973 47.6009 42.0056 42.7695 42.0056C41.2762 42.0056 39.5543 41.8745 37.6013 41.6096L37.0341 41.5327L37.0341 42.1051L37.0341 51.7176L37.0341 52.2176L37.5341 52.2176C37.8563 52.2176 38.3197 52.2581 38.9348 52.3454C39.4801 52.4355 40.0261 52.4819 40.5725 52.4845C41.0253 52.5721 41.4453 52.6182 41.8298 52.6182C50.9569 52.6182 58.0787 50.1898 63.1208 45.2665C68.0861 40.4197 70.5205 33.0113 70.5205 23.147C70.5205 16.2213 68.9378 10.7127 65.7125 6.68026Z" stroke="#E29168"/>
</svg>
