<svg width="31" height="31" viewBox="0 0 31 31" fill="none" xmlns="http://www.w3.org/2000/svg">
<path d="M28.0968 17.0884C28.0968 22.9498 23.3453 27.7013 17.4839 27.7013V30.1181C24.68 30.1181 30.5136 24.2845 30.5136 17.0884H28.0968ZM17.4839 27.7013C11.6225 27.7013 6.87091 22.9498 6.87091 17.0884H4.4541C4.4541 24.2845 10.2877 30.1181 17.4839 30.1181V27.7013ZM6.87091 17.0884C6.87091 11.227 11.6225 6.47541 17.4839 6.47541V4.05859C10.2877 4.05859 4.4541 9.89222 4.4541 17.0884H6.87091ZM17.4839 6.47541C23.3453 6.47541 28.0968 11.227 28.0968 17.0884H30.5136C30.5136 9.89222 24.68 4.05859 17.4839 4.05859V6.47541Z" fill="#6E6E6E"/>
<path d="M22.4094 13.3712C23.0768 13.3712 23.6178 12.8302 23.6178 12.1628C23.6178 11.4954 23.0768 10.9544 22.4094 10.9544V13.3712ZM20.4392 12.1628L20.4341 13.3712H20.4392V12.1628ZM17.4838 15.1181H18.6922L18.6922 15.1131L17.4838 15.1181ZM16.2754 28.9097C16.2754 29.5772 16.8164 30.1181 17.4838 30.1181C18.1512 30.1181 18.6922 29.5772 18.6922 28.9097H16.2754ZM22.4094 10.9544H20.4392V13.3712H22.4094V10.9544ZM20.4442 10.9544C19.8961 10.9521 19.353 11.0583 18.8462 11.267L19.7664 13.5018C19.9782 13.4146 20.2051 13.3702 20.4341 13.3712L20.4442 10.9544ZM18.8462 11.267C18.3394 11.4757 17.8789 11.7827 17.4913 12.1703L19.2003 13.8792C19.3622 13.7173 19.5546 13.589 19.7664 13.5018L18.8462 11.267ZM17.4913 12.1703C17.1038 12.5578 16.7968 13.0183 16.5881 13.5251L18.8229 14.4453C18.9101 14.2336 19.0383 14.0412 19.2003 13.8792L17.4913 12.1703ZM16.5881 13.5251C16.3794 14.032 16.2731 14.5751 16.2754 15.1232L18.6922 15.1131C18.6913 14.884 18.7357 14.6571 18.8229 14.4453L16.5881 13.5251ZM16.2754 15.1181V28.9097H18.6922V15.1181H16.2754Z" fill="#6E6E6E"/>
<path d="M13.5434 17.8501C12.876 17.8501 12.335 18.3911 12.335 19.0585C12.335 19.7259 12.876 20.2669 13.5434 20.2669V17.8501ZM21.4243 20.2669C22.0917 20.2669 22.6327 19.7259 22.6327 19.0585C22.6327 18.3911 22.0917 17.8501 21.4243 17.8501V20.2669ZM13.5434 20.2669H21.4243V17.8501H13.5434V20.2669Z" fill="#6E6E6E"/>
</svg>
