<svg width="31" height="31" viewBox="0 0 31 31" fill="none" xmlns="http://www.w3.org/2000/svg">
<path d="M16.5188 18.3132L16.5726 19.3912C16.5995 19.1509 16.6157 18.7464 16.6157 18.3132C16.6157 17.88 16.5995 17.4755 16.5726 17.2352L16.5188 18.3132ZM16.0449 14.0883L16.0986 13.0103C16.0689 12.7453 16.0307 12.7206 15.9992 12.946C15.9677 13.1715 15.948 13.6105 15.948 14.0883H16.0449ZM16.0449 22.538H15.948C15.948 23.0158 15.9677 23.4549 15.9992 23.6803C16.0307 23.9058 16.0689 23.8811 16.0986 23.616L16.0449 22.538ZM16.5726 17.2352L16.0986 13.0103L15.9911 15.1664L16.4651 19.3912L16.5726 17.2352ZM15.948 14.0883V22.538H16.1418V14.0883H15.948ZM16.0986 23.616L16.5726 19.3912L16.4651 17.2352L15.9911 21.46L16.0986 23.616Z" fill="#6E6E6E"/>
<path d="M0.663882 25.7331L0.570006 26.054L0.5701 26.0588L0.663882 25.7331ZM0.758669 27.1722L0.722662 28.375C0.723135 28.3776 0.72361 28.3801 0.724086 28.3825L0.758669 27.1722ZM1.63742 28.8225L1.63794 27.5269H1.6369L1.63742 28.8225ZM2.51617 27.1722L2.55075 28.3825C2.55123 28.3801 2.5517 28.3776 2.55218 28.375L2.51617 27.1722ZM2.61096 25.7331L2.70475 26.0588L2.70484 26.054L2.61096 25.7331ZM2.61096 10.8934L2.70484 10.5726L2.70475 10.5677L2.61096 10.8934ZM2.51617 9.45432L2.55218 8.25149C2.5517 8.24896 2.55123 8.24648 2.55075 8.24404L2.51617 9.45432ZM1.63742 7.804L1.6369 9.09967L1.63794 9.09959L1.63742 7.804ZM0.758669 9.45432L0.724086 8.24404C0.72361 8.24648 0.723135 8.24896 0.722662 8.25149L0.758669 9.45432ZM0.663882 10.8934L0.5701 10.5677L0.570006 10.5726L0.663882 10.8934ZM0.513672 18.3133C0.513672 22.3375 0.54498 24.7445 0.570006 26.054L0.757758 25.4123C0.737366 24.3453 0.707458 22.1578 0.707458 18.3133H0.513672ZM0.5701 26.0588C0.580179 26.5777 0.599237 27.0577 0.625737 27.4601L0.771162 25.7474C0.764733 25.6498 0.76011 25.5333 0.757665 25.4075L0.5701 26.0588ZM0.625737 27.4601C0.652237 27.8624 0.685438 28.1758 0.722662 28.375L0.794676 25.9693C0.785646 25.921 0.777592 25.845 0.771162 25.7474L0.625737 27.4601ZM0.724086 28.3825C0.902787 29.2955 1.13379 29.7187 1.31393 29.9221C1.40523 30.0252 1.48586 30.0741 1.54372 30.0974C1.57268 30.109 1.59601 30.1142 1.6122 30.1164C1.6203 30.1177 1.62662 30.118 1.63097 30.1181C1.63315 30.1182 1.63483 30.1182 1.636 30.1182C1.63659 30.1182 1.63704 30.1181 1.63737 30.1181C1.63753 30.1181 1.63766 30.1181 1.63776 30.1181C1.6378 30.1181 1.63784 30.1181 1.63788 30.1181C1.63789 30.1181 1.63791 30.1181 1.63792 30.1181C1.63794 30.1181 1.63794 30.1181 1.63742 28.8225C1.6369 27.5269 1.63691 27.5269 1.63692 27.5269C1.63692 27.5269 1.63691 27.5269 1.63689 27.5269C1.63685 27.5269 1.63678 27.5269 1.63668 27.5269C1.63648 27.527 1.63614 27.527 1.63568 27.527C1.63475 27.527 1.63332 27.527 1.63141 27.527C1.62756 27.5269 1.62179 27.5264 1.61426 27.5254C1.59919 27.5233 1.57712 27.5183 1.54953 27.5073C1.49431 27.4851 1.41728 27.4383 1.33023 27.3401C1.15369 27.1408 0.945318 26.7388 0.793252 25.9619L0.724086 28.3825ZM1.63742 28.8225C1.6369 30.1181 1.63691 30.1181 1.63692 30.1181C1.63693 30.1181 1.63695 30.1181 1.63697 30.1181C1.637 30.1181 1.63704 30.1181 1.63708 30.1181C1.63719 30.1181 1.63731 30.1181 1.63747 30.1181C1.6378 30.1181 1.63826 30.1182 1.63885 30.1182C1.64001 30.1182 1.64169 30.1182 1.64388 30.1181C1.64822 30.118 1.65454 30.1177 1.66264 30.1164C1.67883 30.1142 1.70216 30.109 1.73112 30.0974C1.78898 30.0741 1.86961 30.0252 1.96091 29.9221C2.14105 29.7187 2.37206 29.2955 2.55075 28.3825L2.48159 25.9619C2.32952 26.7388 2.12115 27.1408 1.94461 27.3401C1.85756 27.4383 1.78053 27.4851 1.72531 27.5073C1.69772 27.5183 1.67566 27.5233 1.66058 27.5254C1.65305 27.5264 1.64728 27.5269 1.64344 27.527C1.64152 27.527 1.64009 27.527 1.63917 27.527C1.6387 27.527 1.63836 27.527 1.63816 27.5269C1.63806 27.5269 1.63799 27.5269 1.63795 27.5269C1.63794 27.5269 1.63793 27.5269 1.63793 27.5269C1.63794 27.5269 1.63794 27.5269 1.63742 28.8225ZM2.55218 28.375C2.5894 28.1758 2.6226 27.8624 2.6491 27.4601L2.50368 25.7474C2.49725 25.845 2.4892 25.921 2.48016 25.9693L2.55218 28.375ZM2.6491 27.4601C2.6756 27.0577 2.69466 26.5777 2.70475 26.0588L2.51718 25.4075C2.51473 25.5333 2.51011 25.6498 2.50368 25.7474L2.6491 27.4601ZM2.70484 26.054C2.72986 24.7445 2.76117 22.3375 2.76117 18.3133H2.56738C2.56738 22.1578 2.53747 24.3453 2.51708 25.4123L2.70484 26.054ZM2.76117 18.3133C2.76117 14.289 2.72986 11.8821 2.70484 10.5726L2.51708 11.2142C2.53747 12.2812 2.56738 14.4688 2.56738 18.3133H2.76117ZM2.70475 10.5677C2.69466 10.0488 2.6756 9.56883 2.6491 9.16649L2.50368 10.8791C2.51011 10.9767 2.51473 11.0932 2.51718 11.2191L2.70475 10.5677ZM2.6491 9.16649C2.6226 8.76415 2.5894 8.45073 2.55218 8.25149L2.48016 10.6572C2.4892 10.7055 2.49725 10.7815 2.50368 10.8791L2.6491 9.16649ZM2.55075 8.24404C2.37206 7.33103 2.14105 6.90778 1.96091 6.70441C1.86961 6.60134 1.78898 6.5524 1.73112 6.52918C1.70216 6.51756 1.67883 6.51235 1.66264 6.51005C1.65454 6.5089 1.64822 6.50848 1.64388 6.50835C1.64169 6.50829 1.64001 6.50829 1.63885 6.50832C1.63826 6.50834 1.6378 6.50835 1.63747 6.50837C1.63731 6.50837 1.63719 6.50838 1.63708 6.50839C1.63704 6.50839 1.637 6.50839 1.63697 6.50839C1.63695 6.50839 1.63693 6.5084 1.63692 6.5084C1.63691 6.5084 1.6369 6.5084 1.63742 7.804C1.63794 9.09959 1.63794 9.09959 1.63793 9.09959C1.63793 9.09959 1.63794 9.09959 1.63795 9.09959C1.63799 9.09959 1.63806 9.09959 1.63816 9.09958C1.63836 9.09957 1.6387 9.09955 1.63917 9.09954C1.64009 9.09953 1.64152 9.09952 1.64344 9.09958C1.64728 9.09969 1.65305 9.10007 1.66058 9.10113C1.67566 9.10327 1.69772 9.10817 1.72531 9.11925C1.78053 9.14141 1.85756 9.18819 1.94461 9.28646C2.12115 9.48577 2.32952 9.88767 2.48159 10.6646L2.55075 8.24404ZM1.63742 7.804C1.63794 6.5084 1.63794 6.5084 1.63792 6.5084C1.63791 6.5084 1.63789 6.50839 1.63788 6.50839C1.63784 6.50839 1.6378 6.50839 1.63776 6.50839C1.63766 6.50838 1.63753 6.50837 1.63737 6.50837C1.63704 6.50835 1.63659 6.50834 1.636 6.50832C1.63483 6.50829 1.63315 6.50829 1.63097 6.50835C1.62662 6.50848 1.6203 6.5089 1.6122 6.51005C1.59601 6.51235 1.57268 6.51756 1.54372 6.52918C1.48586 6.5524 1.40523 6.60134 1.31393 6.70441C1.13379 6.90778 0.902787 7.33103 0.724086 8.24404L0.793252 10.6646C0.945318 9.88767 1.15369 9.48577 1.33023 9.28646C1.41728 9.18819 1.49431 9.14141 1.54953 9.11925C1.57712 9.10817 1.59919 9.10327 1.61426 9.10113C1.62179 9.10007 1.62756 9.09969 1.63141 9.09958C1.63332 9.09952 1.63475 9.09953 1.63568 9.09954C1.63614 9.09955 1.63648 9.09957 1.63668 9.09958C1.63678 9.09959 1.63685 9.09959 1.63689 9.09959C1.63691 9.09959 1.63692 9.09959 1.63692 9.09959C1.63691 9.09959 1.6369 9.09959 1.63742 7.804ZM0.722662 8.25149C0.685438 8.45073 0.652238 8.76415 0.625737 9.16649L0.771162 10.8791C0.777591 10.7815 0.785646 10.7055 0.794676 10.6572L0.722662 8.25149ZM0.625737 9.16649C0.599237 9.56883 0.580179 10.0488 0.5701 10.5677L0.757665 11.2191C0.76011 11.0932 0.764733 10.9767 0.771162 10.8791L0.625737 9.16649ZM0.570006 10.5726C0.54498 11.8821 0.513672 14.289 0.513672 18.3133H0.707458C0.707458 14.4688 0.737366 12.2812 0.757758 11.2142L0.570006 10.5726Z" fill="#6E6E6E"/>
</svg>
