<svg width="31" height="31" viewBox="0 0 31 31" fill="none" xmlns="http://www.w3.org/2000/svg">
<path d="M24.0487 7.0824H26.3341V4.62524H24.0487V7.0824ZM26.3341 7.0824C26.3205 7.0824 26.3094 6.98076 26.3094 6.85538H26.5764C26.5764 5.62371 26.4679 4.62524 26.3341 4.62524V7.0824ZM26.3094 6.85538V27.8881H26.5764V6.85538H26.3094ZM26.3094 27.8881C26.3094 27.7627 26.3205 27.6611 26.3341 27.6611V30.1182C26.4679 30.1182 26.5764 29.1198 26.5764 27.8881H26.3094ZM26.3341 27.6611H24.0487V30.1182H26.3341V27.6611ZM24.0487 27.6611C24.0623 27.6611 24.0734 27.7627 24.0734 27.8881H23.8064C23.8064 29.1198 23.9149 30.1182 24.0487 30.1182V27.6611ZM24.0734 27.8881V6.85538H23.8064V27.8881H24.0734ZM24.0734 6.85538C24.0734 6.98076 24.0623 7.0824 24.0487 7.0824V4.62524C23.9149 4.62524 23.8064 5.62371 23.8064 6.85538H24.0734Z" fill="#6E6E6E"/>
<path d="M18.5087 15.3685C18.5087 14.6899 18.4489 14.1399 18.3752 14.1399C18.3015 14.1399 18.2417 14.6899 18.2417 15.3685H18.5087ZM18.2417 23.3809C18.2417 24.0595 18.3015 24.6095 18.3752 24.6095C18.4489 24.6095 18.5087 24.0595 18.5087 23.3809H18.2417ZM18.2417 15.3685V23.3809H18.5087V15.3685H18.2417Z" fill="#6E6E6E"/>
<path d="M12.5087 15.3685C12.5087 14.6899 12.4489 14.1399 12.3752 14.1399C12.3015 14.1399 12.2417 14.6899 12.2417 15.3685H12.5087ZM12.2417 23.3809C12.2417 24.0595 12.3015 24.6095 12.3752 24.6095C12.4489 24.6095 12.5087 24.0595 12.5087 23.3809H12.2417ZM12.2417 15.3685V23.3809H12.5087V15.3685H12.2417Z" fill="#6E6E6E"/>
<path d="M6.677 18.8739C6.677 19.5525 6.73677 20.1025 6.8105 20.1025C6.88422 20.1025 6.94399 19.5525 6.94399 18.8739H6.677ZM7.19139 15.3685V14.1399V15.3685ZM7.43879 23.3809C7.43879 24.0595 7.49856 24.6095 7.57229 24.6095C7.64601 24.6095 7.70578 24.0595 7.70578 23.3809H7.43879ZM6.94399 18.8739C6.94399 18.2701 6.97006 17.6909 7.01645 17.2639L6.82766 15.5265C6.7312 16.4143 6.677 17.6184 6.677 18.8739H6.94399ZM7.01645 17.2639C7.06285 16.8369 7.12578 16.597 7.19139 16.597V14.1399C7.05497 14.1399 6.92413 14.6387 6.82766 15.5265L7.01645 17.2639ZM7.19139 16.597C7.25701 16.597 7.31993 16.8369 7.36633 17.2639L7.55512 15.5265C7.45865 14.6387 7.32782 14.1399 7.19139 14.1399V16.597ZM7.36633 17.2639C7.41273 17.6909 7.43879 18.2701 7.43879 18.8739H7.70578C7.70578 17.6184 7.65159 16.4143 7.55512 15.5265L7.36633 17.2639ZM7.43879 18.8739V23.3809H7.70578V18.8739H7.43879Z" fill="#6E6E6E"/>
<path d="M0.676913 11.636C0.767068 11.636 0.840153 10.9634 0.840153 10.1337C0.840153 9.30397 0.767068 8.63135 0.676913 8.63135C0.586757 8.63135 0.513672 9.30397 0.513672 10.1337C0.513672 10.9634 0.586757 11.636 0.676913 11.636Z" fill="#6E6E6E"/>
</svg>
