<svg width="31" height="31" viewBox="0 0 31 31" fill="none" xmlns="http://www.w3.org/2000/svg">
<path d="M23.0564 19.0967C23.0368 19.099 23.0209 19.6798 23.021 20.3941C23.0211 21.1084 23.037 21.6857 23.0567 21.6834L23.0564 19.0967ZM23.2529 28.8209C23.2528 29.5352 23.2687 30.116 23.2883 30.1183C23.3079 30.1205 23.3239 29.5433 23.324 28.829L23.2529 28.8209ZM23.0567 21.6834C23.0824 21.6805 23.108 21.8631 23.1318 22.2207L23.1589 19.8294C23.1264 19.3417 23.0916 19.0927 23.0564 19.0967L23.0567 21.6834ZM23.1318 22.2207C23.1557 22.5784 23.1773 23.104 23.1956 23.7674L23.2458 21.9383C23.221 21.0338 23.1914 20.317 23.1589 19.8294L23.1318 22.2207ZM23.1956 23.7674C23.2138 24.4307 23.2283 25.2187 23.2381 26.086L23.3038 25.0999C23.2904 23.9173 23.2707 22.8428 23.2458 21.9383L23.1956 23.7674ZM23.2381 26.086C23.2479 26.9533 23.2529 27.8827 23.2529 28.8209L23.324 28.829C23.3241 27.5498 23.3172 26.2824 23.3038 25.0999L23.2381 26.086Z" fill="#6E6E6E"/>
<path d="M15.5636 12.7705C15.544 12.7705 15.5281 13.3496 15.5281 14.0639C15.5281 14.7781 15.544 15.3572 15.5636 15.3572V12.7705ZM15.9338 28.8248C15.9338 29.5391 15.9497 30.1182 15.9694 30.1182C15.989 30.1182 16.0049 29.5391 16.0049 28.8248H15.9338ZM15.5636 15.3572C15.6618 15.3572 15.756 16.7761 15.8254 19.3018L15.8757 17.4727C15.7929 14.4619 15.6807 12.7705 15.5636 12.7705V15.3572ZM15.8254 19.3018C15.8948 21.8275 15.9338 25.253 15.9338 28.8248H16.0049C16.0049 24.567 15.9584 20.4835 15.8757 17.4727L15.8254 19.3018Z" fill="#6E6E6E"/>
<path d="M8.07088 6.44438C8.05125 6.44571 8.03536 7.02585 8.0354 7.74014C8.03544 8.45444 8.05138 9.0324 8.07102 9.03105L8.07088 6.44438ZM8.48068 13.9189L8.45548 14.831L8.45561 14.8358L8.48068 13.9189ZM8.61504 28.8224C8.615 29.5367 8.63089 30.1168 8.65052 30.1182C8.67016 30.1195 8.6861 29.5415 8.68614 28.8273L8.61504 28.8224ZM8.07102 9.03105C8.14245 9.02617 8.21321 9.5362 8.2792 10.5317L8.30643 8.14229C8.23177 7.01592 8.15171 6.43884 8.07088 6.44438L8.07102 9.03105ZM8.2792 10.5317C8.34518 11.5272 8.4051 12.9884 8.45548 14.831L8.50589 13.0068C8.44889 10.922 8.3811 9.26866 8.30643 8.14229L8.2792 10.5317ZM8.45561 14.8358C8.50626 16.6686 8.54642 18.8482 8.57379 21.2488L8.63947 20.258C8.6085 17.5418 8.56306 15.0756 8.50575 13.0019L8.45561 14.8358ZM8.57379 21.2488C8.60115 23.6495 8.61517 26.2236 8.61504 28.8224L8.68614 28.8273C8.68629 25.8868 8.67043 22.9743 8.63947 20.258L8.57379 21.2488Z" fill="#6E6E6E"/>
<path d="M0.557145 28.5857C0.581154 28.5857 0.600617 27.8776 0.600617 27.0041C0.600617 26.1307 0.581154 25.4226 0.557145 25.4226C0.533135 25.4226 0.513672 26.1307 0.513672 27.0041C0.513672 27.8776 0.533135 28.5857 0.557145 28.5857Z" fill="#6E6E6E"/>
</svg>
