<svg width="31" height="31" viewBox="0 0 31 31" fill="none" xmlns="http://www.w3.org/2000/svg">
<path d="M4.65454 7.23718L4.6506 8.44548L4.6512 8.44551L4.65454 7.23718ZM5.71855 10.1925L5.45419 10.6758C5.50006 11.1162 5.60385 11.4009 5.71855 11.4009V10.1925ZM6.7561 10.1925L6.96007 11.047C7.04256 10.7014 7.06724 10.1817 7.0226 9.73009C6.97795 9.27854 6.87278 8.98413 6.7561 8.98413V10.1925ZM5.80674 14.1699L5.60277 13.3155C5.55321 13.5231 5.52339 13.7994 5.51888 14.0925L5.80674 14.1699ZM2.0533 28.9097L2.05344 27.7013H2.0533V28.9097ZM0.877599 27.4321L0.776321 26.3006C0.693902 26.4301 0.630107 26.7102 0.603086 27.0612C0.576065 27.4121 0.588776 27.7956 0.637603 28.1024L0.877599 27.4321ZM2.28844 22.999L2.52844 23.6693C2.57433 23.381 2.58845 23.0239 2.56722 22.6889C2.54598 22.3539 2.49143 22.0733 2.41743 21.9182L2.28844 22.999ZM0.877599 8.2223L1.08156 7.36783C1.0057 7.05001 0.893999 6.93484 0.791596 7.06886C0.689192 7.20287 0.613004 7.56392 0.593813 8.00613L0.877599 8.2223ZM3.46414 14.133L3.41673 15.325C3.50036 15.3834 3.58588 15.2846 3.65059 15.055C3.71528 14.8254 3.75258 14.4882 3.75258 14.133H3.46414ZM3.75258 12.1628C3.75258 10.1256 4.16527 8.41775 4.6506 8.44548L4.65847 6.02888C3.85055 5.98273 3.17571 8.78182 3.17571 12.1628H3.75258ZM4.6512 8.44551C4.82211 8.45378 4.9888 8.66865 5.13124 9.0643L5.45003 7.04997C5.21496 6.39707 4.93989 6.04249 4.65787 6.02885L4.6512 8.44551ZM5.13124 9.0643C5.2737 9.45996 5.38584 10.0196 5.45419 10.6758L5.98291 9.70925C5.87012 8.6263 5.68507 7.70287 5.45003 7.04997L5.13124 9.0643ZM5.71855 11.4009H6.7561V8.98413H5.71855V11.4009ZM6.55216 9.33806L5.60277 13.3155L6.01068 15.0244L6.96007 11.047L6.55216 9.33806ZM5.51888 14.0925C5.46232 17.7813 5.07255 21.2414 4.42883 23.7693L4.82334 25.5326C5.57406 22.5845 6.02861 18.5493 6.09457 14.2474L5.51888 14.0925ZM4.42883 23.7693C3.78511 26.2972 2.93575 27.7032 2.05344 27.7013L2.05316 30.1181C3.08211 30.1203 4.07264 28.4807 4.82334 25.5326L4.42883 23.7693ZM2.0533 27.7013C1.61925 27.7013 1.37103 27.361 1.24173 27.0901C1.1768 26.9541 1.13952 26.8308 1.12199 26.7647C1.11312 26.7313 1.10893 26.711 1.10854 26.7092C1.10833 26.7081 1.10906 26.7116 1.11061 26.7202C1.11138 26.7245 1.11236 26.7301 1.11353 26.7369C1.11411 26.7404 1.11474 26.7441 1.11542 26.7484C1.11576 26.7503 1.11611 26.7526 1.11647 26.7548C1.11666 26.7559 1.11684 26.7571 1.11703 26.7582C1.11712 26.7588 1.11726 26.7597 1.11731 26.76C1.11745 26.7609 1.11759 26.7618 0.877599 27.4321C0.637603 28.1024 0.637749 28.1032 0.637895 28.1042C0.637945 28.1045 0.638093 28.1054 0.638193 28.1061C0.638394 28.1073 0.6386 28.1086 0.63881 28.1099C0.63923 28.1125 0.639668 28.1152 0.640124 28.118C0.641036 28.1235 0.64202 28.1294 0.643078 28.1357C0.645195 28.1482 0.647608 28.162 0.650333 28.1771C0.655785 28.2074 0.662479 28.2426 0.67054 28.282C0.686679 28.3609 0.708209 28.4561 0.73608 28.5612C0.792032 28.7722 0.87232 29.0184 0.983745 29.2518C1.20716 29.7198 1.54679 30.1181 2.0533 30.1181V27.7013ZM0.877599 27.4321C0.978877 28.5636 0.978945 28.5635 0.979017 28.5633C0.979046 28.5633 0.979122 28.5632 0.97918 28.5631C0.979296 28.5629 0.979426 28.5626 0.979571 28.5624C0.97986 28.562 0.980207 28.5615 0.98061 28.5608C0.981418 28.5595 0.982453 28.5579 0.983711 28.5558C0.986225 28.5518 0.98963 28.5463 0.993881 28.5392C1.00238 28.5252 1.01428 28.5053 1.02922 28.4794C1.05908 28.4276 1.10121 28.352 1.15278 28.2522C1.25571 28.0532 1.39746 27.7562 1.55507 27.36C1.8656 26.5794 2.25939 25.36 2.52844 23.6693L2.04845 22.3287C1.84721 23.5933 1.53558 24.5905 1.25826 25.2876C1.12194 25.6303 0.999163 25.8874 0.911037 26.0579C0.867085 26.1428 0.832058 26.2056 0.808647 26.2462C0.79695 26.2665 0.788179 26.2812 0.782672 26.2902C0.77992 26.2948 0.777985 26.2979 0.776912 26.2997C0.776376 26.3005 0.776055 26.301 0.775954 26.3011C0.775904 26.3012 0.775909 26.3012 0.77597 26.3011C0.776 26.3011 0.776045 26.301 0.776103 26.3009C0.776133 26.3009 0.776187 26.3008 0.776202 26.3008C0.77626 26.3007 0.776321 26.3006 0.877599 27.4321ZM2.28844 22.999C2.41743 21.9182 2.41758 21.9185 2.41772 21.9188C2.41775 21.9189 2.41788 21.9191 2.41796 21.9193C2.4181 21.9196 2.41822 21.9199 2.41831 21.9201C2.41849 21.9204 2.41856 21.9206 2.41852 21.9205C2.41844 21.9203 2.41793 21.9192 2.41699 21.9171C2.41513 21.9131 2.4116 21.9053 2.40652 21.8935C2.39635 21.8701 2.38004 21.8313 2.35857 21.7765C2.3156 21.6668 2.25228 21.4939 2.17652 21.2524C2.02467 20.7683 1.82515 20.0166 1.63888 18.9575C1.27157 16.8691 0.941318 13.5093 1.16139 8.43846L0.593813 8.00613C0.343599 13.7716 0.718763 17.8001 1.17446 20.3911C1.39968 21.6717 1.64104 22.5823 1.82721 23.1758C1.92045 23.4729 2.00042 23.6924 2.05849 23.8406C2.08754 23.9148 2.11118 23.9712 2.12834 24.0108C2.13693 24.0306 2.1439 24.0461 2.14913 24.0577C2.15174 24.0634 2.15392 24.0681 2.15564 24.0718C2.15651 24.0737 2.15726 24.0752 2.15789 24.0766C2.15821 24.0772 2.1585 24.0779 2.15876 24.0784C2.15889 24.0787 2.15906 24.079 2.15912 24.0792C2.15929 24.0795 2.15945 24.0799 2.28844 22.999ZM0.877599 8.2223C0.673642 9.07678 0.673696 9.07701 0.673755 9.07725C0.673781 9.07735 0.673844 9.07762 0.673895 9.07784C0.673998 9.07827 0.674118 9.07877 0.674257 9.07935C0.674535 9.08051 0.674884 9.08197 0.675306 9.08371C0.676148 9.08722 0.677278 9.0919 0.67869 9.09772C0.681516 9.10937 0.685474 9.1256 0.690538 9.14614C0.700665 9.18719 0.715218 9.24551 0.733967 9.3189C0.771452 9.46561 0.82579 9.67285 0.895134 9.92301C1.03364 10.4227 1.233 11.0972 1.4784 11.804C1.96502 13.2056 2.65216 14.7911 3.41673 15.325L3.51157 12.941C2.86529 12.4898 2.25915 11.1199 1.80521 9.81246C1.58033 9.16472 1.39759 8.54627 1.27156 8.09162C1.20864 7.86462 1.1601 7.67935 1.12778 7.55284C1.11162 7.48962 1.09954 7.44115 1.09175 7.40958C1.08786 7.3938 1.08505 7.38225 1.08334 7.3752C1.08248 7.37167 1.0819 7.36927 1.08161 7.36803C1.08146 7.36741 1.08138 7.36708 1.08137 7.36705C1.08137 7.36703 1.08138 7.36709 1.08141 7.36721C1.08143 7.36728 1.08146 7.36743 1.08147 7.36746C1.08151 7.36764 1.08156 7.36783 0.877599 8.2223ZM3.75258 14.133V12.1628H3.17571V14.133H3.75258Z" fill="#6E6E6E"/>
</svg>
