<svg width="97" height="17" viewBox="0 0 97 17" fill="none" xmlns="http://www.w3.org/2000/svg">
<path d="M8.28867 12.537L11.4387 14.537C11.8449 14.7932 12.3449 14.412 12.2262 13.9432L11.3137 10.3557C11.289 10.2562 11.2929 10.1518 11.325 10.0545C11.3571 9.95724 11.416 9.87097 11.4949 9.80568L14.3199 7.44943C14.6887 7.14318 14.5012 6.52443 14.0199 6.49318L10.3324 6.25568C10.2318 6.24983 10.1351 6.21479 10.0541 6.15486C9.97302 6.09492 9.91121 6.01268 9.87617 5.91818L8.50117 2.45568C8.46477 2.35562 8.39846 2.26918 8.31125 2.2081C8.22404 2.14702 8.12014 2.11426 8.01367 2.11426C7.90719 2.11426 7.8033 2.14702 7.71608 2.2081C7.62887 2.26918 7.56256 2.35562 7.52617 2.45568L6.15117 5.91818C6.11612 6.01268 6.05431 6.09492 5.97329 6.15486C5.89226 6.21479 5.79553 6.24983 5.69492 6.25568L2.00742 6.49318C1.52617 6.52443 1.33867 7.14318 1.70742 7.44943L4.53242 9.80568C4.61138 9.87097 4.67028 9.95724 4.70235 10.0545C4.73442 10.1518 4.73834 10.2562 4.71367 10.3557L3.86992 13.6807C3.72617 14.2432 4.32617 14.6995 4.80742 14.3932L7.73867 12.537C7.82086 12.4847 7.91626 12.4569 8.01367 12.4569C8.11108 12.4569 8.20647 12.4847 8.28867 12.537Z" fill="#1A1A1A"/>
<path d="M8.28867 12.537L11.4387 14.537C11.8449 14.7932 12.3449 14.412 12.2262 13.9432L11.3137 10.3557C11.289 10.2562 11.2929 10.1518 11.325 10.0545C11.3571 9.95724 11.416 9.87097 11.4949 9.80568L14.3199 7.44943C14.6887 7.14318 14.5012 6.52443 14.0199 6.49318L10.3324 6.25568C10.2318 6.24983 10.1351 6.21479 10.0541 6.15486C9.97302 6.09492 9.91121 6.01268 9.87617 5.91818L8.50117 2.45568C8.46477 2.35562 8.39846 2.26918 8.31125 2.2081C8.22404 2.14702 8.12014 2.11426 8.01367 2.11426C7.90719 2.11426 7.8033 2.14702 7.71608 2.2081C7.62887 2.26918 7.56256 2.35562 7.52617 2.45568L6.15117 5.91818C6.11612 6.01268 6.05431 6.09492 5.97329 6.15486C5.89226 6.21479 5.79553 6.24983 5.69492 6.25568L2.00742 6.49318C1.52617 6.52443 1.33867 7.14318 1.70742 7.44943L4.53242 9.80568C4.61138 9.87097 4.67028 9.95724 4.70235 10.0545C4.73442 10.1518 4.73834 10.2562 4.71367 10.3557L3.86992 13.6807C3.72617 14.2432 4.32617 14.6995 4.80742 14.3932L7.73867 12.537C7.82086 12.4847 7.91626 12.4569 8.01367 12.4569C8.11108 12.4569 8.20647 12.4847 8.28867 12.537ZM8.28867 12.537V12.537Z" stroke="#1A1A1A" stroke-linecap="round" stroke-linejoin="round"/>
<path d="M28.2887 12.537L31.4387 14.537C31.8449 14.7932 32.3449 14.412 32.2262 13.9432L31.3137 10.3557C31.289 10.2562 31.2929 10.1518 31.325 10.0545C31.3571 9.95724 31.416 9.87097 31.4949 9.80568L34.3199 7.44943C34.6887 7.14318 34.5012 6.52443 34.0199 6.49318L30.3324 6.25568C30.2318 6.24983 30.1351 6.21479 30.0541 6.15486C29.973 6.09492 29.9112 6.01268 29.8762 5.91818L28.5012 2.45568C28.4648 2.35562 28.3985 2.26918 28.3113 2.2081C28.224 2.14702 28.1201 2.11426 28.0137 2.11426C27.9072 2.11426 27.8033 2.14702 27.7161 2.2081C27.6289 2.26918 27.5626 2.35562 27.5262 2.45568L26.1512 5.91818C26.1161 6.01268 26.0543 6.09492 25.9733 6.15486C25.8923 6.21479 25.7955 6.24983 25.6949 6.25568L22.0074 6.49318C21.5262 6.52443 21.3387 7.14318 21.7074 7.44943L24.5324 9.80568C24.6114 9.87097 24.6703 9.95724 24.7024 10.0545C24.7344 10.1518 24.7383 10.2562 24.7137 10.3557L23.8699 13.6807C23.7262 14.2432 24.3262 14.6995 24.8074 14.3932L27.7387 12.537C27.8209 12.4847 27.9163 12.4569 28.0137 12.4569C28.1111 12.4569 28.2065 12.4847 28.2887 12.537Z" fill="#1A1A1A"/>
<path d="M28.2887 12.537L31.4387 14.537C31.8449 14.7932 32.3449 14.412 32.2262 13.9432L31.3137 10.3557C31.289 10.2562 31.2929 10.1518 31.325 10.0545C31.3571 9.95724 31.416 9.87097 31.4949 9.80568L34.3199 7.44943C34.6887 7.14318 34.5012 6.52443 34.0199 6.49318L30.3324 6.25568C30.2318 6.24983 30.1351 6.21479 30.0541 6.15486C29.973 6.09492 29.9112 6.01268 29.8762 5.91818L28.5012 2.45568C28.4648 2.35562 28.3985 2.26918 28.3113 2.2081C28.224 2.14702 28.1201 2.11426 28.0137 2.11426C27.9072 2.11426 27.8033 2.14702 27.7161 2.2081C27.6289 2.26918 27.5626 2.35562 27.5262 2.45568L26.1512 5.91818C26.1161 6.01268 26.0543 6.09492 25.9733 6.15486C25.8923 6.21479 25.7955 6.24983 25.6949 6.25568L22.0074 6.49318C21.5262 6.52443 21.3387 7.14318 21.7074 7.44943L24.5324 9.80568C24.6114 9.87097 24.6703 9.95724 24.7024 10.0545C24.7344 10.1518 24.7383 10.2562 24.7137 10.3557L23.8699 13.6807C23.7262 14.2432 24.3262 14.6995 24.8074 14.3932L27.7387 12.537C27.8209 12.4847 27.9163 12.4569 28.0137 12.4569C28.1111 12.4569 28.2065 12.4847 28.2887 12.537ZM28.2887 12.537V12.537Z" stroke="#1A1A1A" stroke-linecap="round" stroke-linejoin="round"/>
<path d="M48.2887 12.537L51.4387 14.537C51.8449 14.7932 52.3449 14.412 52.2262 13.9432L51.3137 10.3557C51.289 10.2562 51.2929 10.1518 51.325 10.0545C51.3571 9.95724 51.416 9.87097 51.4949 9.80568L54.3199 7.44943C54.6887 7.14318 54.5012 6.52443 54.0199 6.49318L50.3324 6.25568C50.2318 6.24983 50.1351 6.21479 50.0541 6.15486C49.973 6.09492 49.9112 6.01268 49.8762 5.91818L48.5012 2.45568C48.4648 2.35562 48.3985 2.26918 48.3113 2.2081C48.224 2.14702 48.1201 2.11426 48.0137 2.11426C47.9072 2.11426 47.8033 2.14702 47.7161 2.2081C47.6289 2.26918 47.5626 2.35562 47.5262 2.45568L46.1512 5.91818C46.1161 6.01268 46.0543 6.09492 45.9733 6.15486C45.8923 6.21479 45.7955 6.24983 45.6949 6.25568L42.0074 6.49318C41.5262 6.52443 41.3387 7.14318 41.7074 7.44943L44.5324 9.80568C44.6114 9.87097 44.6703 9.95724 44.7024 10.0545C44.7344 10.1518 44.7383 10.2562 44.7137 10.3557L43.8699 13.6807C43.7262 14.2432 44.3262 14.6995 44.8074 14.3932L47.7387 12.537C47.8209 12.4847 47.9163 12.4569 48.0137 12.4569C48.1111 12.4569 48.2065 12.4847 48.2887 12.537Z" fill="#1A1A1A"/>
<path d="M48.2887 12.537L51.4387 14.537C51.8449 14.7932 52.3449 14.412 52.2262 13.9432L51.3137 10.3557C51.289 10.2562 51.2929 10.1518 51.325 10.0545C51.3571 9.95724 51.416 9.87097 51.4949 9.80568L54.3199 7.44943C54.6887 7.14318 54.5012 6.52443 54.0199 6.49318L50.3324 6.25568C50.2318 6.24983 50.1351 6.21479 50.0541 6.15486C49.973 6.09492 49.9112 6.01268 49.8762 5.91818L48.5012 2.45568C48.4648 2.35562 48.3985 2.26918 48.3113 2.2081C48.224 2.14702 48.1201 2.11426 48.0137 2.11426C47.9072 2.11426 47.8033 2.14702 47.7161 2.2081C47.6289 2.26918 47.5626 2.35562 47.5262 2.45568L46.1512 5.91818C46.1161 6.01268 46.0543 6.09492 45.9733 6.15486C45.8923 6.21479 45.7955 6.24983 45.6949 6.25568L42.0074 6.49318C41.5262 6.52443 41.3387 7.14318 41.7074 7.44943L44.5324 9.80568C44.6114 9.87097 44.6703 9.95724 44.7024 10.0545C44.7344 10.1518 44.7383 10.2562 44.7137 10.3557L43.8699 13.6807C43.7262 14.2432 44.3262 14.6995 44.8074 14.3932L47.7387 12.537C47.8209 12.4847 47.9163 12.4569 48.0137 12.4569C48.1111 12.4569 48.2065 12.4847 48.2887 12.537ZM48.2887 12.537V12.537Z" stroke="#1A1A1A" stroke-linecap="round" stroke-linejoin="round"/>
<path d="M68.2887 12.537L71.4387 14.537C71.8449 14.7932 72.3449 14.412 72.2262 13.9432L71.3137 10.3557C71.289 10.2562 71.2929 10.1518 71.325 10.0545C71.3571 9.95724 71.416 9.87097 71.4949 9.80568L74.3199 7.44943C74.6887 7.14318 74.5012 6.52443 74.0199 6.49318L70.3324 6.25568C70.2318 6.24983 70.1351 6.21479 70.0541 6.15486C69.973 6.09492 69.9112 6.01268 69.8762 5.91818L68.5012 2.45568C68.4648 2.35562 68.3985 2.26918 68.3113 2.2081C68.224 2.14702 68.1201 2.11426 68.0137 2.11426C67.9072 2.11426 67.8033 2.14702 67.7161 2.2081C67.6289 2.26918 67.5626 2.35562 67.5262 2.45568L66.1512 5.91818C66.1161 6.01268 66.0543 6.09492 65.9733 6.15486C65.8923 6.21479 65.7955 6.24983 65.6949 6.25568L62.0074 6.49318C61.5262 6.52443 61.3387 7.14318 61.7074 7.44943L64.5324 9.80568C64.6114 9.87097 64.6703 9.95724 64.7024 10.0545C64.7344 10.1518 64.7383 10.2562 64.7137 10.3557L63.8699 13.6807C63.7262 14.2432 64.3262 14.6995 64.8074 14.3932L67.7387 12.537C67.8209 12.4847 67.9163 12.4569 68.0137 12.4569C68.1111 12.4569 68.2065 12.4847 68.2887 12.537Z" fill="#1A1A1A"/>
<path d="M68.2887 12.537L71.4387 14.537C71.8449 14.7932 72.3449 14.412 72.2262 13.9432L71.3137 10.3557C71.289 10.2562 71.2929 10.1518 71.325 10.0545C71.3571 9.95724 71.416 9.87097 71.4949 9.80568L74.3199 7.44943C74.6887 7.14318 74.5012 6.52443 74.0199 6.49318L70.3324 6.25568C70.2318 6.24983 70.1351 6.21479 70.0541 6.15486C69.973 6.09492 69.9112 6.01268 69.8762 5.91818L68.5012 2.45568C68.4648 2.35562 68.3985 2.26918 68.3113 2.2081C68.224 2.14702 68.1201 2.11426 68.0137 2.11426C67.9072 2.11426 67.8033 2.14702 67.7161 2.2081C67.6289 2.26918 67.5626 2.35562 67.5262 2.45568L66.1512 5.91818C66.1161 6.01268 66.0543 6.09492 65.9733 6.15486C65.8923 6.21479 65.7955 6.24983 65.6949 6.25568L62.0074 6.49318C61.5262 6.52443 61.3387 7.14318 61.7074 7.44943L64.5324 9.80568C64.6114 9.87097 64.6703 9.95724 64.7024 10.0545C64.7344 10.1518 64.7383 10.2562 64.7137 10.3557L63.8699 13.6807C63.7262 14.2432 64.3262 14.6995 64.8074 14.3932L67.7387 12.537C67.8209 12.4847 67.9163 12.4569 68.0137 12.4569C68.1111 12.4569 68.2065 12.4847 68.2887 12.537ZM68.2887 12.537V12.537Z" stroke="#1A1A1A" stroke-linecap="round" stroke-linejoin="round"/>
<path d="M92.1864 15.287L91.7844 15.9201L91.7863 15.9213L92.1864 15.287ZM92.9739 14.6932L93.7009 14.509L93.7007 14.5083L92.9739 14.6932ZM92.0614 11.1057L91.3335 11.2863L91.3346 11.2906L92.0614 11.1057ZM92.2427 10.5557L92.7206 11.1337L92.723 11.1316L92.2427 10.5557ZM95.0676 8.19943L94.5885 7.62246L94.5872 7.62347L95.0676 8.19943ZM94.7676 7.24318L94.8162 6.49476L94.8158 6.49473L94.7676 7.24318ZM91.0802 7.00568L91.1284 6.25722L91.1237 6.25695L91.0802 7.00568ZM90.6239 6.66818L91.3271 6.4074C91.3251 6.40204 91.3231 6.39669 91.321 6.39138L90.6239 6.66818ZM89.2489 3.20568L88.5441 3.46206C88.5466 3.4689 88.5492 3.47571 88.5519 3.48249L89.2489 3.20568ZM88.7614 2.86426V2.11426V2.86426ZM88.2739 3.20568L88.971 3.48249C88.9736 3.47571 88.9762 3.4689 88.9787 3.46206L88.2739 3.20568ZM86.8989 6.66818L86.2019 6.39138C86.1997 6.39669 86.1977 6.40204 86.1957 6.4074L86.8989 6.66818ZM86.4427 7.00568L86.3991 6.25693L86.3945 6.25723L86.4427 7.00568ZM82.7552 7.24318L82.707 6.49473L82.7066 6.49476L82.7552 7.24318ZM82.4552 8.19943L82.9356 7.62347L82.9343 7.62246L82.4552 8.19943ZM85.2802 10.5557L84.7998 11.1316L84.8022 11.1337L85.2802 10.5557ZM85.4614 11.1057L86.1884 11.2902L86.1893 11.2863L85.4614 11.1057ZM84.6177 14.4307L85.3443 14.6164L85.3446 14.6152L84.6177 14.4307ZM85.5552 15.1432L85.1539 14.5096L85.1525 14.5105L85.5552 15.1432ZM88.4864 13.287L88.8877 13.9206L88.8888 13.9199L88.4864 13.287ZM88.7614 13.2069V12.4569V13.2069ZM89.0364 13.287L88.634 13.9199L88.6344 13.9201L89.0364 13.287ZM88.6344 13.9201L91.7844 15.9201L92.5884 14.6538L89.4384 12.6538L88.6344 13.9201ZM91.7863 15.9213C92.811 16.5677 93.9727 15.5818 93.7009 14.509L92.2469 14.8774C92.2263 14.796 92.265 14.7089 92.3242 14.6641C92.3531 14.6422 92.3942 14.6236 92.446 14.62C92.5025 14.6161 92.5533 14.6317 92.5865 14.6526L91.7863 15.9213ZM93.7007 14.5083L92.7882 10.9208L91.3346 11.2906L92.2471 14.8781L93.7007 14.5083ZM92.7893 10.9251C92.7987 10.9628 92.7972 11.0024 92.785 11.0393L91.3604 10.5698C91.2841 10.8013 91.2748 11.0497 91.3335 11.2863L92.7893 10.9251ZM92.785 11.0393C92.7729 11.0762 92.7505 11.1089 92.7206 11.1337L91.7647 9.97768C91.5769 10.133 91.4367 10.3383 91.3604 10.5698L92.785 11.0393ZM92.723 11.1316L95.548 8.77539L94.5872 7.62347L91.7623 9.97972L92.723 11.1316ZM95.5468 8.7764C96.4082 8.06101 96.0117 6.57239 94.8162 6.49476L94.719 7.99161C94.6763 7.98883 94.6262 7.97013 94.5853 7.93552C94.5482 7.90423 94.5289 7.86907 94.5199 7.83994C94.5025 7.78373 94.5114 7.6865 94.5885 7.62246L95.5468 8.7764ZM94.8158 6.49473L91.1284 6.25723L91.032 7.75413L94.7194 7.99163L94.8158 6.49473ZM91.1237 6.25695C91.1686 6.25956 91.2117 6.27517 91.2478 6.30189L90.3558 7.50782C90.5539 7.65441 90.7905 7.7401 91.0366 7.75442L91.1237 6.25695ZM91.2478 6.30189C91.2839 6.32861 91.3115 6.36527 91.3271 6.4074L89.9207 6.92896C90.0064 7.16008 90.1576 7.36122 90.3558 7.50782L91.2478 6.30189ZM91.321 6.39138L89.946 2.92887L88.5519 3.48249L89.9269 6.94499L91.321 6.39138ZM89.9537 2.9493C89.8647 2.70457 89.7025 2.49317 89.4892 2.34378L88.6288 3.57242C88.5899 3.5452 88.5603 3.50667 88.5441 3.46206L89.9537 2.9493ZM89.4892 2.34378C89.2759 2.19439 89.0218 2.11426 88.7614 2.11426V3.61426C88.7139 3.61426 88.6676 3.59965 88.6288 3.57242L89.4892 2.34378ZM88.7614 2.11426C88.501 2.11426 88.2469 2.19439 88.0336 2.34378L88.8941 3.57242C88.8552 3.59965 88.8089 3.61426 88.7614 3.61426V2.11426ZM88.0336 2.34378C87.8203 2.49317 87.6581 2.70457 87.5691 2.9493L88.9787 3.46206C88.9625 3.50666 88.9329 3.5452 88.8941 3.57242L88.0336 2.34378ZM87.5769 2.92887L86.2019 6.39138L87.596 6.94499L88.971 3.48249L87.5769 2.92887ZM86.1957 6.4074C86.2113 6.36527 86.2389 6.32861 86.275 6.30189L87.1671 7.50782C87.3652 7.36122 87.5164 7.16008 87.6021 6.92896L86.1957 6.4074ZM86.275 6.30189C86.3111 6.27518 86.3542 6.25956 86.3991 6.25695L86.4862 7.75442C86.7323 7.7401 86.9689 7.65441 87.1671 7.50782L86.275 6.30189ZM86.3945 6.25723L82.707 6.49473L82.8034 7.99163L86.4909 7.75413L86.3945 6.25723ZM82.7066 6.49476C81.5111 6.57239 81.1146 8.06101 81.976 8.7764L82.9343 7.62246C83.0114 7.6865 83.0203 7.78373 83.0029 7.83994C82.9939 7.86907 82.9746 7.90423 82.9375 7.93552C82.8966 7.97013 82.8465 7.98883 82.8038 7.99161L82.7066 6.49476ZM81.9748 8.77539L84.7998 11.1316L85.7605 9.97972L82.9356 7.62347L81.9748 8.77539ZM84.8022 11.1337C84.7723 11.1089 84.7499 11.0762 84.7378 11.0393L86.1624 10.5698C86.0861 10.3383 85.946 10.133 85.7581 9.97768L84.8022 11.1337ZM84.7378 11.0393C84.7256 11.0024 84.7241 10.9628 84.7335 10.9251L86.1893 11.2863C86.248 11.0497 86.2387 10.8013 86.1624 10.5698L84.7378 11.0393ZM84.7345 10.9212L83.8907 14.2462L85.3446 14.6152L86.1884 11.2901L84.7345 10.9212ZM83.891 14.245C83.5944 15.4056 84.8511 16.4803 85.9578 15.776L85.1525 14.5105C85.1682 14.5005 85.2 14.4894 85.2377 14.492C85.2705 14.4943 85.2929 14.5058 85.3059 14.5157C85.3189 14.5256 85.331 14.5402 85.3388 14.5609C85.3479 14.5854 85.3466 14.6074 85.3443 14.6164L83.891 14.245ZM85.9564 15.7769L88.8877 13.9206L88.0852 12.6533L85.1539 14.5096L85.9564 15.7769ZM88.8888 13.9199C88.8508 13.9441 88.8066 13.9569 88.7614 13.9569V12.4569C88.5215 12.4569 88.2865 12.5253 88.084 12.654L88.8888 13.9199ZM88.7614 13.9569C88.7163 13.9569 88.6721 13.9441 88.634 13.9199L89.4388 12.654C89.2364 12.5253 89.0014 12.4569 88.7614 12.4569V13.9569Z" fill="#6E6E6E"/>
</svg>
