<svg width="33" height="33" viewBox="0 0 33 33" fill="none" xmlns="http://www.w3.org/2000/svg">
<path d="M16.0205 0.118164C7.1853 0.118164 0.0205078 7.28295 0.0205078 16.1182C0.0205078 24.9534 7.1853 32.1182 16.0205 32.1182C24.8557 32.1182 32.0205 24.9534 32.0205 16.1182C32.0205 7.28295 24.8557 0.118164 16.0205 0.118164ZM23.3259 12.5933C23.333 12.7508 23.3364 12.909 23.3364 13.0679C23.3364 17.9207 19.6426 23.5166 12.8874 23.5169H12.8877H12.8874C10.8135 23.5169 8.88355 22.909 7.2583 21.8672C7.54566 21.9012 7.83814 21.918 8.13428 21.918C9.85498 21.918 11.4385 21.3311 12.6955 20.346C11.0879 20.3162 9.73242 19.2544 9.26465 17.7952C9.48853 17.8382 9.71875 17.8616 9.95484 17.8616C10.29 17.8616 10.6147 17.8164 10.9233 17.7322C9.24292 17.3958 7.97705 15.9107 7.97705 14.1324C7.97705 14.1158 7.97705 14.1009 7.97754 14.0855C8.47241 14.3606 9.03833 14.5262 9.64087 14.5447C8.65479 13.8868 8.00659 12.762 8.00659 11.4878C8.00659 10.815 8.18848 10.1846 8.50391 9.64184C10.3149 11.864 13.0215 13.3255 16.0737 13.479C16.0107 13.21 15.9783 12.9297 15.9783 12.6416C15.9783 10.6143 17.623 8.96948 19.6511 8.96948C20.7075 8.96948 21.6616 9.41601 22.3318 10.1299C23.1684 9.96484 23.9541 9.65918 24.6638 9.23852C24.3892 10.0957 23.8071 10.815 23.0488 11.2698C23.7917 11.1809 24.4997 10.9839 25.1577 10.6914C24.6663 11.428 24.043 12.075 23.3259 12.5933Z" fill="#D7D7D7"/>
</svg>
